<?xml version="1.0" encoding="utf-8"?>
<!-- Generator: Adobe Illustrator 22.0.1, SVG Export Plug-In . SVG Version: 6.00 Build 0)  -->
<svg version="1.1" id="圖層_1" xmlns="http://www.w3.org/2000/svg" xmlns:xlink="http://www.w3.org/1999/xlink" x="0px" y="0px"
	 viewBox="0 0 737.5 714" style="enable-background:new 0 0 737.5 714;" xml:space="preserve">
<style type="text/css">
	.st0{fill:#AD142C;}
	.st1{fill:#BA1931;}
	.st2{fill:#D3223E;}
	.st3{fill:#7F3B1C;}
	.st4{fill:#5A2913;}
	.st5{fill:#BA1E34;}
	.st6{fill:#8C0F22;}
	.st7{fill:#C08052;}
	.st8{fill:#E29B6D;}
	.st9{fill:#A51129;}
</style>
<g>
	<path class="st0" d="M586.3,68.2c0,1.4,0.1,2.9,0.1,4.3c0,58.3,0,116.6,0,174.9c0,1.4,0,2.9,0.1,4.3c-0.6,0.7-1.4,0.9-2.3,0.9
		c-9.1,0.6-15,5.7-19,13.4c-4.3,8.1-6,16.9-7.3,25.8c-1.5,9.8-0.5,19.6-0.7,29.5c-0.1,3.4,0.1,6.7-0.1,10
		c6.1-14.3,13.7-27.7,23.9-39.5c12.4-14.3,26.9-25.2,46-29c15.4-3.1,29.6,0.1,43,7.5c17.2,9.5,29.4,24.1,39.3,40.7
		c4.4,7.4,8.2,15.2,11.5,23.2c1.1,2.7,1.9,5.4,2.4,8.2c0,4.2,0.1,8.4,0.1,12.6c0,52,0.1,104.1,0,156.1c0,13.1-4.2,24.9-12.1,35.4
		c-4.6,6.1-10.5,9.2-18.5,9.1c-21.7-0.3-43.4,0-65.1,0c-1.4,1.2-3.1,1-4.8,1c-7,0-14.1-0.2-21.1,0.1c-7,0.2-13.5-1.2-19.6-4.7
		c-8.3-4.5-15.5-10.4-20.8-18.4c-3.6-5.4-5.4-11.1-5.4-17.6c0-21.7-0.1-43.4,0.1-65.1c0-4.4-1.4-6.9-5.5-8.5
		c-3.9-1.5-7.7-3.4-11.6-4.8c-5.2-1.9-10.5-2.9-16.2-2.9c-21.8,0.1-43.6,0-65.4,0.1c-74.8,0-149.6,0-224.4,0
		c-12.1,0-23.9,2.2-35.2,6.4c-4.6,1.7-8.8,4.3-12.6,7.6c-1.2,1.1-2.2,2.7-4.3,2c-1.1-1.5-1-3.2-1-4.8c0-17.1,0-34.2,0-51.3
		c0-1.6-0.1-3.1,0.7-4.6c2.2-1.9,4.1-0.2,5.9,0.6c17.2,7.6,35,13.1,53.5,16.7c24.7,4.7,48.4,1.7,71.6-7.6
		c23.2-9.3,44.6-21.7,65.1-35.9c16.4-11.3,32-23.7,46.8-37.1c12.1-11,23.5-22.6,34.4-34.7c12.5-13.8,24.2-28.2,34.7-43.6
		c19.3-28.3,34.1-58.7,41.3-92.4c1.1-5.3,0.9-10.8,1-16.1c0.2-12.1,1.4-24.2,0.9-36.3c-0.5-14.2-2-28.2-8-41.4
		c-1.6-3.5-1.2-3.8,2.2-4.8c7.1,0.5,14,1.9,21,3c10.9,1.8,21.6,4.1,32.5,6.2C584.5,67.2,585.5,67.4,586.3,68.2z"/>
	<path class="st1" d="M181.8,390c-1.2,1.1-0.7,2.5-0.7,3.7c0,19.2,0,38.3,0,57.5c1.4,1.5,1.1,3.3,1.1,5.1c0.1,8-0.1,15.9,0.2,23.9
		c-0.6,10.7,0.1,21.3-0.3,32c-0.6,14.7-5.4,27.9-15.6,38.8c-4,4.1-8.9,5.8-14.6,5.8c-15.7-0.1-31.4,0-47,0c-1.8,0-3.6,0.2-5.2-1
		c-12.6,0-25.2-0.6-37.8,0.1c-13.2,0.6-23.8-4.4-33.3-12.7c-9.1-8-13.9-17.4-13.8-30.1c0.3-43.5-0.2-87.1-0.3-130.6
		c0-2.2,0.1-4.3,0.2-6.5c-0.4-1.3-0.2-2.6-0.2-3.9c0-10.2,0.4-20.4-0.1-30.6c-0.5-8.1,2.4-15,6-21.8c6-11.4,12.9-22.2,21.8-31.6
		c15.6-16.4,33.8-27.3,57.3-26.2c16.4,0.7,30.5,7.8,42.8,18.5c19.3,16.8,31,38.4,39.6,62.1c0.4,1.5,0.5,3.1,0.5,4.6
		c0,13.4,0,26.8,0,40.2C182.3,388.2,182.4,389.2,181.8,390z"/>
	<path class="st2" d="M180.4,341.8c-5.7-16.8-13.9-32.2-24.9-46.2c-7.1-9-15.3-16.8-25-22.8c-11.9-7.4-24.9-11.3-38.9-10.1
		c-13.9,1.1-26.2,6.7-37.2,15.3c-13.9,10.9-24,24.8-32.2,40.2c-2.1,4-3.8,8.3-6,12.2c-1.1,2-1.4,4.3-1.4,6.6c0,12.9,0,25.9-0.1,38.8
		c-0.8-8.7-0.4-17.5-0.4-26.2c-0.1-16.2-0.3-32.4-0.1-48.6c0.1-13.6,3.4-26.3,10.5-38c4.6-7.6,10.8-11.6,20.3-11.5
		c32,0.4,64.1,0.1,96.1,0.2c3.1,0,4.2-0.6,4.1-4c-0.1-58.1,0-116.1-0.2-174.2c0-6.4,1.2-12.4,4.2-18c11-20.4,26.3-36.2,48.7-43.9
		c4-1.4,8.1-1.9,12.4-1.9c103.1,0,206.1,0.2,309.2-0.1c16.4-0.1,29.9,5.4,41.8,16c11.5,10.3,19.5,22.9,24.3,37.6
		c0.5,1.6,1.1,3.2,0.7,4.9c-8.9-0.7-17.6-3.2-26.4-4.7c-10.1-1.7-20.2-3.7-30.4-4.7c-18.3-0.6-35.8-6.1-53.7-8.7
		c-20.9-3-41.7-6.2-62.8-8.2c-8.9-0.8-17.9-1.5-26.9-1.4c-23.8,0-47.3,3.5-70.6,8.4c-19.6,4.2-38.8,10-57.2,18.2
		c-20.2,9.1-38.6,20.8-53.9,37c-9.5,10-16.6,21.7-23,33.8c-17.1,32.2-27.7,66.6-32.9,102.6c0,0.2-0.1,0.5-0.1,0.7
		c-0.8,5.9-0.8,6,4.8,7.3c12.8,2.9,19.6,11.6,23.5,23.4c3.6,10.9,5.7,22,5.4,33.6c-0.2,10.6,0,21.1-0.1,31.7
		C182.1,338.9,182.8,341,180.4,341.8z"/>
	<path class="st3" d="M100.4,619c0-7.7,0-15.3,0-23c1-1.1,2.3-1.1,3.6-1.2c1.2-0.1,2.4,0,3.6,0c170.8,0,341.7,0,512.5,0
		c2.5,0,5.1-0.7,7.3,1.1c0,7.4,0.1,14.9,0.1,22.3c0,0.6,0.1,1.2-0.6,1.5c-1.4,1.2-3.1,1.1-4.8,1.1c-21.6,0-43.2,0-64.7,0
		c-1.7,0-3.4,0-4.8-1.1c-113.4,0-226.7,0-340.1,0c-13.1,0-26.1,0-39.2,0.1c-1.2,0.4-2.3,0.4-3.5,0.4c-21.3,0-42.6,0-63.9,0
		C104,620.2,101.9,620.5,100.4,619z"/>
	<path class="st4" d="M627.4,596c-173.9,0-347.7,0-521.6,0c-1.8,0-3.6,0-5.4,0c-1.3-0.9-0.6-2.2-0.6-3.3c-0.1-12.3-0.1-24.7-0.1-37
		c17.5,0,35-0.1,52.5,0c5.5,0,10-1.8,13.7-5.8c2.4-0.7,3.1,1.3,4,2.7c7.2,10.1,16.2,18.2,26.9,24.6c5.3,3.1,10.8,4.8,17.1,4.8
		c78.7-0.1,157.4-0.1,236,0c28.8,0.1,57.5,0.1,86.3,0c6.6,0,12.2-3.3,17.5-6.8c9.1-5.9,17.3-12.9,24-21.5c1.1-1.3,2-3.2,4.3-2.4
		c7.5,4.1,15.6,4.8,23.9,4.5c7.2-0.2,14.3,0,21.5,0C627.5,569.1,627.4,582.6,627.4,596z"/>
	<path class="st4" d="M552.6,619.8c24.8,0,49.5,0,74.3,0c0,28.5-0.1,57.1,0,85.6c0,3-0.7,3.7-3.7,3.7c-22.4-0.1-44.9-0.1-67.3,0
		c-2.7,0-3.3-0.6-3.3-3.3C552.7,677.1,552.6,648.4,552.6,619.8z"/>
	<path class="st4" d="M100.4,619c22.9,0,45.9,0,68.8,0.1c1.4,0,2.9-0.6,4,0.8c0,28.3-0.1,56.6,0,84.9c0,3-0.8,3.7-3.7,3.7
		c-22.2-0.1-44.4-0.1-66.6,0c-2.3,0-3.3-0.2-3.3-3c0.1-27.9,0.1-55.9,0.1-83.8C99.8,620.7,99.3,619.6,100.4,619z"/>
	<path class="st2" d="M723.1,342.5c-6-14.8-12.5-29.3-22-42.2c-11.3-15.3-24.7-28-43.1-34.3c-14.3-4.9-28.6-4.3-42.7,1.3
		c-13.8,5.5-24.7,14.8-34.2,26c-9.6,11.3-16.9,24.1-22.7,37.7c-0.4,1-1,1.9-1.5,3c-1-0.6-0.6-1.5-0.6-2.2c0-11-0.5-22.1,0.1-33.1
		c0.6-12.1,2.8-24.1,9-34.7c4.6-8,11.4-12.8,21.2-12.2c36.4,0,72.8,0.1,109.3-0.1c7,0,12,2.8,15.7,8.3c6.5,9.6,9.8,20.5,11,31.9
		C724.3,308.7,723,325.7,723.1,342.5z"/>
	<path class="st5" d="M180.4,341.8c1.2-1.1,0.7-2.5,0.7-3.7c0-13.1,0.6-26.2-0.1-39.2c-0.7-14.2-3.5-28.1-12.2-39.8
		c-4.9-6.6-12-9.5-20.2-9.6c-2.3,0-2.1-1.1-1.9-2.4c1.6-11.2,3.5-22.3,6-33.4c6.1-26.8,15.4-52.3,28.3-76.5
		c8-15,17.1-29.1,29.9-40.5c14.3-12.9,30.6-22.9,48.2-30.7c16.4-7.2,33.3-12.6,50.7-16.6c13.3-3.1,26.8-5.4,40.5-7.1
		c12-1.5,23.9-3.1,36-2.7c12.7,0.5,25.5,1.3,38.2,2.6c18.1,1.9,36.2,4.5,54.1,7.5c14.7,2.4,29.3,5.3,43.9,8.2c2.4,0.5,5.1-0.5,7.3,1
		c-2-0.1-2.1,0.7-1.4,2.4c2.7,7,5.8,13.9,6.8,21.5c0.4,3.2,1,6.3,1.1,9.6c0.4,8.4,0.9,16.7,0.7,25.1c-0.4,12.3-0.4,24.6-1.6,36.9
		c-0.8,8.4-3.7,16.5-6.3,24.6c-7.2,22.2-17.5,42.9-30.2,62.5c-10.3,16-21.8,31-34.4,45.3c-8.1,9.3-16.3,18.5-25.2,27
		c-11.4,11-23.1,21.7-35.6,31.7c-17.5,14-35.7,26.9-55.1,38c-18.1,10.4-36.9,19.3-57.3,24.3c-12,3-24.1,3.8-36.5,2.7
		c-24.4-2.1-47.2-9.2-69.4-19c-1.1-0.5-2.2-0.9-3.3-1.3c-0.9-1.4-0.7-3-0.7-4.5c0-13.1,0-26.1,0-39.2
		C181.1,344.8,181.3,343.2,180.4,341.8z"/>
	<path class="st2" d="M181.9,480.7c-0.9-1.3-0.7-2.7-0.7-4.1c0-8.4,0-16.9,0-25.3c11.6-11.7,26.5-14.8,42-16.7
		c5.3-0.7,10.5-0.6,15.7-0.6c72.9,0,145.8,0,218.6,0c7.3,2.7,13.3,7.5,19.1,12.5c8,6.8,14.8,14.7,18.9,24.5c4.1,9.9,5.4,20,2.3,30.5
		c-0.3,1.1-0.6,2.3-1.6,3.1c-4.8,1.8-10,1.6-14.9,1.5c-17.5-0.1-35,0.9-52.5,0.9c-17.9,0.1-35.7-0.6-53.6-0.9
		c-55.2-0.9-109.8-7.1-163.9-18.1c-8.5-1.7-17-3.3-25.3-5.6C184.6,482.2,182.9,482.1,181.9,480.7z"/>
	<path class="st6" d="M496.4,503.8c2.5-8.9,2.9-17.8,0.2-26.8c-2.4-8.2-6.6-15.4-12.3-21.6c-7-7.8-15.1-14.3-24.2-19.5
		c-0.9-0.5-1.7-1.3-2.6-1.9c21.3,0,42.7,0.2,64-0.1c8.3-0.1,15.8,2,23.2,5.2c2.9,1.2,5.6,2.7,8.5,3.8c2.9,1.1,3.8,2.8,3.8,6
		c-0.1,22.4,0.1,44.8-0.1,67.2c-0.1,9,3.7,16.1,9.3,22.6c4.5,5.2,10.1,9.1,15.9,12.6c-3,0.7-4,3.7-5.7,5.7
		c-8.7,10-18.7,18.1-30.7,23.8c-2.9,1.4-6,2.3-9.3,2.3c-28.7,0-57.4,0-86,0c-0.3-2.1,1.4-2.9,2.5-4.1c6.3-6.2,12.5-12.6,18.3-19.3
		c11.1-12.8,17.1-28.1,21.5-44.2C493.8,511.5,494.3,507.3,496.4,503.8z"/>
	<path class="st7" d="M701.7,413.1c-0.8,9.1-2.9,17.9-4.4,26.8c-3,18.2-6.4,36.4-9.1,54.7c-1.1,6.9-5.1,10.5-11.1,12.7
		c-6.7,2.5-13.7,3.4-20.6,4.3c-7.6,1-15.3,1-22.9,0.8c-11.4-0.3-22.2-3.3-32.4-8.2c-2.2-1-3.3-2.5-3.8-4.8
		c-5-28.5-10.1-57.1-15.2-85.6c-0.1-0.5,0-1,0-1.4c3.9,2.6,7.8,5.1,12.4,6.1c0.6,0.1,0.8,0.8,0.8,1.5c0.5,9.2,2.3,18.3,3.6,27.4
		c1.7,12.6,3.7,25.1,5.6,37.7c0.3,2.3,0.9,3.2,3.4,2.1c3.1-1.4,6.4-1.8,9.8-2.3c4.8-0.7,5-0.8,4.3-5.7c-1.8-13.8-3.5-27.5-5.3-41.3
		c-0.7-5.2-2-10.3-1.5-15.6c3.7-0.8,7.2-0.6,10.5,1.6c2.2,4.5,1.6,9.4,2.1,14.1c1.2,13.2,2.2,26.5,3.2,39.7c0.4,5,0.6,5,5.6,5
		c3.4,0,6.7-0.2,10.1,0.2c3.8,0.4,4.4,0.1,4.7-3.8c0.6-6.6,1.2-13.1,1.6-19.7c0.7-9.9,1.7-19.8,2.4-29.7c0.2-2.4,0.1-5.1,2.5-6.8
		c3.1-1.6,6.5-1.7,9.9-1.2c0.3,5.2-0.9,10.2-1.5,15.2c-1.6,14.6-3.3,29.3-4.9,43.9c-0.3,2.6,0.6,3.8,3.1,4.1
		c3.1,0.4,6.1,1.2,9.1,2.1c2.9,1,3.8-0.1,4.3-2.8c1.9-11.3,4.1-22.6,6.1-33.9c1.6-9.1,3.3-18.1,4.9-27.2c0.3-1.5,0.5-3.1,0.3-4.6
		c0-0.4,0-0.9,0.3-1C693.5,415.8,697.4,414,701.7,413.1z"/>
	<path class="st8" d="M625.4,423.9c-3.4-0.5-6.8-0.9-10.2-1.4c-0.3,0.3-0.7,0.7-1.2,0.7c-6.2-0.1-12.3-0.9-18.2-3
		c-0.3-0.1-0.5-0.5-0.7-0.8c-4.8-1.4-9.9-2.2-12.9-7c-0.4-3.4,1.2-5.7,3.9-7.5c6.2-4.2,13.4-5.7,20.6-6.9c14.2-2.3,28.6-2.7,43-2.1
		c14.1,0.6,28.2,1.4,41.8,5.7c3.2,1,6.4,2.2,8.8,4.7c1.9,2,2.8,4.1,1.4,6.8c-3.7,2.7-8.1,3.5-12.3,4.9c-3.2,2.7-17.8,5.3-21.5,3.8
		c-3.1,1-6.5,0.2-9.5,1.4c-7.5,2.8-15.4,2.9-23.2,2.1C631.9,425,628.4,426,625.4,423.9z"/>
	<path class="st9" d="M496.4,503.8c-5,22.5-12.1,43.9-28.7,61.1c-5.8,6-12,11.7-17.3,18.1c-80,0-159.9,0-239.9,0
		c-6.3,0-11.7-3.2-16.8-6.5c-10.1-6.5-18.7-14.5-25.3-24.5c-0.6-0.8-0.9-2-2.3-2c7.3-7.2,11.1-16.3,13.6-26
		c1.1-4.3,1.7-8.6,1.6-13.1c-0.1-8.8-0.1-17.5,0-26.3c0-1.3-0.5-2.7,0.7-3.7c8.3,1.8,16.6,3.5,24.8,5.3c14,3,28.1,5.5,42.2,7.7
		c12.9,2,25.9,3.9,38.9,5.6c7.9,1,15.9,1.6,23.8,2.3c19.2,1.9,38.4,2.5,57.6,3.1c6.6,0.2,13.1,0.5,19.7,0.5c15.3,0,30.6,1.3,46,0.7
		c15.8-0.6,31.6-0.5,47.4-0.9C486.9,504.9,491.8,505.5,496.4,503.8z"/>
	<path class="st7" d="M159.5,413.1c-0.7,8.1-2.5,16-3.8,24c-3.2,19.3-6.6,38.6-9.8,57.9c-0.8,5.1-3.2,8.6-7.7,10.9
		c-6,3.1-12.5,4.1-19,5.1c-9.2,1.4-18.5,2-27.9,1.6C80,512,69.2,509.2,59,504.3c-2.2-1-3.3-2.5-3.7-4.8c-5-28.5-10.1-57.1-15.2-85.6
		c-0.1-0.5,0-1,0.1-1.4c3.8,2.6,7.5,5.1,12.1,6c0.7,0.1,1.1,0.9,1.1,1.6c0.5,9.2,2.3,18.3,3.6,27.4c1.7,12.6,3.7,25.1,5.6,37.7
		c0.3,2.3,0.9,3.2,3.4,2.1c3.1-1.4,6.4-1.8,9.8-2.3c4.8-0.7,5-0.8,4.3-5.7c-1.8-13.8-3.5-27.5-5.3-41.3c-0.7-5.2-2-10.3-1.5-15.6
		c3.7-0.8,7.2-0.6,10.5,1.6c2.2,4.5,1.6,9.4,2.1,14.1c1.2,13.2,2.2,26.5,3.2,39.7c0.4,5,0.6,5,5.6,5c3.4,0,6.7-0.2,10.1,0.2
		c3.8,0.4,4.4,0.1,4.7-3.8c0.6-6.6,1.2-13.1,1.6-19.7c0.7-9.9,1.7-19.8,2.4-29.7c0.2-2.4,0.1-5.1,2.5-6.8c3.1-1.6,6.5-1.7,9.9-1.2
		c0.3,5.2-0.9,10.2-1.5,15.2c-1.6,14.6-3.3,29.3-4.9,43.9c-0.3,2.6,0.6,3.8,3.1,4.1c3.2,0.4,6.4,1.2,9.4,2.2c2.9,1,3.5-0.6,3.9-2.9
		c2-11.4,4.1-22.9,6.2-34.3c1.6-9.1,3.3-18.1,4.9-27.2c0.3-1.4,0.4-2.8,0.2-4.3c0-0.4,0-0.9,0.3-1
		C151.3,415.8,155.3,414,159.5,413.1z"/>
	<path class="st8" d="M125.7,421.8c-3.1,1-6.5,0.2-9.5,1.4c-7.5,2.8-15.4,2.9-23.2,2.1c-3.2-0.3-6.7,0.6-9.7-1.4
		c-3.4-0.5-6.8-0.9-10.2-1.4c-0.3,0.3-0.7,0.7-1.2,0.7c-6.2-0.1-12.3-0.9-18.2-3c-0.3-0.1-0.5-0.5-0.7-0.8c-4.8-1.4-9.9-2.2-12.8-7
		c-0.4-3.4,1.3-5.7,3.9-7.5c5.9-4.1,12.7-5.6,19.5-6.6c27-3.9,53.9-3.4,80.6,2c4.1,0.8,8.1,2.1,11.7,4.3c3.9,2.3,4.9,4.8,3.6,8.6
		c-3.6,2.8-8.1,3.5-12.3,5C144.1,420.7,129.4,423.3,125.7,421.8z"/>
	<path class="st1" d="M625.4,423.9c4.2-0.3,8.4,0.3,12.6,0.6c6.9,0.5,13.6-0.8,20.4-1.3c-2.2,1.6-1.7,4.2-1.9,6.2
		c-1,10.1-1.6,20.2-2.4,30.3c-0.6,7.4-1.5,14.7-2,22.1c-0.2,2.2-1.1,2.7-2.9,2.4c-5.7-1-11.4-0.8-17.2-0.3c-1.5,0.1-1.6-0.5-1.6-1.6
		c-0.4-5.4-0.9-10.7-1.4-16C627.8,452.2,626.6,438.1,625.4,423.9z"/>
	<path class="st1" d="M667.9,421.8c7.3-0.5,14.4-2.1,21.5-3.8c1.3,0.1,1.4,0.9,1.2,2.1c-2.7,14.4-5.3,28.9-8,43.3
		c-1.4,7.4-2.7,14.8-4,22.2c-0.4,2.5-0.9,3.8-4,2.7c-3.7-1.3-7.5-2.3-11.5-2.6c-2.7-0.2-3.4-1.4-3-4.3c1.4-9.7,2.2-19.5,3.3-29.2
		c1-8.9,2-17.8,3-26.7C666.7,424.2,667,422.9,667.9,421.8z"/>
	<path class="st1" d="M595.1,419.4c6.6,1.5,13.3,2.7,20.1,3.1c2.3,5.6,2,11.7,2.9,17.6c1.9,13.8,3.3,27.8,5.5,41.6
		c0.5,3.4-1.1,3.7-3.2,3.9c-5.4,0.6-10.7,1.4-15.9,4.2c-1-6.1-2-11.9-2.8-17.8c-2.1-14.2-4.3-28.3-6.1-42.5
		C595.1,426.2,593.2,422.8,595.1,419.4z"/>
	<path class="st1" d="M642.4,401.5c9.6,0.3,20.5,0.5,31.1,3.7c1.6,0.5,3.2,1.1,4.5,2.1c2.8,2,2.6,4.1-0.4,5.7c-4,2-8.4,2.6-12.8,3.4
		c-17.8,3.3-35.5,3.1-53.1-1.1c-2.6-0.6-6.1-1-6.4-4.3c-0.3-3.6,3.1-4.8,5.9-5.8C621,401.9,631.1,401.6,642.4,401.5z"/>
	<path class="st1" d="M83.3,423.9c4.2-0.3,8.4,0.3,12.6,0.6c6.9,0.5,13.6-0.8,20.4-1.3c-2.2,1.6-1.7,4.2-1.9,6.2
		c-1,10.1-1.6,20.2-2.4,30.3c-0.6,7.4-1.5,14.7-2,22.1c-0.2,2.2-1.1,2.7-2.9,2.4c-5.7-1-11.4-0.8-17.2-0.3c-1.5,0.1-1.6-0.5-1.6-1.6
		c-0.4-5.4-0.9-10.7-1.4-16C85.6,452.2,84.5,438.1,83.3,423.9z"/>
	<path class="st1" d="M125.7,421.8c7.3-0.5,14.4-2.1,21.5-3.8c1.3,0.1,1.4,0.9,1.2,2c-2.7,14.4-5.3,28.9-8,43.3
		c-1.4,7.4-2.7,14.8-4,22.2c-0.4,2.5-0.9,3.8-4,2.7c-3.7-1.3-7.5-2.3-11.5-2.6c-2.7-0.2-3.4-1.4-3-4.3c1.4-9.7,2.2-19.5,3.3-29.2
		c1-8.9,2-17.8,3-26.7C124.6,424.2,124.8,422.9,125.7,421.8z"/>
	<path class="st1" d="M53,419.4c6.6,1.5,13.3,2.7,20.1,3.1c2.3,5.6,2,11.7,2.9,17.6c1.9,13.8,3.3,27.8,5.5,41.6
		c0.5,3.4-1.1,3.7-3.2,3.9c-5.4,0.6-10.7,1.4-15.9,4.2c-1-6.1-2-11.9-2.8-17.8c-2.1-14.2-4.3-28.3-6.1-42.5
		C52.9,426.2,51.1,422.8,53,419.4z"/>
	<path class="st1" d="M100.1,419c-10.7-0.9-20.8-1-30.5-3.7c-2.6-0.7-6.1-1.1-6.3-4.4c-0.2-3.6,3.3-4.7,6-5.7
		c6.8-2.6,14-3.1,21.2-3.4c11.9-0.6,23.7,0,35.4,2c3.3,0.6,6.5,1.5,9.5,3.2c1.3,0.7,2.4,1.7,2.4,3.3c0,1.8-1.5,2.3-2.8,2.9
		c-5.6,2.6-11.8,3.2-17.8,4.1C111.4,418.1,105.4,418.5,100.1,419z"/>
</g>
</svg>
