<?xml version="1.0" encoding="utf-8"?>
<!-- Generator: Adobe Illustrator 22.0.1, SVG Export Plug-In . SVG Version: 6.00 Build 0)  -->
<svg version="1.1" id="圖層_1" xmlns="http://www.w3.org/2000/svg" xmlns:xlink="http://www.w3.org/1999/xlink" x="0px" y="0px"
	 viewBox="0 0 694.6 330" style="enable-background:new 0 0 694.6 330;" xml:space="preserve">
<style type="text/css">
	.st0{fill:#E3E0D9;}
</style>
<g>
	<path class="st0" d="M419.6,156.6c-2.9,0-5.5,1.1-7.6,3.3c-2.2,2.2-3.5,5.1-4,8.7h21.7c0-3.9-0.9-6.9-2.7-8.9
		C425.3,157.7,422.8,156.6,419.6,156.6z"/>
	<path class="st0" d="M675.6,85.7c0-6.1,0-10.8,0-13.1c-20,0.3-24.4-2.9-42.9-11.9c-18.5-9-24.4-35.4-24.4-35.4H87.2
		c1.1,49.5-68.7,47.3-68.7,47.3v13.1c7.2,0,13,5.8,13,13c0,7.2-5.8,13-13,13v10.3c7.2,0,13,5.8,13,13c0,7.2-5.8,13-13,13v10.3
		c7.2,0,13,5.8,13,13s-5.8,13-13,13v10.3c7.2,0,13,5.8,13,13c0,7.2-5.8,13-13,13v10.3c7.2,0,13,5.8,13,13s-5.8,13-13,13v10.6
		c0,0,69.9-2.1,68.7,47.3h521.1c0,0,5.9-26.5,24.4-35.4c18.5-9,22.9-12.2,42.9-11.9c0-2,0-5.8,0-10.6c-7.2,0-13-5.8-13-13
		s5.8-13,13-13c0-3.4,0-6.8,0-10.3c-7.2,0-13-5.8-13-13c0-7.2,5.8-13,13-13c0-3.7,0-7.2,0-10.3c-7.2,0-13-5.8-13-13s5.8-13,13-13
		c0-3,0-6.5,0-10.3c-7.2,0-13-5.8-13-13c0-7.2,5.8-13,13-13c0-3.4,0-6.9,0-10.3c-7.2,0-13-5.8-13-13
		C662.6,91.5,668.5,85.7,675.6,85.7z M92.3,282.9h-3v-226h3V282.9z M574.8,235.9H134.1v-6h440.7V235.9z M235.9,140.7v-8.4h46.3v8.4
		h-18.2v55H254v-55H235.9z M299.5,138.9c-1.1,1.1-2.6,1.6-4.2,1.6c-1.7,0-3.1-0.5-4.2-1.6c-1.1-1.1-1.7-2.4-1.7-4
		c0-1.6,0.6-2.9,1.7-4c1.1-1.1,2.5-1.6,4.2-1.6c1.7,0,3.1,0.5,4.2,1.6c1.1,1.1,1.7,2.4,1.7,4C301.2,136.5,300.6,137.8,299.5,138.9z
		 M300,150.5v45.3h-9.6v-45.3H300z M324.3,185c2.6,2.8,6.1,4.2,10.5,4.2c3.8,0,7.4-1.2,10.8-3.7v8.4c-3.3,2-7.6,3-12.8,3
		c-6.6,0-12-2.1-16.1-6.3c-4.1-4.2-6.1-9.6-6.1-16.4c0-7.6,2.2-13.6,6.6-18.1c4.4-4.5,10.3-6.7,17.6-6.7c4.5,0,8.1,0.7,10.9,2.2v9
		c-3.2-2.3-6.7-3.5-10.4-3.5c-4.4,0-8,1.5-10.7,4.4s-4.1,6.9-4.1,11.9C320.4,178.4,321.7,182.2,324.3,185z M365.8,171.3l17.1-20.8
		h12l-19.3,21.7l20.8,23.6h-12.5l-18-22h-0.2v22H356v-67h9.6v42.5H365.8z M421.9,189.4c5,0,9.6-1.5,13.7-4.5v7.9
		c-4,2.6-9.4,4-15.9,4c-6.7,0-12-2-15.8-6.1c-3.8-4.1-5.7-9.8-5.7-17.2c0-7,2-12.7,6.1-17.3c4.1-4.5,9.2-6.8,15.3-6.8
		c6.1,0,10.9,1.9,14.3,5.8c3.4,3.9,5.1,9.2,5.1,16v4.5h-31.1C408.3,184.8,413,189.4,421.9,189.4z M472.3,150.5v7.6h-11v23
		c0,2.8,0.5,4.8,1.5,6.1c1,1.3,2.6,1.9,4.8,1.9c1.7,0,3.3-0.5,4.7-1.5v7.7c-1.8,1-4.3,1.5-7.7,1.5c-8.6,0-12.9-4.7-12.9-14v-24.7
		h-7.7v-7.6h7.7v-10.6l9.6-2.9v13.5H472.3z M574.8,108.9H134.1v-6h440.7V108.9z M605.6,282.9h-3v-226h3V282.9z"/>
</g>
</svg>
