<?xml version="1.0" encoding="utf-8"?>
<!-- Generator: Adobe Illustrator 22.0.0, SVG Export Plug-In . SVG Version: 6.00 Build 0)  -->
<svg version="1.1" id="圖層_1" xmlns="http://www.w3.org/2000/svg" xmlns:xlink="http://www.w3.org/1999/xlink" x="0px" y="0px"
	 viewBox="0 0 629.6 527.9" style="enable-background:new 0 0 629.6 527.9;" xml:space="preserve">
<style type="text/css">
	.st0{fill:rgb(203,171,158);}
	.st1{fill:rgb(227,224,217);}
</style>
<path class="st0" d="M600.3,158.3c-1-1.4-2.7-4-5-7.4c-5,3.4-11.7,2.1-15.1-2.8c-3.4-5-2.1-11.7,2.8-15.1c-1.6-2.3-3.2-4.7-4.9-7.1
	c-5,3.4-11.7,2.1-15.1-2.8c-3.4-5-2.1-11.7,2.8-15.1c-1.8-2.6-3.4-5-4.9-7.1c-5,3.4-11.7,2.1-15.1-2.8c-3.4-5-2.1-11.7,2.8-15.1
	c-1.4-2.1-3.1-4.5-4.9-7.1c-5,3.4-11.7,2.1-15.1-2.8c-3.4-5-2.1-11.7,2.8-15.1c-1.6-2.4-3.3-4.8-4.9-7.1c-5,3.4-11.7,2.1-15.1-2.8
	c-3.4-5-2.1-11.7,2.8-15.1c-2.9-4.2-5.1-7.5-6.2-9.1c-13.7,9.6-18.3,9.5-35.3,12.1c-17.1,2.5-33.7-13-33.7-13L99.9,254.8l376-107.1
	c0,0,10.8,20,27.8,23c17,3,21.3,4.6,37.3-0.2c0.5,1.9,1.6,3.7,3,8.6c-5.8,1.6-9.1,9.7-7.5,15.5c1.6,5.8,7.7,9.1,13.4,7.5
	c0.8,2.7,1.6,3.2,2.4,6c-5.8,1.6-9.1,9.9-7.5,15.7s7.7,9.1,13.4,7.5c0.3,1.1,0.6,2.2,0.9,3.3l16.9-11.6c0,0-8.4-21.1,0.1-36.1
	C584.8,171.9,586.4,167.6,600.3,158.3z"/>
<path class="st1" d="M544.6,180c-1.4-4.9-2.5-8.7-3-10.6c-16,4.8-20.4,3.3-37.3,0.2c-17-3-27.8-23-27.8-23L56,266.4
	c12.3,39.7-44.6,54-44.6,54l3,10.6c5.8-1.6,11.8,1.7,13.4,7.5c1.6,5.8-1.7,11.8-7.5,13.4l2.4,8.3c5.8-1.6,11.8,1.7,13.4,7.5
	c1.6,5.8-1.7,11.8-7.5,13.4l2.4,8.3c5.8-1.6,11.8,1.7,13.4,7.5s-1.7,11.8-7.5,13.4l2.4,8.3c5.8-1.6,11.8,1.7,13.4,7.5
	c1.6,5.8-1.7,11.8-7.5,13.4l2.4,8.3c5.8-1.6,11.8,1.7,13.4,7.5s-1.7,11.8-7.5,13.4l2.4,8.6c0,0,55.9-17.8,66.3,22.4L543,380.1
	c0,0-1.3-22.7,11.5-34.2c12.8-11.5,15.7-15.1,31.9-19.5c-0.5-1.6-1.3-4.7-2.4-8.6c-5.8,1.6-11.8-1.7-13.4-7.5s1.7-11.8,7.5-13.4
	c-0.8-2.7-1.6-5.5-2.4-8.3c-5.8,1.6-11.8-1.7-13.4-7.5c-1.6-5.8,1.7-11.8,7.5-13.4c-0.9-3-1.7-5.8-2.4-8.3
	c-5.8,1.6-11.8-1.7-13.4-7.5s1.7-11.8,7.5-13.4c-0.7-2.4-1.5-5.2-2.4-8.3c-5.8,1.6-11.8-1.7-13.4-7.5s1.7-11.8,7.5-13.4
	c-0.8-2.8-1.6-5.6-2.4-8.3c-5.8,1.6-11.8-1.7-13.4-7.5C535.5,187.6,538.9,181.6,544.6,180z M505.8,328.6l-380,108.2l-1.8-6.5
	l380-108.2L505.8,328.6z M201.5,382l-12.3,3.5c-2.3-9.5-4.9-19.5-8-30.2c-1.9-6.7-3.7-12.9-5.5-18.5c-4.1,1.2-9.8,3-16.9,5.6
	l-2.4-9.6l45.2-12.9l2.4,9.6c-6,1.2-11.6,2.6-16.8,4.1c1.5,5.6,3.3,11.8,5.2,18.6C195.5,362.7,198.5,372.7,201.5,382z M209,317.8
	l12.5-3.6c1.7,7.5,4.1,16.7,7.2,27.6c3.2,11.1,6.2,21,9.1,29.9l-12.5,3.6c-2.2-9.2-4.9-19.3-8-30.2
	C214.4,334.3,211.6,325.2,209,317.8z M261.1,349.3c4.6,3.1,10,3.7,16.3,1.9c3.6-1,7.4-2.8,11.4-5.3l2.1,10.4
	c-3.9,2.2-7.9,3.9-11.9,5c-10.1,2.9-18.6,2.3-25.4-1.8c-6.9-4.1-11.4-10.1-13.7-18.1c-2.4-8.3-1.6-16.2,2.3-24
	c3.9-7.7,10.7-13,20.4-15.7c3.6-1,7.1-1.6,10.5-1.7l1.4,10.6c-3.8-0.1-7.3,0.3-10.4,1.2c-6,1.7-9.9,4.9-11.7,9.5
	c-1.8,4.6-2,9.6-0.4,15C253.4,341.9,256.5,346.2,261.1,349.3z M284.1,296.4l12.4-3.5c2,8.2,4,15.9,6,23.1l1-0.3
	c1.3-0.4,3.5-4.9,6.7-13.6c3.1-8.5,4.5-13.2,4.2-14.3l13.1-3.7c0.3,1-1.4,5.4-4.9,13.3c-3.7,8.1-6.6,13.5-8.6,16l0.2,0.7
	c3.4,0.7,9.8,5.2,19.1,13.4c8.7,7.6,13.2,12.1,13.5,13.3l-14.4,4.1c-0.4-1.4-4.2-5.3-11.4-11.9c-7.7-7-12.7-10.2-14.9-9.5l-1.3,0.4
	c1.9,6.7,4.6,15.6,8.1,26.6l-12.4,3.5c-2.1-9-4.8-19.1-8-30.2C289.4,313,286.6,303.9,284.1,296.4z M337.3,281.3l35.8-10.2l2.3,9.8
	c-9,2-17,4.1-24.2,6.1c1.5,4,3,8.8,4.6,14.3c6.1-1.7,12.7-3.8,19.6-6.1l2.6,9.2c-7,1.7-13.6,3.4-19.8,5.2c1.7,6,3.4,11.5,5.1,16.7
	c8.1-2.3,16.6-5,25.5-8.1l2.4,9.8l-37.5,10.7c-2.1-9-4.8-19.1-8-30.2C342.7,297.8,339.9,288.7,337.3,281.3z M425,318.4l-12.3,3.5
	c-2.3-9.5-4.9-19.5-8-30.2c-1.9-6.7-3.7-12.9-5.5-18.5c-4.1,1.2-9.8,3-16.9,5.6l-2.4-9.6l45.2-12.9l2.4,9.6
	c-6,1.2-11.6,2.6-16.8,4.1c1.5,5.6,3.3,11.8,5.2,18.6C418.9,299.1,422,309.1,425,318.4z M473.8,216.4l-380,108.2l-1.8-6.5L472,210
	L473.8,216.4z"/>
</svg>
