<?xml version="1.0" encoding="utf-8"?>
<!-- Generator: Adobe Illustrator 22.0.0, SVG Export Plug-In . SVG Version: 6.00 Build 0)  -->
<svg version="1.1" id="圖層_1" xmlns="http://www.w3.org/2000/svg" xmlns:xlink="http://www.w3.org/1999/xlink" x="0px" y="0px"
	 viewBox="0 0 283.1 304" style="enable-background:new 0 0 283.1 304;" xml:space="preserve">
<style type="text/css">
	.st0{fill:#631A1C;}
</style>
<path class="st0" d="M23.7,187.3c0-25,0.1-50-0.1-75c0-5.4,1.8-9.3,6-12.7C63.8,72.4,97.8,45,131.8,17.8c8-6.4,9.8-6.4,17.8-0.2
	c35.3,27.3,70.4,54.6,105.8,81.7c5,3.8,6.8,8.1,6.8,14.1c-0.1,49.4-0.1,98.8-0.1,148.2c0,0.8,0,1.6,0,2.4c-0.2,8-3,10.9-11,10.9
	c-20.1,0.1-40.1,0-60.2,0c-0.8,0-1.6,0-2.4-0.1c-5.5-0.7-7.9-3.1-8.5-8.5c-0.2-1.6-0.1-3.2-0.1-4.8c0-29.2-0.1-58.3,0.1-87.5
	c0-3.5-0.8-4.6-4.4-4.6c-21.8,0.2-43.7,0.2-65.5,0c-4.1,0-4.6,1.5-4.5,4.9c0.1,29.2,0.1,58.3,0.1,87.5c0,10.7-2.4,13.1-13.3,13.1
	c-19,0-37.9,0-56.9,0c-9,0-11.7-2.8-11.7-11.7C23.7,237.9,23.7,212.6,23.7,187.3z"/>
</svg>
