<?xml version="1.0" encoding="utf-8"?>
<!-- Generator: Adobe Illustrator 22.0.0, SVG Export Plug-In . SVG Version: 6.00 Build 0)  -->
<svg version="1.1" id="圖層_1" xmlns="http://www.w3.org/2000/svg" xmlns:xlink="http://www.w3.org/1999/xlink" x="0px" y="0px"
	 viewBox="0 0 737.5 714" style="enable-background:new 0 0 737.5 714;" xml:space="preserve">
<style type="text/css">
	.st0{fill:#C17306;}
	.st1{fill:#AE4700;}
	.st2{fill:#CC9722;}
	.st3{fill:#C47B0C;}
</style>
<g>
	<polyline class="st0" points="661.2,214.3 655.8,190.2 624.1,196.6 616.9,164.7 585.2,171.1 578.1,139.2 546,145.6 538.9,113.5 
		507.1,119.8 500,87.9 468.2,94.3 461.1,62.4 429.3,68.7 422.2,36.9 390.2,43.3 81.3,513.8 349.2,689.6 	"/>
	
		<rect x="344.7" y="159.5" transform="matrix(0.836 0.5487 -0.5487 0.836 180.3518 -239.4495)" class="st1" width="292" height="45"/>
	<rect x="152" y="453.2" transform="matrix(0.836 0.5487 -0.5487 0.836 309.902 -85.4932)" class="st1" width="292" height="45"/>
	
		<rect x="112.2" y="513.8" transform="matrix(0.836 0.5487 -0.5487 0.836 336.6102 -53.7534)" class="st1" width="292" height="45"/>
	
		<rect x="222.8" y="354.7" transform="matrix(0.836 0.5487 -0.5487 0.836 262.3157 -142.0444)" class="st1" width="292" height="26.2"/>
	
		<rect x="208.8" y="383.4" transform="matrix(0.836 0.5487 -0.5487 0.836 271.6762 -130.9205)" class="st1" width="292" height="11.2"/>
	
		<rect x="199" y="398.4" transform="matrix(0.836 0.5487 -0.5487 0.836 278.2765 -123.0767)" class="st1" width="292" height="11.2"/>
	
		<rect x="189.2" y="413.3" transform="matrix(0.836 0.5487 -0.5487 0.836 284.8768 -115.233)" class="st1" width="292" height="11.2"/>
	
		<rect x="200.8" y="395.7" transform="matrix(0.836 0.5487 -0.5487 0.836 277.0896 -124.4872)" class="st1" width="292" height="11.2"/>
	
		<rect x="191" y="410.7" transform="matrix(0.836 0.5487 -0.5487 0.836 283.6899 -116.6434)" class="st1" width="292" height="11.2"/>
	
		<rect x="181.1" y="425.6" transform="matrix(0.836 0.5487 -0.5487 0.836 290.2902 -108.7997)" class="st1" width="292" height="11.2"/>
	
		<rect x="301.6" y="141.4" transform="matrix(0.836 0.5487 -0.5487 0.836 170.848 -146.2884)" class="st1" width="57.2" height="142.6"/>
	
		<rect x="497.9" y="270.2" transform="matrix(0.836 0.5487 -0.5487 0.836 273.7665 -232.8916)" class="st1" width="57.2" height="142.6"/>
	
		<rect x="355.3" y="205.8" transform="matrix(0.836 0.5487 -0.5487 0.836 222.3073 -189.59)" class="st1" width="146" height="142.6"/>
</g>
<g>
	<polyline class="st2" points="355.8,26.9 331.7,20 323,51.8 291,42.6 282.3,74.5 250.4,65.3 241.6,97.3 209.4,88.1 200.7,119.9 
		168.8,110.7 160.1,142.5 128.1,133.3 119.4,165.1 87.5,155.9 78.7,188 362.2,697.2 642.1,541.3 	"/>
	
		<rect x="103.3" y="141.8" transform="matrix(0.8737 -0.4864 0.4864 0.8737 -48.8011 142.1027)" class="st3" width="292" height="46.6"/>
	
		<rect x="280.2" y="459.6" transform="matrix(0.8737 -0.4864 0.4864 0.8737 -181.0612 268.2979)" class="st3" width="292" height="46.6"/>
	
		<rect x="316.7" y="525.2" transform="matrix(0.8737 -0.4864 0.4864 0.8737 -208.3281 294.3144)" class="st3" width="292" height="46.6"/>
	
		<rect x="215.2" y="352.6" transform="matrix(0.8737 -0.4864 0.4864 0.8737 -132.4795 221.9439)" class="st3" width="292" height="27.2"/>
	
		<rect x="228" y="383.3" transform="matrix(0.8737 -0.4864 0.4864 0.8737 -142.0358 231.062)" class="st3" width="292" height="11.6"/>
	
		<rect x="235.4" y="396.6" transform="matrix(0.8737 -0.4864 0.4864 0.8737 -147.5624 236.3352)" class="st3" width="292" height="11.6"/>
	
		<rect x="244.4" y="412.8" transform="matrix(0.8737 -0.4864 0.4864 0.8737 -154.3008 242.7646)" class="st3" width="292" height="11.6"/>
	
		<rect x="253.5" y="429" transform="matrix(0.8737 -0.4864 0.4864 0.8737 -161.0392 249.194)" class="st3" width="292" height="11.6"/>
	
		<rect x="175.4" y="251.3" transform="matrix(0.8737 -0.4864 0.4864 0.8737 -132.3701 140.2779)" class="st3" width="57.2" height="147.7"/>
	
		<rect x="380.6" y="137" transform="matrix(0.8737 -0.4864 0.4864 0.8737 -50.8982 225.6654)" class="st3" width="57.2" height="147.7"/>
	
		<rect x="233.6" y="194.1" transform="matrix(0.8737 -0.4864 0.4864 0.8737 -91.6341 182.9716)" class="st3" width="146" height="147.7"/>
</g>
</svg>
