<?xml version="1.0" encoding="utf-8"?>
<!-- Generator: Adobe Illustrator 22.0.0, SVG Export Plug-In . SVG Version: 6.00 Build 0)  -->
<svg version="1.1" id="圖層_1" xmlns="http://www.w3.org/2000/svg" xmlns:xlink="http://www.w3.org/1999/xlink" x="0px" y="0px"
	 viewBox="0 0 737.5 714" style="enable-background:new 0 0 737.5 714;" xml:space="preserve">
<style type="text/css">
	.st0{fill:#C17306;}
	.st1{fill:#AE4700;}
	.st2{fill:#CC9722;}
	.st3{fill:#C47B0C;}
	.st4{fill:#522823;stroke:#CC9722;stroke-width:8.2416;stroke-miterlimit:10;}
</style>
<g>
	<g>
		<polyline class="st0" points="659.8,214 654.5,190 622.8,196.3 615.7,164.5 584,170.8 576.9,139 544.9,145.4 537.8,113.4 
			506.1,119.7 499,87.9 467.3,94.2 460.2,62.4 428.5,68.8 421.4,37 389.4,43.3 81.3,512.7 348.6,688.2 		"/>
		
			<rect x="344.1" y="159.3" transform="matrix(0.836 0.5487 -0.5487 0.836 180.0547 -238.9608)" class="st1" width="291.3" height="44.9"/>
		
			<rect x="151.8" y="452.3" transform="matrix(0.836 0.5487 -0.5487 0.836 309.3012 -85.3655)" class="st1" width="291.3" height="44.9"/>
		
			<rect x="112.1" y="512.7" transform="matrix(0.836 0.5487 -0.5487 0.836 335.9468 -53.7001)" class="st1" width="291.3" height="44.9"/>
		
			<rect x="222.4" y="354" transform="matrix(0.836 0.5487 -0.5487 0.836 261.8264 -141.7841)" class="st1" width="291.3" height="26.2"/>
		
			<rect x="208.5" y="382.7" transform="matrix(0.836 0.5487 -0.5487 0.836 271.165 -130.6862)" class="st1" width="291.3" height="11.2"/>
		
			<rect x="198.7" y="397.6" transform="matrix(0.836 0.5487 -0.5487 0.836 277.7498 -122.8609)" class="st1" width="291.3" height="11.2"/>
		
			<rect x="188.9" y="412.6" transform="matrix(0.836 0.5487 -0.5487 0.836 284.3347 -115.0355)" class="st1" width="291.3" height="11.2"/>
		
			<rect x="200.5" y="394.9" transform="matrix(0.836 0.5487 -0.5487 0.836 276.5657 -124.268)" class="st1" width="291.3" height="11.2"/>
		
			<rect x="190.7" y="409.9" transform="matrix(0.836 0.5487 -0.5487 0.836 283.1506 -116.4427)" class="st1" width="291.3" height="11.2"/>
		
			<rect x="180.9" y="424.8" transform="matrix(0.836 0.5487 -0.5487 0.836 289.7354 -108.6173)" class="st1" width="291.3" height="11.2"/>
		
			<rect x="301" y="141.2" transform="matrix(0.836 0.5487 -0.5487 0.836 170.5732 -146.0181)" class="st1" width="57" height="142.3"/>
		
			<rect x="496.9" y="269.8" transform="matrix(0.836 0.5487 -0.5487 0.836 273.2504 -232.4184)" class="st1" width="57" height="142.3"/>
		
			<rect x="354.7" y="205.5" transform="matrix(0.836 0.5487 -0.5487 0.836 221.9118 -189.2183)" class="st1" width="145.7" height="142.3"/>
	</g>
	<g>
		<polyline class="st2" points="355.1,27 331.1,20.1 322.4,51.9 290.5,42.7 281.8,74.4 250,65.3 241.2,97.3 209.1,88 200.4,119.8 
			168.6,110.6 159.9,142.3 128,133.2 119.3,164.9 87.5,155.8 78.7,187.7 361.5,695.7 640.8,540.2 		"/>
		
			<rect x="103.2" y="141.6" transform="matrix(0.8737 -0.4864 0.4864 0.8737 -48.748 141.8813)" class="st3" width="291.3" height="46.4"/>
		
			<rect x="279.8" y="458.7" transform="matrix(0.8737 -0.4864 0.4864 0.8737 -180.6981 267.7806)" class="st3" width="291.3" height="46.4"/>
		
			<rect x="316.2" y="524.1" transform="matrix(0.8737 -0.4864 0.4864 0.8737 -207.901 293.7361)" class="st3" width="291.3" height="46.4"/>
		
			<rect x="214.9" y="351.9" transform="matrix(0.8737 -0.4864 0.4864 0.8737 -132.2302 221.5353)" class="st3" width="291.3" height="27.1"/>
		
			<rect x="227.7" y="382.6" transform="matrix(0.8737 -0.4864 0.4864 0.8737 -141.7641 230.632)" class="st3" width="291.3" height="11.6"/>
		
			<rect x="235.1" y="395.8" transform="matrix(0.8737 -0.4864 0.4864 0.8737 -147.2778 235.8929)" class="st3" width="291.3" height="11.6"/>
		
			<rect x="244" y="412" transform="matrix(0.8737 -0.4864 0.4864 0.8737 -154.0004 242.3072)" class="st3" width="291.3" height="11.6"/>
		
			<rect x="253" y="428.1" transform="matrix(0.8737 -0.4864 0.4864 0.8737 -160.723 248.7215)" class="st3" width="291.3" height="11.6"/>
		
			<rect x="175.2" y="250.8" transform="matrix(0.8737 -0.4864 0.4864 0.8737 -132.1211 140.0607)" class="st3" width="57" height="147.4"/>
		
			<rect x="379.9" y="136.9" transform="matrix(0.8737 -0.4864 0.4864 0.8737 -50.8402 225.248)" class="st3" width="57" height="147.4"/>
		
			<rect x="233.3" y="193.9" transform="matrix(0.8737 -0.4864 0.4864 0.8737 -91.4806 182.6544)" class="st3" width="145.7" height="147.4"/>
	</g>
</g>
<path class="st4" d="M318.3,515.9v-64.2h69.1v64.2H318.3z M323.2,433.6v-15.8c0-18.7,3.8-35.4,11.2-49.4
	c7.3-13.7,19.4-27.8,36.1-41.6l13.8-11.4c16.3-13.4,24.5-26.2,24.5-37.9c0-8.3,0-30.3-55.8-30.3c-11.3,0-23,1.3-34.8,3.7v35.3h-49.7
	v-74.8l7.5-2.1c27.4-7.8,55.5-11.8,83.7-11.8c34.2,0,61,6.1,79.8,18.1c20.3,13,30.6,31.9,30.6,56.2c0,25.4-14,49.6-41.6,72
	L409,359.5c-10.1,8.2-17.2,16-20.9,23.3c-3.7,7-5.5,15.9-5.5,26.6v24.2H323.2z"/>
</svg>
