<?xml version="1.0" encoding="utf-8"?>
<!-- Generator: Adobe Illustrator 22.0.0, SVG Export Plug-In . SVG Version: 6.00 Build 0)  -->
<svg version="1.1" id="圖層_1" xmlns="http://www.w3.org/2000/svg" xmlns:xlink="http://www.w3.org/1999/xlink" x="0px" y="0px"
	 viewBox="0 0 1366 768" style="enable-background:new 0 0 1366 768;" xml:space="preserve">
<style type="text/css">
	.st0{enable-background:new    ;}
	.st1{fill:#EDD087;}
	.st2{font-family:'MicrosoftJhengHeiRegular';}
	.st3{font-size:56.9444px;}
	.st4{fill:#E8CC87;}
	.st5{fill:none;}
</style>
<g class="st0">
	<path class="st1" d="M470.4,516.2l-3.4,2.6c-1.8-2.6-4-5.2-6.6-8c-16.2,3.4-35.2,5.4-56.9,6.2l-1.2-3.8c11.7-9.1,19.8-18,24.4-26.9
		l4.2,1.4c-4.3,7.8-11.4,16-21.3,24.7c17.3-0.6,33-2.4,47.2-5.4c-3.2-3.5-7.4-7.5-12.7-11.9l3.6-2.7
		C456.8,500.4,464.3,508.2,470.4,516.2z M462.9,555.7h-4.3v-4.9h-45.5v4.8h-4.3v-30.8h54.1V555.7z M458.5,546.7V529h-45.5v17.7
		H458.5z"/>
	<path class="st1" d="M515.3,545c-14.2,5-25.6,8.5-34.3,10.5l-1.3-4.1c6.6-1.6,14-3.6,22-6.2v-30.1h-20.8v-4.2h20.8v-24.3h4.3v57
		c2.6-0.8,5.7-1.8,9.3-3.2V545z M548.1,534.6c-0.1,3.2-0.3,6.4-0.8,9.7c-0.4,3.3-0.9,5.4-1.3,6.2c-0.4,0.8-1,1.6-1.8,2.2
		c-0.8,0.7-1.7,1.1-2.8,1.4c-1.1,0.3-3.3,0.4-6.6,0.4c-6.2,0-9.9-0.2-11.2-0.7c-1.2-0.5-2.1-1.2-2.6-2.2s-0.8-2.3-0.8-3.7v-61.1h4.2
		v24.5h22.5v4.2h-22.5V548c0,0.6,0.4,1.2,1.1,1.7c0.7,0.5,3.5,0.7,8.4,0.7c3.5,0,5.5-0.1,6.2-0.4c0.7-0.3,1.2-0.7,1.7-1.4
		c0.4-0.7,0.8-2.4,1.2-5.3c0.4-2.9,0.6-6.2,0.8-10.1L548.1,534.6z"/>
	<path class="st1" d="M567.8,536.8c-1.3,7.3-3,13.2-5.2,18L559,553c1.9-4.4,3.6-10.1,5-17L567.8,536.8z M586.3,531.1l-3.6,1.4
		c-0.3-1.5-0.6-2.7-0.8-3.6c-7.8,2.2-14.8,3.8-21.1,5l-1.4-3.4c6-5.4,11.3-11.7,15.7-18.9c-4.4,0.8-9,1.6-14,2.3l-0.9-3.6
		c5.8-6.8,10.4-14.7,13.7-23.6l3.9,1c-2.6,7.1-6.5,14.3-11.8,21.7c3.3-0.4,7.1-1,11.6-1.8c1.6-2.5,3.3-5.5,5.1-9.1l3.8,1.5
		c-6.5,12.1-13.2,21.7-19.8,28.8c4.6-0.9,9.3-2,14.1-3.4c-0.4-1.6-1.2-3.4-2.3-5.5l3.6-1.4C584.2,523.4,585.7,527.6,586.3,531.1z
		 M577.4,552.6l-3.8,0.8c0.1-5.1-0.4-10.6-1.5-16.5l3.5-0.7C577,542.7,577.6,548.2,577.4,552.6z M588.1,546.2l-3.5,1.3
		c-0.8-4-2-7.8-3.4-11.2l3.3-1.3C586.1,538.6,587.3,542.3,588.1,546.2z M599.4,525.2l-3.5,1.7c-3-5.7-6.3-10.8-9.8-15.3
		c3.7-5.3,6.6-10.2,8.7-14.5l3.7,1.4c-2.3,4.8-4.9,9.2-7.8,13.1C594,515.6,596.9,520.2,599.4,525.2z M627.6,553.8H587v-3.9h18.2
		v-16.1h-16v-4h36.5v4h-16.3v16.1h18.3V553.8z M626.7,492.7h-39.6v-3.9h39.6V492.7z M613.4,524.7l-3.5,2c-2.6-5.1-5.8-10-9.5-14.9
		c3.7-5.3,6.5-10,8.3-14.1l4,1.3c-2.2,4.2-4.8,8.5-7.8,12.8C608.1,516,611,520.3,613.4,524.7z M627.4,524.9l-3.5,1.9
		c-2.6-5-5.8-9.9-9.7-14.7c3.5-5.1,6.3-9.9,8.5-14.6l3.8,1.4c-2.5,4.8-5,9.1-7.5,12.8C622.7,516.9,625.5,521.3,627.4,524.9z"/>
	<path class="st1" d="M706.9,535.7h-69.5v-3.8h6.9v-36.2h17.1v-9.2h3.9v9.2h12.8v-9.2h3.8v9.2h17v36.2h7.8V535.7z M664.8,543
		c-6.9,5.3-15.1,9.6-24.7,12.8l-2.5-3.5c9.6-3.3,17.7-7.3,24.1-12L664.8,543z M661.4,513.4v-14h-13v14H661.4z M661.4,531.9v-14.7
		h-13v14.7H661.4z M678.2,513.4v-14h-12.8v14H678.2z M678.2,531.9v-14.7h-12.8v14.7H678.2z M705.5,552.2l-2.9,3.4
		c-6.3-4.5-14.3-8.5-24-12.1l2.5-3.3C692,544.4,700.1,548.4,705.5,552.2z M695.1,513.4v-14H682v14H695.1z M695.1,531.9v-14.7H682
		v14.7H695.1z"/>
	<path class="st1" d="M783.7,515.1h-4v-13.5h-27.6v15.6h-4v-15.6h-25.7v13.5h-4.1v-17.2h29.8v-5.8h-27v-3.7h60v3.7h-29v5.8h31.6
		V515.1z M786,546.1c-0.4,3.2-1.2,5.5-2.4,6.8c-1.3,1.4-3.5,2.1-6.7,2.3c-3.2,0.2-6.8,0.3-10.9,0.3c-3.5,0-6.8-0.1-9.9-0.2
		c-3.1-0.2-5.2-0.7-6.3-1.8c-1.1-1-1.6-2.7-1.6-4.9v-5.8h-25.2v-22.5h54.5v22.5h-25.2v6.1c0,0.7,0.2,1.2,0.7,1.5
		c0.5,0.3,2.1,0.6,5,0.8s6.1,0.3,9.6,0.3c6.1,0,9.7-0.1,10.8-0.4s1.9-1.1,2.4-2.4c0.5-1.3,0.8-2.9,0.9-4.8L786,546.1z M744.9,514.8
		c-6.3,1.6-12.2,2.6-17.8,3l-1.3-3.6c5.8-0.3,11.8-1.1,17.7-2.4L744.9,514.8z M744.9,506.8l-1.3,3.4c-4.4-1.1-10.1-1.9-17.2-2.5
		l1.7-3.4C734.7,504.9,740.3,505.7,744.9,506.8z M748.2,529.7V524h-21v5.7H748.2z M748.2,539.1v-5.9h-21v5.9H748.2z M773.4,529.7
		V524h-21v5.7H773.4z M773.4,539.1v-5.9h-21v5.9H773.4z M775.8,514.9l-1.8,3.3c-5.5-1.5-11.7-2.5-18.6-3.1l1.7-3.2
		C765.2,512.6,771.4,513.6,775.8,514.9z M775.2,507.8c-6.5,1.2-12.5,1.9-18,2.3l-1.2-3.2c5.4-0.4,11.3-1.2,17.7-2.5L775.2,507.8z"/>
	<path class="st1" d="M809.4,540.5c-3,4.1-6.8,7.8-11.3,11.2l-2.8-3.1c3.9-2.6,7.6-6.1,11.1-10.4L809.4,540.5z M838.8,517.1h-43.3
		v-3.8h20.1c-0.8-2.1-1.6-3.7-2.3-4.9h-13.2v-20.1h33.8v20.1h-16c0.6,1.2,1.2,2.8,2,4.9h18.8V517.1z M833.3,535.6h-13.9V550
		c0,1.9-0.6,3.3-1.7,4.2c-1.1,0.8-3,1.3-5.6,1.3H809l-1.3-3.8c2.6,0.1,4.6,0,5.8,0s1.9-0.8,1.9-2.3v-13.7H801v-13.7h32.3V535.6z
		 M829.8,496.3v-4.1h-25.6v4.1H829.8z M829.8,504.7v-4.5h-25.6v4.5H829.8z M829.3,531.8v-6.2H805v6.2H829.3z M834.6,548.9l-3.5,2.3
		c-1.8-3.7-4.1-7.3-6.8-10.7l3.3-2.3C830.1,541.1,832.5,544.6,834.6,548.9z M864.7,533.1c-6.6,9-15.3,16.5-26.1,22.4l-2.5-3.4
		c11.8-6.5,20.3-13.9,25.6-22.1L864.7,533.1z M862.6,488.9c-5.8,7.1-13.4,12.9-22.8,17.6l-2.5-3.3c10.7-5.4,18.2-11.1,22.5-17.1
		L862.6,488.9z M863.5,510.2c-5.3,6.8-13.2,13-23.6,18.6l-2.4-3.5c10.4-5.5,18-11.4,23.1-18L863.5,510.2z"/>
	<path class="st1" d="M940.5,530.1h-41.6v20.2c5-0.8,10.1-2.1,15.2-3.8l0.2,3.7c-6.2,2.1-12.8,3.9-19.7,5.3l-1.3-3.9
		c0.9-0.7,1.4-1.5,1.4-2.3v-19.2h-10.5c-1.9,11.3-4.7,19.9-8.5,25.8l-3.2-2.8c5.7-9.4,8.6-22,8.6-38v-26.5h55.1v17h-51v8.3H900v-5.4
		h4.3v5.4h16.9v-5.4h4.3v5.4h11.7v3.8h-11.7v8.7h15V530.1z M900,526.3v-8.7h-14.8c0,2.8-0.2,5.7-0.5,8.7H900z M931.9,501.4v-9h-46.7
		v9H931.9z M921.2,526.3v-8.7h-16.9v8.7H921.2z M944.5,551.9l-2,3.9c-10.6-2.7-18.1-6-22.5-9.9s-7.6-7.8-9.6-11.7l4-1.1
		c2.4,4,5.1,7.2,8.1,9.7c3.8-2.4,7.2-5.5,10.4-9.3l3.3,2.5c-2.9,3.6-6.3,6.6-10,9.2C930.9,548.1,936.9,550.3,944.5,551.9z"/>
</g>
<text transform="matrix(1 0 0 1 137.1172 672.9453)" class="st1 st2 st3">7.01</text>
<text transform="matrix(1 0 0 1 1087.0762 672.9453)" class="st1 st2 st3">7.14 </text>
<path class="st4" d="M596.5,165.9l-26.3,23.8h-59.7v244.8H483V189.7H354l26.3-23.8H596.5z"/>
<path class="st4" d="M673.5,335.9c-12,28.8-38.3,48.8-68.9,48.8c-41.9,0-75.9-37.6-75.9-83.9s34-83.9,75.9-83.9
	c32,0,59.3,21.9,70.5,52.8h20.2c-12-42.8-48.1-73.8-90.7-73.8c-52.4,0-94.9,47-94.9,104.9s42.5,104.9,94.9,104.9
	c41.3,0,76.4-29.1,89.5-69.8L673.5,335.9L673.5,335.9z"/>
<g>
	<path class="st4" d="M707.8,309.6v111h-8V163.8h106v16.1h-98v103.8"/>
	<path class="st4" d="M707.6,179.9v240.7h19.2V179.9H707.6z M723.6,415h-12.9v-12.9h12.9V415z M723.6,384.1h-12.9v-12.9h12.9V384.1z
		 M723.6,353.2h-12.9v-12.9h12.9V353.2z M723.6,322.3h-12.9v-12.9h12.9V322.3z M723.6,291.4h-12.9v-12.9h12.9V291.4z M723.6,260.5
		h-12.9v-12.9h12.9V260.5z M723.6,229.6h-12.9v-12.9h12.9V229.6z M723.6,198.7h-12.9v-12.9h12.9V198.7z"/>
	<rect x="726.8" y="260.5" class="st4" width="70.8" height="16.7"/>
</g>
<polyline class="st4" points="824.9,320.9 922.2,320.9 922.2,300 824.9,300 824.9,216 922.2,216 922.2,192.4 805.8,192.4 
	805.8,456.7 824.9,456.7 "/>
<circle class="st4" cx="602.5" cy="300.8" r="26"/>
<rect x="137.5" y="459" class="st4" width="1088.2" height="14.8"/>
<g>
	<path class="st4" d="M528.8,675.6h-0.2c-0.4,1.2-0.8,2.1-1.2,2.9l-8.8,14.9l14,1.9l-3.6-16.5C528.9,678.1,528.8,677,528.8,675.6z"
		/>
	<path class="st4" d="M795.3,681.5c-2.8-2.5-6.5-3.4-10.9-2.9s-7.6,2.3-9.8,5.5c-2.2,3.1-2.9,6.9-2.3,11.4c0.6,4.4,2.4,7.9,5.4,10.4
		c2.9,2.5,6.6,3.6,10.8,3.1c4.5-0.5,7.8-2.3,9.9-5.3c2.1-3,2.8-6.8,2.1-11.4C799.9,687.6,798.1,684,795.3,681.5z"/>
	<path class="st4" d="M1225.7,569.2h-129.5c-2.8-1.7-5.6-3.4-8.3-5.1c7.2-23.1,14-46.2,20.2-69.5c-43.2,18.6-87.1,34.8-132.5,48.7
		c19.6,9.3,39.7,17.9,60,25.9h-20.4c-12.4-4.8-24.6-9.8-36.8-15c1.5,6,2.7,10.5,3.9,15H363.1c1.2-4.5,2.4-9.1,3.9-15.1
		c-12.2,5.3-24.5,10.3-36.9,15.1h-20.4c20.4-8,40.5-16.7,60.2-26c-45.4-13.9-89.3-30.1-132.5-48.7c6.3,23.3,13,46.4,20.2,69.5
		c-2.8,1.8-5.7,3.5-8.5,5.2H137.5V584h86.7c-9.1,5.2-18.3,10.4-27.5,15.4c30,13,60.3,25,91.2,36.1c5.2-17.2,10.4-34.3,15.7-51.5h8.6
		c-9.6,32.3-19.2,64.5-28.8,96.9c254.6,83.5,523.9,83.5,778.6,0c-9.6-32.3-19.2-64.5-28.8-96.9h8.7c5.2,17.1,10.5,34.3,15.6,51.5
		c31-11.1,61.2-23,91.3-36c-9.3-5-18.6-10.2-27.7-15.5h104.6V569.2z M296.7,674.2c1.1-3.7,1.6-5.6,2.7-9.3
		c17.1,7.3,34.4,14.3,51.9,20.9C333,682.3,314.8,678.5,296.7,674.2z M303.8,649.6c1.1-3.7,1.6-5.6,2.7-9.3
		c16.8,7.2,33.8,14.1,50.9,20.6C339.5,657.5,321.6,653.7,303.8,649.6z M311,624.9c1.1-3.7,1.6-5.6,2.7-9.3
		c16.4,7.1,33.1,13.9,49.9,20.2C345.9,632.6,328.4,629,311,624.9z M318.1,600.3c1.1-3.7,1.6-5.6,2.7-9.3c16.1,7,32.4,13.7,48.9,19.9
		C352.3,607.8,335.1,604.2,318.1,600.3z M446.8,688.2c2.1,3.2,5.4,5.2,10,6.1c4.3,0.8,8.2,0.6,11.9-0.5l-1.4,5.8
		c-3.6,0.9-7.9,0.8-12.9-0.1c-6.4-1.2-11.1-4-14.1-8.3s-3.8-9.4-2.4-15.3c1.5-6.1,4.8-10.8,10-13.9c5.2-3.2,11.2-4.1,17.9-2.8
		c4.2,0.8,7.6,2,10.2,3.6l-1.5,6.2c-2.8-2.1-6-3.6-9.8-4.3c-4.8-0.9-9-0.2-12.6,2c-3.6,2.3-5.9,5.7-7,10.2
		C444.2,681.2,444.7,684.9,446.8,688.2z M499.4,706.4l-24.2-3.9l8.1-39.5l6.9,1.1l-7,34.3l17.3,2.8L499.4,706.4z M536.1,711.4
		l-2.4-10.9l-17.9-2.4l-5.7,9.8l-7.6-1l23.5-37.5l7.7,1l10,42L536.1,711.4z M578.3,682.8c-2.5-2-5.9-3.2-10-3.6
		c-2.7-0.3-4.8,0-6.6,0.8c-1.7,0.8-2.7,2-2.9,3.6c-0.2,1.5,0.2,2.8,1.3,3.9c1.1,1.1,3.4,2.6,7,4.6c4.2,2.3,7,4.5,8.5,6.5
		s2,4.3,1.7,6.7c-0.5,3.6-2.3,6.2-5.5,7.8s-7.4,2.1-12.6,1.6c-1.9-0.2-4-0.6-6.3-1.3s-4-1.4-5.2-2.2l0.9-6.7c3.1,2.8,7,4.5,11.6,5
		c5.9,0.6,9.1-0.9,9.6-4.5c0.1-1.1-0.1-2-0.6-2.9s-1.3-1.7-2.4-2.5s-3.1-2-6.2-3.7c-3.8-2.1-6.4-4.2-7.8-6.1
		c-1.4-1.9-1.9-4.1-1.6-6.5c0.5-3.4,2.3-6,5.6-7.6c3.3-1.7,7.3-2.2,12.1-1.8c4.5,0.5,7.8,1.3,10,2.5L578.3,682.8z M611.6,685.4
		c-2.6-1.9-6-3-10.1-3.3c-2.7-0.2-4.8,0.1-6.5,0.9c-1.7,0.8-2.7,2.1-2.8,3.7c-0.1,1.5,0.3,2.8,1.4,3.8c1.1,1.1,3.5,2.5,7.2,4.4
		c4.3,2.2,7.2,4.3,8.7,6.3s2.2,4.2,1.9,6.6c-0.3,3.6-2.1,6.3-5.2,8c-3.1,1.7-7.3,2.3-12.5,2c-1.9-0.1-4-0.5-6.3-1.1s-4-1.3-5.3-2.1
		l0.6-6.7c3.2,2.8,7.1,4.3,11.8,4.7c6,0.4,9.1-1.2,9.5-4.8c0.1-1-0.1-2-0.7-2.9c-0.6-0.9-1.4-1.7-2.4-2.4c-1.1-0.7-3.2-1.9-6.3-3.5
		c-3.9-2-6.5-4-8-5.9c-1.4-1.9-2-4-1.8-6.4c0.3-3.4,2.1-6,5.4-7.8c3.2-1.8,7.2-2.5,12-2.1c4.5,0.3,7.9,1.1,10.1,2.2L611.6,685.4z
		 M628.4,684.2l-1.9,29.9l-0.3,5.1l-7-0.4l0.3-5.1l1.9-29.9l0.3-5.1l7,0.4L628.4,684.2z M670.5,687.6c-3.1-1.7-6.6-2.5-10.5-2.6
		c-4.9-0.1-8.9,1.2-12,4s-4.7,6.5-4.8,11.2c-0.1,4.5,1.2,8.1,3.9,10.9c2.7,2.8,6.4,4.3,11.1,4.4c4.3,0.1,8.2-0.7,11.6-2.4l-0.2,5.9
		c-3.4,1.4-7.6,2.1-12.7,2c-6.5-0.2-11.7-2.1-15.5-5.9c-3.8-3.7-5.6-8.6-5.5-14.6c0.2-6.3,2.5-11.4,7-15.3c4.5-3.9,10.2-5.8,17-5.7
		c4.3,0.1,7.9,0.7,10.8,1.9L670.5,687.6z M751.4,717.7l-2-25.9c-0.2-2.3-0.3-4.9-0.2-8.1H749c-0.4,2.3-0.8,3.7-1,4.5l-11.4,30.4
		l-4.6,0.3l-16-28.5c-0.4-0.7-1-2.2-1.7-4.5h-0.2c0.4,2.4,0.7,5.3,1,8.7l2,25.2l-6.5,0.4l-3.1-40.1l9.7-0.6l14.2,25.7
		c1.1,2,1.9,3.7,2.3,5h0.2c0.3-1.1,0.8-2.9,1.6-5.4l10.3-27.2l9.4-0.6l3.1,40.1L751.4,717.7z M804.1,706.7
		c-3.3,4.3-8.3,6.9-14.9,7.6c-6.3,0.7-11.7-0.5-16.2-3.8s-7.1-7.9-8-13.8c-0.9-6.3,0.3-11.6,3.7-16c3.4-4.3,8.4-6.9,15.2-7.7
		c6.3-0.7,11.6,0.6,16,3.9c4.4,3.3,7,7.9,7.8,13.8C808.7,697.1,807.5,702.4,804.1,706.7z M836.9,707.4l-7.7,1.1l-23.1-37.4l7.6-1.1
		l16.8,28.4c0.6,1,1.2,2.2,1.6,3.6h0.1c-0.1-1.1,0-2.4,0.3-3.9l5.9-31.7l7.3-1.1L836.9,707.4z M858.9,704l-1-5l-6.1-29.5l-1-5
		l6.9-1.1l1,5l6.1,29.5l1,5L858.9,704z M876.7,701l-9-39.4l23.5-4.3l1.2,5.2l-16.6,3l2.7,11.6l15.4-2.8l1.2,5.2l-15.4,2.8l2.8,12.1
		l17.6-3.2l1.2,5.2L876.7,701z M929.8,688.5c-2.4,2.5-6.1,4.2-11.2,5.2c-1.9,0.4-4,0.6-6.4,0.7c-2.4,0.1-4.3-0.1-5.7-0.5l-1.7-6.5
		c4,1.8,8.3,2.2,12.8,1.2c5.8-1.2,8.3-3.6,7.4-7.1c-0.3-1-0.8-1.9-1.7-2.6c-0.9-0.7-1.9-1.2-3.2-1.6c-1.2-0.4-3.6-0.9-7.2-1.7
		c-4.4-0.9-7.6-2-9.6-3.4s-3.3-3.3-3.9-5.6c-0.9-3.4-0.1-6.3,2.4-8.9c2.5-2.5,6.1-4.3,10.7-5.3c4.4-0.9,7.9-1.1,10.4-0.6l1.6,6.2
		c-3.1-1.1-6.7-1.3-10.8-0.4c-2.6,0.5-4.6,1.4-5.9,2.7c-1.4,1.3-1.8,2.7-1.4,4.3c0.4,1.5,1.3,2.6,2.7,3.3s4.2,1.5,8.3,2.3
		c4.8,0.9,8.3,2.1,10.5,3.6c2.1,1.5,3.5,3.4,4.1,5.8C933,683,932.2,686,929.8,688.5z M1048.7,674.2c-18.1,4.3-36.3,8.1-54.6,11.5
		c17.5-6.6,34.8-13.5,51.9-20.9C1047.1,668.6,1047.6,670.5,1048.7,674.2z M1041.6,649.6c-17.8,4.2-35.6,7.9-53.6,11.2
		c17.2-6.5,34.1-13.3,50.9-20.5C1040,644,1040.5,645.8,1041.6,649.6z M981.9,635.9c16.8-6.4,33.5-13.1,49.9-20.2
		c1.1,3.7,1.6,5.6,2.7,9.3C1017.1,629,999.5,632.6,981.9,635.9z M975.8,610.9c16.5-6.3,32.8-12.9,48.9-19.9c1.1,3.7,1.6,5.6,2.7,9.3
		C1010.3,604.2,993.1,607.8,975.8,610.9z M324.8,584h26.7c2.2,0.7,4.6,1.3,7.1,2.1c0.2-0.7,0.4-1.4,0.5-2.1h626.9
		c0.2,0.7,0.4,1.5,0.6,2.3c2.8-0.8,5.3-1.6,7.6-2.3h26.2C792.6,656.1,552.9,656.1,324.8,584z"/>
</g>
<polygon class="st5" points="850.3,233.8 850.3,290.7 881.4,290.7 922.2,233.8 "/>
<polygon class="st5" points="422,205.6 468.7,269.2 468.7,205.6 "/>
<polygon class="st5" points="740.2,364.1 753.3,317.6 740.2,317.6 "/>
<path class="st5" d="M761.2,393.4c10.4,1.9,20.4,4.3,30.2,7v-75.6L761.2,393.4z"/>
<path class="st4" d="M828.8,169.9h30.7l45.6-103.5l-73.9-26.9l-31.8,113.3h10.7C819.9,152.8,828,160.3,828.8,169.9z"/>
<path class="st4" d="M672.4,171.5c0-10.4,8.4-18.8,18.8-18.8h21L720.9,20h-78.6l12,158.6c6.4,3.6,12.5,7.9,18.1,12.8V171.5z"/>
<path class="st4" d="M959.5,215.1c0,10.4-8.4,18.8-18.8,18.8h-18.6l-40.8,56.8h59.3c2.6,0,5.2,0.6,7.4,1.5l114.2-119.3l-60.2-50.5
	l-43.6,60.7c0.5,1.8,0.9,3.6,0.9,5.5v26.5H959.5z"/>
<path class="st4" d="M920.5,471.3c-4.3-4.4-8.9-8.7-13.7-12.8l266.9-131.6l-39.3-68.1l-259,177c-7.9-4.9-16.3-9.4-25-13.6v11.3
	c21,10.7,39.7,23.4,55.4,37.7"/>
<path class="st4" d="M761.2,393.4l30.2-68.6v-7.3h-38.1l-13,46.5v35.9c17.7,2.4,34.8,6,51.1,10.6v-10.1
	C781.5,397.7,771.5,395.3,761.2,393.4z"/>
<polygon class="st4" points="531.9,39.5 458,66.3 493.6,145 562.7,145 "/>
<path class="st4" d="M455.1,473.8c12.4-11.4,26.7-21.8,42.6-31h-10.3c-10.4,0-18.8-8.4-18.8-18.8v-5L228.8,258.7l-39.3,68.1
	L460.4,457c-5.4,4.3-10.5,8.9-15.4,13.5"/>
<path class="st4" d="M422,205.6h-79.4c-8,0-15.1-5.1-17.7-12.6c-2.6-7.6-0.1-16,6.2-20.9l29.5-23c3.3-2.6,7.4-4,11.6-4h5.5
	L361,122.4l-60.2,50.5l167.9,171.8v-75.5L422,205.6z"/>
</svg>
