<?xml version="1.0" encoding="utf-8"?>
<!-- Generator: Adobe Illustrator 21.1.0, SVG Export Plug-In . SVG Version: 6.00 Build 0)  -->
<svg version="1.1" id="圖層_1" xmlns="http://www.w3.org/2000/svg" xmlns:xlink="http://www.w3.org/1999/xlink" x="0px" y="0px"
	 viewBox="0 0 1366 768" style="enable-background:new 0 0 1366 768;" xml:space="preserve">
<style type="text/css">
	.st0{fill:#EDD087;}
	.st1{font-family:'MicrosoftJhengHeiRegular';}
	.st2{font-size:78.7625px;}
	.st3{font-size:56.9444px;}
	.st4{fill:#E8CC87;}
	.st5{fill:none;}
</style>
<text transform="matrix(1 0 0 1 396.2246 551.5547)" class="st0 st1 st2">台北經典電影展</text>
<text transform="matrix(1 0 0 1 137.1172 672.9453)" class="st0 st1 st3">7.01</text>
<text transform="matrix(1 0 0 1 1087.0762 672.9453)" class="st0 st1 st3">7.14 </text>
<g>
	<path class="st0" d="M287.9,635.5c6.6-21.9,13.3-43.7,20-65.6c21-8.2,41.7-17.1,62-26.7c-45.4-13.9-89.3-30.1-132.5-48.7
		c6.3,23.3,13,46.4,20.2,69.5c-19.9,12.4-40.2,24.2-60.9,35.4C226.7,612.4,257,624.4,287.9,635.5z"/>
	<path class="st0" d="M367,554.1c-15.9,6.9-32,13.4-48.3,19.4c15.9,5.4,23.9,7.9,40,12.6C362,573.4,363.7,567,367,554.1z"/>
	<path class="st0" d="M313.3,580.3c-10,33.5-19.9,67-29.9,100.6c254.6,83.5,523.9,83.5,778.6,0c-10-33.5-19.9-67-29.9-100.6
		C796.8,657.3,548.7,657.3,313.3,580.3z M296.7,674.2c1.1-3.7,1.6-5.6,2.7-9.3c17.1,7.3,34.4,14.3,51.9,20.9
		C333,682.3,314.8,678.5,296.7,674.2z M303.8,649.6c1.1-3.7,1.6-5.6,2.7-9.3c16.8,7.2,33.8,14.1,50.9,20.6
		C339.5,657.5,321.6,653.7,303.8,649.6z M311,624.9c1.1-3.7,1.6-5.6,2.7-9.3c16.4,7.1,33.1,13.9,49.9,20.2
		C345.9,632.6,328.4,629,311,624.9z M318.1,600.3c1.1-3.7,1.6-5.6,2.7-9.3c16.1,7,32.4,13.7,48.9,19.9
		C352.3,607.8,335.1,604.2,318.1,600.3z M446.8,688.2c2.1,3.2,5.4,5.2,10,6.1c4.3,0.8,8.2,0.6,11.9-0.5l-1.4,5.8
		c-3.6,0.9-7.9,0.8-12.9-0.1c-6.4-1.2-11.1-4-14.1-8.3c-3-4.3-3.8-9.4-2.4-15.3c1.5-6.1,4.8-10.8,10-13.9c5.2-3.2,11.2-4.1,17.9-2.8
		c4.2,0.8,7.6,2,10.2,3.6l-1.5,6.2c-2.8-2.1-6-3.6-9.8-4.3c-4.8-0.9-9-0.2-12.6,2c-3.6,2.3-5.9,5.7-7,10.2
		C444.2,681.2,444.7,684.9,446.8,688.2z M499.4,706.4l-24.2-3.9l8.1-39.5l6.9,1.1l-7,34.3l17.3,2.8L499.4,706.4z M536.1,711.4
		l-2.4-10.9l-17.9-2.4l-5.7,9.8l-7.6-1l23.5-37.5l7.7,1l10,42L536.1,711.4z M578.3,682.8c-2.5-2-5.9-3.2-10-3.6
		c-2.7-0.3-4.8,0-6.6,0.8c-1.7,0.8-2.7,2-2.9,3.6c-0.2,1.5,0.2,2.8,1.3,3.9c1.1,1.1,3.4,2.6,7,4.6c4.2,2.3,7,4.5,8.5,6.5
		c1.5,2,2,4.3,1.7,6.7c-0.5,3.6-2.3,6.2-5.5,7.8c-3.2,1.6-7.4,2.1-12.6,1.6c-1.9-0.2-4-0.6-6.3-1.3c-2.3-0.7-4-1.4-5.2-2.2l0.9-6.7
		c3.1,2.8,7,4.5,11.6,5c5.9,0.6,9.1-0.9,9.6-4.5c0.1-1.1-0.1-2-0.6-2.9c-0.5-0.9-1.3-1.7-2.4-2.5s-3.1-2-6.2-3.7
		c-3.8-2.1-6.4-4.2-7.8-6.1c-1.4-1.9-1.9-4.1-1.6-6.5c0.5-3.4,2.3-6,5.6-7.6c3.3-1.7,7.3-2.2,12.1-1.8c4.5,0.5,7.8,1.3,10,2.5
		L578.3,682.8z M611.6,685.4c-2.6-1.9-6-3-10.1-3.3c-2.7-0.2-4.8,0.1-6.5,0.9c-1.7,0.8-2.7,2.1-2.8,3.7c-0.1,1.5,0.3,2.8,1.4,3.8
		c1.1,1.1,3.5,2.5,7.2,4.4c4.3,2.2,7.2,4.3,8.7,6.3c1.5,2,2.2,4.2,1.9,6.6c-0.3,3.6-2.1,6.3-5.2,8c-3.1,1.7-7.3,2.3-12.5,2
		c-1.9-0.1-4-0.5-6.3-1.1c-2.3-0.6-4-1.3-5.3-2.1l0.6-6.7c3.2,2.8,7.1,4.3,11.8,4.7c6,0.4,9.1-1.2,9.5-4.8c0.1-1-0.1-2-0.7-2.9
		c-0.6-0.9-1.4-1.7-2.4-2.4c-1.1-0.7-3.2-1.9-6.3-3.5c-3.9-2-6.5-4-8-5.9c-1.4-1.9-2-4-1.8-6.4c0.3-3.4,2.1-6,5.4-7.8
		c3.2-1.8,7.2-2.5,12-2.1c4.5,0.3,7.9,1.1,10.1,2.2L611.6,685.4z M628.4,684.2L628.4,684.2l-1.9,29.9v0l-0.3,5.1l-7-0.4l0.3-5.1l0,0
		l1.9-29.9v0l0.3-5.1l7,0.4L628.4,684.2z M670.5,687.6c-3.1-1.7-6.6-2.5-10.5-2.6c-4.9-0.1-8.9,1.2-12,4c-3.1,2.8-4.7,6.5-4.8,11.2
		c-0.1,4.5,1.2,8.1,3.9,10.9c2.7,2.8,6.4,4.3,11.1,4.4c4.3,0.1,8.2-0.7,11.6-2.4l-0.2,5.9c-3.4,1.4-7.6,2.1-12.7,2
		c-6.5-0.2-11.7-2.1-15.5-5.9c-3.8-3.7-5.6-8.6-5.5-14.6c0.2-6.3,2.5-11.4,7-15.3c4.5-3.9,10.2-5.8,17-5.7c4.3,0.1,7.9,0.7,10.8,1.9
		L670.5,687.6z M751.4,717.7l-2-25.9c-0.2-2.3-0.3-4.9-0.2-8.1l-0.2,0c-0.4,2.3-0.8,3.7-1,4.5l-11.4,30.4l-4.6,0.3l-16-28.5
		c-0.4-0.7-1-2.2-1.7-4.5l-0.2,0c0.4,2.4,0.7,5.3,1,8.7l2,25.2l-6.5,0.4l-3.1-40.1l9.7-0.6l14.2,25.7c1.1,2,1.9,3.7,2.3,5l0.2,0
		c0.3-1.1,0.8-2.9,1.6-5.4l10.3-27.2l9.4-0.6l3.1,40.1L751.4,717.7z M804.1,706.7c-3.3,4.3-8.3,6.9-14.9,7.6
		c-6.3,0.7-11.7-0.5-16.2-3.8c-4.5-3.3-7.1-7.9-8-13.8c-0.9-6.3,0.3-11.6,3.7-16c3.4-4.3,8.4-6.9,15.2-7.7c6.3-0.7,11.6,0.6,16,3.9
		c4.4,3.3,7,7.9,7.8,13.8C808.7,697.1,807.5,702.4,804.1,706.7z M836.9,707.4l-7.7,1.1l-23.1-37.4l7.6-1.1l16.8,28.4
		c0.6,1,1.2,2.2,1.6,3.6l0.1,0c-0.1-1.1,0-2.4,0.3-3.9l5.9-31.7l7.3-1.1L836.9,707.4z M858.9,704l-1-5l0,0l-6.1-29.5v0l-1-5l6.9-1.1
		l1,5l0,0l6.1,29.5v0l1,5L858.9,704z M876.7,701l-9-39.4l23.5-4.3l1.2,5.2l-16.6,3l2.7,11.6l15.4-2.8l1.2,5.2l-15.4,2.8l2.8,12.1
		l17.6-3.2l1.2,5.2L876.7,701z M929.8,688.5c-2.4,2.5-6.1,4.2-11.2,5.2c-1.9,0.4-4,0.6-6.4,0.7c-2.4,0.1-4.3-0.1-5.7-0.5l-1.7-6.5
		c4,1.8,8.3,2.2,12.8,1.2c5.8-1.2,8.3-3.6,7.4-7.1c-0.3-1-0.8-1.9-1.7-2.6c-0.9-0.7-1.9-1.2-3.2-1.6c-1.2-0.4-3.6-0.9-7.2-1.7
		c-4.4-0.9-7.6-2-9.6-3.4c-2-1.4-3.3-3.3-3.9-5.6c-0.9-3.4-0.1-6.3,2.4-8.9c2.5-2.5,6.1-4.3,10.7-5.3c4.4-0.9,7.9-1.1,10.4-0.6
		l1.6,6.2c-3.1-1.1-6.7-1.3-10.8-0.4c-2.6,0.5-4.6,1.4-5.9,2.7c-1.4,1.3-1.8,2.7-1.4,4.3c0.4,1.5,1.3,2.6,2.7,3.3
		c1.4,0.7,4.2,1.5,8.3,2.3c4.8,0.9,8.3,2.1,10.5,3.6c2.1,1.5,3.5,3.4,4.1,5.8C933,683,932.2,686,929.8,688.5z M1024.7,591
		c1.1,3.7,1.6,5.6,2.7,9.3c-17.1,3.9-34.3,7.5-51.6,10.6C992.3,604.6,1008.6,598,1024.7,591z M1048.7,674.2
		c-18.1,4.3-36.3,8.1-54.6,11.5c17.5-6.6,34.8-13.5,51.9-20.9C1047.1,668.6,1047.6,670.5,1048.7,674.2z M1041.6,649.6
		c-17.8,4.2-35.6,7.9-53.6,11.2c17.2-6.5,34.1-13.3,50.9-20.5C1040,644,1040.5,645.8,1041.6,649.6z M981.9,635.9
		c16.8-6.4,33.5-13.1,49.9-20.2c1.1,3.7,1.6,5.6,2.7,9.3C1017.1,629,999.5,632.6,981.9,635.9z"/>
	<path class="st0" d="M528.8,675.6l-0.2,0c-0.4,1.2-0.8,2.1-1.2,2.9l-8.8,14.9l14,1.9l-3.6-16.5C528.9,678.1,528.8,677,528.8,675.6z
		"/>
	<path class="st0" d="M795.3,681.5c-2.8-2.5-6.5-3.4-10.9-2.9c-4.4,0.5-7.6,2.3-9.8,5.5c-2.2,3.1-2.9,6.9-2.3,11.4
		c0.6,4.4,2.4,7.9,5.4,10.4c2.9,2.5,6.6,3.6,10.8,3.1c4.5-0.5,7.8-2.3,9.9-5.3c2.1-3,2.8-6.8,2.1-11.4
		C799.9,687.6,798.1,684,795.3,681.5z"/>
	<path class="st0" d="M1057.5,635.5c31-11.1,61.2-23,91.3-36c-20.7-11.2-41.1-23-60.9-35.4c7.2-23.1,14-46.2,20.2-69.5
		c-43.2,18.6-87.1,34.8-132.5,48.7c20.3,9.6,41,18.5,62,26.7C1044.2,591.7,1050.9,613.6,1057.5,635.5z"/>
	<path class="st0" d="M1026.7,573.6c-16.3-6.1-32.4-12.6-48.3-19.4c3.3,12.8,5,19.2,8.3,32.1
		C1002.8,581.5,1010.8,578.9,1026.7,573.6z"/>
</g>
<path class="st4" d="M596.5,165.9l-26.3,23.8h-59.7v244.8H483V189.7H354l26.3-23.8H596.5z"/>
<path class="st4" d="M673.5,335.9c-12,28.8-38.3,48.8-68.9,48.8c-41.9,0-75.9-37.6-75.9-83.9s34-83.9,75.9-83.9
	c32,0,59.3,21.9,70.5,52.8h20.2c-12-42.8-48.1-73.8-90.7-73.8c-52.4,0-94.9,47-94.9,104.9c0,57.9,42.5,104.9,94.9,104.9
	c41.3,0,76.4-29.1,89.5-69.8H673.5z"/>
<g>
	<path class="st4" d="M707.8,309.6v111h-8V163.8h106v16.1h-98v103.8"/>
	<path class="st4" d="M707.6,179.9v240.7h19.2V179.9H707.6z M723.6,415h-12.9v-12.9h12.9V415z M723.6,384.1h-12.9v-12.9h12.9V384.1z
		 M723.6,353.2h-12.9v-12.9h12.9V353.2z M723.6,322.3h-12.9v-12.9h12.9V322.3z M723.6,291.4h-12.9v-12.9h12.9V291.4z M723.6,260.5
		h-12.9v-12.9h12.9V260.5z M723.6,229.6h-12.9v-12.9h12.9V229.6z M723.6,198.7h-12.9v-12.9h12.9V198.7z"/>
	<rect x="726.8" y="260.5" class="st4" width="70.8" height="16.7"/>
</g>
<polyline class="st4" points="824.9,320.9 922.2,320.9 922.2,300 824.9,300 824.9,216 922.2,216 922.2,192.4 805.8,192.4 
	805.8,456.7 824.9,456.7 "/>
<circle class="st4" cx="602.5" cy="300.8" r="26"/>
<rect x="137.5" y="459" class="st4" width="1088.2" height="14.8"/>
<rect x="137.5" y="569.2" class="st4" width="1088.2" height="14.8"/>
<polygon class="st5" points="850.3,233.8 850.3,290.7 881.4,290.7 922.2,233.8 "/>
<polygon class="st5" points="422,205.6 468.7,269.2 468.7,205.6 "/>
<polygon class="st5" points="740.2,364.1 753.3,317.6 740.2,317.6 "/>
<path class="st5" d="M761.2,393.4c10.4,1.9,20.4,4.3,30.2,7v-75.6L761.2,393.4z"/>
<path class="st4" d="M828.8,169.9h30.7l45.6-103.5l-73.9-26.9l-31.8,113.3h10.7C819.9,152.8,828,160.3,828.8,169.9z"/>
<path class="st4" d="M672.4,171.5c0-10.4,8.4-18.8,18.8-18.8h21L720.9,20h-78.6l12,158.6c6.4,3.6,12.5,7.9,18.1,12.8V171.5z"/>
<path class="st4" d="M959.5,215.1c0,10.4-8.4,18.8-18.8,18.8h-18.6l-40.8,56.8h59.3c2.6,0,5.2,0.6,7.4,1.5l114.2-119.3l-60.2-50.5
	l-43.6,60.7c0.5,1.8,0.9,3.6,0.9,5.5V215.1z"/>
<path class="st4" d="M920.5,471.3c-4.3-4.4-8.9-8.7-13.7-12.8l266.9-131.6l-39.3-68.1l-259,177c-7.9-4.9-16.3-9.4-25-13.6v11.3
	c21,10.7,39.7,23.4,55.4,37.7"/>
<path class="st4" d="M761.2,393.4l30.2-68.6v-7.3h-38.1l-13,46.5v35.9c17.7,2.4,34.8,6,51.1,10.6v-10.1
	C781.5,397.7,771.5,395.3,761.2,393.4z"/>
<polygon class="st4" points="531.9,39.5 458,66.3 493.6,145 562.7,145 "/>
<path class="st4" d="M455.1,473.8c12.4-11.4,26.7-21.8,42.6-31h-10.3c-10.4,0-18.8-8.4-18.8-18.8v-5L228.8,258.7l-39.3,68.1
	L460.4,457c-5.4,4.3-10.5,8.9-15.4,13.5"/>
<path class="st4" d="M422,205.6h-79.4c-8,0-15.1-5.1-17.7-12.6c-2.6-7.6-0.1-16,6.2-20.9l29.5-23c3.3-2.6,7.4-4,11.6-4h5.5
	L361,122.4l-60.2,50.5l167.9,171.8v-75.5L422,205.6z"/>
</svg>
