<?xml version="1.0" encoding="utf-8"?>
<!-- Generator: Adobe Illustrator 22.0.0, SVG Export Plug-In . SVG Version: 6.00 Build 0)  -->
<svg version="1.1" id="圖層_1" xmlns="http://www.w3.org/2000/svg" xmlns:xlink="http://www.w3.org/1999/xlink" x="0px" y="0px"
	 viewBox="0 0 892.1 258.5" style="enable-background:new 0 0 892.1 258.5;" xml:space="preserve">
<style type="text/css">
	.st0{fill:#e3e0d9;}
	.st1{fill:#e3e0d9;}
	.st2{fill:none;}
</style>
<g>
	<path class="st0" d="M477.9,118.5l-2.8,2.1c-1.4-2.1-3.2-4.3-5.4-6.5c-13.2,2.7-28.7,4.4-46.4,5.1l-0.9-3.1
		c9.5-7.4,16.2-14.7,19.9-21.9l3.5,1.2c-3.5,6.3-9.3,13.1-17.4,20.2c14.1-0.5,26.9-2,38.5-4.4c-2.6-2.9-6-6.1-10.4-9.7l2.9-2.2
		C466.7,105.5,472.9,112,477.9,118.5z M471.7,150.7h-3.5v-4h-37.1v3.9h-3.5v-25.2h44.1V150.7z M468.2,143.3v-14.4h-37.1v14.4H468.2z
		"/>
	<path class="st0" d="M514.5,142c-11.5,4.1-20.9,6.9-28,8.6l-1-3.3c5.4-1.3,11.4-2.9,18-5v-24.5h-17v-3.4h17V94.4h3.5v46.5
		c2.1-0.6,4.7-1.5,7.6-2.6V142z M541.2,133.4c0,2.6-0.2,5.2-0.6,7.9c-0.4,2.7-0.7,4.4-1,5.1c-0.3,0.7-0.8,1.3-1.4,1.8
		c-0.6,0.5-1.4,0.9-2.3,1.1c-0.9,0.2-2.7,0.3-5.4,0.3c-5.1,0-8.1-0.2-9.1-0.6c-1-0.4-1.7-1-2.1-1.8s-0.6-1.8-0.6-3V94.4h3.5v20h18.3
		v3.4h-18.3v26.6c0,0.5,0.3,1,0.9,1.3c0.6,0.4,2.9,0.6,6.9,0.6c2.8,0,4.5-0.1,5.1-0.3c0.6-0.2,1-0.6,1.3-1.1c0.3-0.5,0.7-2,1-4.3
		c0.3-2.3,0.5-5.1,0.6-8.3L541.2,133.4z"/>
	<path class="st0" d="M557.3,135.3c-1,5.9-2.4,10.8-4.2,14.7l-2.9-1.5c1.5-3.6,2.9-8.2,4.1-13.9L557.3,135.3z M572.4,130.6l-2.9,1.1
		c-0.2-1.2-0.5-2.2-0.7-2.9c-6.3,1.8-12.1,3.1-17.2,4l-1.2-2.8c4.9-4.4,9.2-9.5,12.8-15.4c-3.6,0.7-7.4,1.3-11.5,1.9l-0.8-2.9
		c4.8-5.6,8.5-12,11.2-19.2l3.2,0.8c-2.1,5.8-5.3,11.7-9.6,17.7c2.7-0.3,5.8-0.8,9.4-1.5c1.3-2,2.7-4.5,4.1-7.4l3.1,1.2
		c-5.3,9.9-10.7,17.7-16.2,23.5c3.7-0.7,7.6-1.7,11.5-2.8c-0.4-1.3-1-2.8-1.9-4.5l2.9-1.2C570.7,124.3,571.9,127.8,572.4,130.6z
		 M565.2,148.2l-3.1,0.6c0.1-4.1-0.3-8.6-1.2-13.5l2.9-0.6C564.8,140.1,565.3,144.6,565.2,148.2z M573.9,143l-2.8,1.1
		c-0.7-3.3-1.6-6.3-2.8-9.1l2.7-1.1C572.3,136.7,573.2,139.8,573.9,143z M583.1,125.8l-2.8,1.3c-2.4-4.7-5.1-8.8-8-12.5
		c3-4.4,5.4-8.3,7.1-11.8l3,1.2c-1.9,3.9-4,7.5-6.3,10.7C578.7,118,581,121.7,583.1,125.8z M606.1,149.2H573V146h14.8v-13.1h-13.1
		v-3.3h29.8v3.3h-13.3V146h14.9V149.2z M605.3,99.3H573v-3.2h32.3V99.3z M594.5,125.4l-2.8,1.6c-2.2-4.1-4.7-8.2-7.8-12.1
		c3-4.4,5.3-8.2,6.8-11.5l3.3,1c-1.8,3.4-3.9,6.9-6.4,10.4C590.2,118.3,592.5,121.8,594.5,125.4z M605.9,125.5l-2.8,1.5
		c-2.1-4.1-4.8-8.1-7.9-12c2.8-4.1,5.2-8.1,6.9-11.9l3.1,1.2c-2,3.9-4.1,7.4-6.2,10.5C602.1,119.1,604.4,122.6,605.9,125.5z"/>
	<path class="st0" d="M670.8,134.4h-56.7v-3.1h5.6v-29.5h14v-7.5h3.2v7.5h10.5v-7.5h3.1v7.5h13.9v29.5h6.4V134.4z M636.5,140.3
		c-5.6,4.4-12.3,7.8-20.1,10.4l-2-2.9c7.9-2.7,14.4-5.9,19.7-9.8L636.5,140.3z M633.7,116.2v-11.4h-10.6v11.4H633.7z M633.7,131.3
		v-12h-10.6v12H633.7z M647.4,116.2v-11.4h-10.5v11.4H647.4z M647.4,131.3v-12h-10.5v12H647.4z M669.6,147.8l-2.4,2.8
		c-5.1-3.6-11.7-6.9-19.5-9.9l2.1-2.7C658.7,141.4,665.3,144.7,669.6,147.8z M661.2,116.2v-11.4h-10.7v11.4H661.2z M661.2,131.3v-12
		h-10.7v12H661.2z"/>
	<path class="st0" d="M733.4,117.6h-3.3v-11h-22.5v12.7h-3.2v-12.7h-21v11h-3.4v-14h24.3v-4.7h-22v-3h48.9v3h-23.7v4.7h25.8V117.6z
		 M735.3,142.8c-0.3,2.6-1,4.5-2,5.6c-1,1.1-2.9,1.7-5.5,1.9c-2.6,0.2-5.6,0.2-8.9,0.2c-2.8,0-5.5-0.1-8.1-0.2
		c-2.5-0.1-4.2-0.6-5.1-1.4c-0.9-0.8-1.3-2.2-1.3-4v-4.7H684v-18.4h44.5v18.4h-20.6v5c0,0.5,0.2,1,0.6,1.2c0.4,0.3,1.7,0.5,4.1,0.6
		s5,0.2,7.9,0.2c5,0,7.9-0.1,8.8-0.4c0.9-0.2,1.5-0.9,1.9-1.9s0.7-2.4,0.8-3.9L735.3,142.8z M701.8,117.3c-5.1,1.3-10,2.1-14.5,2.4
		l-1-2.9c4.8-0.2,9.6-0.9,14.5-2L701.8,117.3z M701.8,110.8l-1.1,2.8c-3.6-0.9-8.2-1.5-14-2l1.4-2.8
		C693.5,109.2,698,109.9,701.8,110.8z M704.5,129.5v-4.6h-17.2v4.6H704.5z M704.5,137.1v-4.8h-17.2v4.8H704.5z M725.1,129.5v-4.6
		h-17.2v4.6H725.1z M725.1,137.1v-4.8h-17.2v4.8H725.1z M727,117.4l-1.5,2.7c-4.5-1.2-9.5-2-15.2-2.5l1.4-2.6
		C718.3,115.6,723.4,116.4,727,117.4z M726.5,111.6c-5.3,0.9-10.2,1.6-14.7,1.9l-1-2.6c4.4-0.3,9.3-1,14.5-2L726.5,111.6z"/>
	<path class="st0" d="M754.4,138.3c-2.4,3.3-5.5,6.4-9.3,9.1l-2.3-2.5c3.2-2.2,6.2-5,9.1-8.5L754.4,138.3z M778.4,119.2H743v-3.1
		h16.4c-0.7-1.7-1.3-3-1.9-4h-10.7V95.8h27.6v16.4h-13.1c0.5,1,1,2.3,1.7,4h15.4V119.2z M773.9,134.3h-11.4V146
		c0,1.6-0.5,2.7-1.4,3.4c-0.9,0.7-2.5,1-4.6,1h-2.5l-1.1-3.1c2.1,0,3.7,0,4.7,0c1-0.1,1.5-0.7,1.5-1.9v-11.1h-11.7v-11.2h26.4V134.3
		z M771.1,102.2v-3.3h-20.9v3.3H771.1z M771.1,109.1v-3.6h-20.9v3.6H771.1z M770.7,131.2v-5h-19.9v5H770.7z M775,145.1l-2.8,1.9
		c-1.5-3-3.3-5.9-5.6-8.7l2.7-1.9C771.3,138.8,773.2,141.6,775,145.1z M799.5,132.3c-5.4,7.3-12.5,13.4-21.3,18.3l-2.1-2.8
		c9.6-5.3,16.6-11.3,20.9-18L799.5,132.3z M797.8,96.2c-4.7,5.8-10.9,10.5-18.6,14.3l-2-2.7c8.7-4.4,14.8-9,18.3-14L797.8,96.2z
		 M798.5,113.6c-4.3,5.6-10.7,10.6-19.2,15.2l-2-2.8c8.5-4.5,14.7-9.3,18.8-14.7L798.5,113.6z"/>
	<path class="st0" d="M861.4,129.8h-33.9v16.5c4.1-0.7,8.2-1.7,12.4-3.1l0.2,3c-5.1,1.7-10.4,3.2-16.1,4.4l-1-3.2
		c0.8-0.6,1.2-1.2,1.2-1.9v-15.7h-8.6c-1.5,9.2-3.8,16.2-6.9,21l-2.6-2.3c4.7-7.6,7-18,7-31V95.9h45v13.9h-41.6v6.7h12V112h3.5v4.4
		h13.8V112h3.5v4.4h9.6v3.1h-9.6v7.1h12.3V129.8z M828.3,126.7v-7.1h-12.1c0,2.3-0.1,4.6-0.4,7.1H828.3z M854.4,106.4v-7.4h-38.1
		v7.4H854.4z M845.6,126.7v-7.1h-13.8v7.1H845.6z M864.6,147.6l-1.6,3.2c-8.6-2.2-14.7-4.9-18.4-8.1c-3.6-3.1-6.2-6.3-7.8-9.6
		l3.3-0.9c2,3.3,4.2,5.9,6.6,7.9c3.1-1.9,5.9-4.5,8.5-7.6l2.7,2.1c-2.4,2.9-5.1,5.4-8.2,7.5C853.5,144.5,858.5,146.3,864.6,147.6z"
		/>
</g>
<g>
	<path class="st1" d="M190.5,66.7l-9.9,8.9h-22.5v92.1h-10.3V75.6H99.3l9.9-8.9H190.5z"/>
	<circle class="st1" cx="192.8" cy="117.4" r="9.8"/>
	<polygon class="st2" points="124.9,81.6 142.5,105.5 142.5,81.6 	"/>
	<g>
		<path class="st1" d="M219.5,130.6c-4.5,10.8-14.4,18.4-25.9,18.4c-15.8,0-28.6-14.1-28.6-31.6s12.8-31.6,28.6-31.6
			c12,0,22.3,8.2,26.5,19.9h7.6C223.2,89.6,209.6,78,193.6,78c-19.7,0-35.7,17.7-35.7,39.5c0,21.8,16,39.5,35.7,39.5
			c15.5,0,28.7-11,33.7-26.3H219.5z"/>
		<path class="st1" d="M269.3,71.9v-6h-39.9v96.6h3l0,0h7.1v-53.9h26.6v-6.3h-26.6V71.9H269.3z M238.4,160.4h-4.8v-4.8h4.8V160.4z
			 M238.4,148.8h-4.8v-4.8h4.8V148.8z M238.4,137.1h-4.8v-4.8h4.8V137.1z M238.4,125.5h-4.8v-4.8h4.8V125.5z M238.4,113.9h-4.8V109
			h4.8V113.9z M238.4,102.3h-4.8v-4.8h4.8V102.3z M238.4,90.6h-4.8v-4.8h4.8V90.6z M238.4,79h-4.8v-4.8h4.8V79z"/>
		<polyline class="st1" points="276.5,125 313,125 313,117.1 276.5,117.1 276.5,85.5 313,85.5 313,76.6 269.3,76.6 269.3,176.1 
			276.5,176.1 		"/>
		<g>
			<path class="st1" d="M164.3,216.9L164.3,216.9c-0.2,0.4-0.4,0.8-0.5,1.1l-3.3,5.6l5.3,0.7l-1.3-6.2
				C164.4,217.8,164.3,217.4,164.3,216.9z"/>
			<path class="st1" d="M264.6,219.1c-1.1-0.9-2.4-1.3-4.1-1.1c-1.6,0.2-2.9,0.9-3.7,2.1c-0.8,1.2-1.1,2.6-0.9,4.3
				c0.2,1.7,0.9,3,2,3.9c1.1,1,2.5,1.3,4.1,1.2c1.7-0.2,2.9-0.9,3.7-2c0.8-1.1,1.1-2.6,0.8-4.3C266.3,221.4,265.6,220,264.6,219.1z"
				/>
			<path class="st1" d="M427.2,176.9H378c-1.1-0.7-2.2-1.3-3.3-2c2.7-8.7,5.2-17.4,7.6-26.2c-16.3,7-32.8,13.1-49.8,18.3
				c7.5,3.5,15.1,6.8,22.9,9.9h-7.7c-4.7-1.8-9.4-3.7-14.1-5.7c0.6,2.3,1,4,1.5,5.7H102c0.4-1.7,0.9-3.5,1.5-5.7
				c-4.6,2-9.4,3.9-14.1,5.7h-7.7c7.7-3,15.4-6.3,22.9-9.9c-17.1-5.2-33.6-11.3-49.8-18.3c2.4,8.8,4.9,17.5,7.6,26.2
				c-1.1,0.7-2.2,1.3-3.3,2H17.9v5.6h31.8c-3.4,2-6.8,3.9-10.2,5.7c11.3,4.9,22.7,9.4,34.3,13.5c2-6.4,3.9-12.9,5.9-19.3h3.2
				c-3.6,12.1-7.2,24.2-10.8,36.4c95.8,31.4,197.1,31.4,292.8,0c-3.6-12.1-7.2-24.2-10.8-36.4h3.2c2,6.4,3.9,12.9,5.9,19.3
				c11.6-4.2,23-8.7,34.3-13.5c-3.4-1.9-6.9-3.8-10.2-5.7h39.9V176.9z M77,216.4c0.4-1.4,0.6-2.1,1-3.5c6.4,2.8,12.9,5.4,19.5,7.8
				C90.7,219.4,83.8,218,77,216.4z M79.7,207.1c0.4-1.4,0.6-2.1,1-3.5c6.3,2.7,12.7,5.3,19.1,7.7C93.1,210.1,86.4,208.7,79.7,207.1z
				 M82.4,197.8c0.4-1.4,0.6-2.1,1-3.5c6.2,2.7,12.4,5.2,18.8,7.6C95.5,200.7,88.9,199.4,82.4,197.8z M85.1,188.6
				c0.4-1.4,0.6-2.1,1-3.5c6.1,2.6,12.2,5.1,18.4,7.5C98,191.4,91.5,190.1,85.1,188.6z M133.5,221.6c0.8,1.2,2,2,3.8,2.3
				c1.6,0.3,3.1,0.2,4.5-0.2l-0.5,2.2c-1.4,0.3-3,0.3-4.8,0c-2.4-0.4-4.2-1.5-5.3-3.1c-1.1-1.6-1.4-3.5-0.9-5.7
				c0.5-2.3,1.8-4.1,3.8-5.2c2-1.2,4.2-1.5,6.7-1.1c1.6,0.3,2.9,0.7,3.8,1.3l-0.5,2.3c-1-0.8-2.3-1.3-3.7-1.6
				c-1.8-0.3-3.4-0.1-4.7,0.8c-1.3,0.9-2.2,2.1-2.6,3.9C132.5,219,132.7,220.4,133.5,221.6z M153.3,228.5l-9.1-1.5l3.1-14.9l2.6,0.4
				l-2.6,12.9l6.5,1.1L153.3,228.5z M167.1,230.4l-0.9-4.1l-6.7-0.9l-2.2,3.7l-2.9-0.4l8.9-14.1l2.9,0.4l3.8,15.8L167.1,230.4z
				 M183,219.6c-1-0.7-2.2-1.2-3.8-1.4c-1-0.1-1.8,0-2.5,0.3c-0.7,0.3-1,0.7-1.1,1.4c-0.1,0.6,0.1,1,0.5,1.5c0.4,0.4,1.3,1,2.6,1.7
				c1.6,0.9,2.6,1.7,3.2,2.5c0.5,0.8,0.8,1.6,0.6,2.5c-0.2,1.4-0.9,2.3-2.1,2.9c-1.2,0.6-2.8,0.8-4.7,0.6c-0.7-0.1-1.5-0.2-2.4-0.5
				c-0.9-0.2-1.5-0.5-1.9-0.8l0.3-2.5c1.2,1.1,2.6,1.7,4.4,1.9c2.2,0.2,3.4-0.3,3.6-1.7c0.1-0.4,0-0.8-0.2-1.1
				c-0.2-0.3-0.5-0.7-0.9-0.9c-0.4-0.3-1.2-0.7-2.3-1.4c-1.4-0.8-2.4-1.6-2.9-2.3c-0.5-0.7-0.7-1.5-0.6-2.4c0.2-1.3,0.9-2.3,2.1-2.9
				c1.2-0.6,2.8-0.8,4.5-0.7c1.7,0.2,2.9,0.5,3.8,1L183,219.6z M195.5,220.6c-1-0.7-2.3-1.1-3.8-1.3c-1-0.1-1.8,0-2.5,0.4
				c-0.6,0.3-1,0.8-1.1,1.4c-0.1,0.6,0.1,1,0.5,1.4c0.4,0.4,1.3,1,2.7,1.7c1.6,0.8,2.7,1.6,3.3,2.4c0.6,0.8,0.8,1.6,0.7,2.5
				c-0.1,1.4-0.8,2.4-2,3c-1.2,0.6-2.7,0.9-4.7,0.7c-0.7-0.1-1.5-0.2-2.4-0.4c-0.9-0.2-1.5-0.5-2-0.8l0.2-2.5c1.2,1,2.7,1.6,4.4,1.8
				c2.2,0.2,3.4-0.4,3.6-1.8c0-0.4-0.1-0.8-0.3-1.1c-0.2-0.3-0.5-0.6-0.9-0.9c-0.4-0.3-1.2-0.7-2.4-1.3c-1.5-0.8-2.5-1.5-3-2.2
				c-0.5-0.7-0.8-1.5-0.7-2.4c0.1-1.3,0.8-2.3,2-2.9c1.2-0.7,2.7-0.9,4.5-0.8c1.7,0.1,3,0.4,3.8,0.8L195.5,220.6z M201.8,220.1
				L201.8,220.1l-0.7,11.3v0l-0.1,1.9l-2.6-0.1l0.1-1.9l0,0l0.7-11.3v0l0.1-1.9l2.6,0.1L201.8,220.1z M217.6,221.4
				c-1.2-0.6-2.5-1-4-1c-1.8,0-3.3,0.5-4.5,1.5c-1.2,1.1-1.8,2.5-1.8,4.2c0,1.7,0.4,3,1.4,4.1c1,1.1,2.4,1.6,4.2,1.6
				c1.6,0,3.1-0.3,4.3-0.9l-0.1,2.2c-1.3,0.5-2.9,0.8-4.8,0.7c-2.5-0.1-4.4-0.8-5.8-2.2c-1.4-1.4-2.1-3.2-2.1-5.5
				c0.1-2.4,0.9-4.3,2.6-5.8c1.7-1.5,3.8-2.2,6.4-2.1c1.6,0,3,0.3,4,0.7L217.6,221.4z M248.1,232.7l-0.8-9.7c-0.1-0.9-0.1-1.9-0.1-3
				l-0.1,0c-0.2,0.9-0.3,1.4-0.4,1.7l-4.3,11.4l-1.7,0.1l-6-10.7c-0.2-0.3-0.4-0.8-0.6-1.7l-0.1,0c0.1,0.9,0.3,2,0.4,3.3l0.7,9.5
				l-2.4,0.2l-1.2-15.1l3.7-0.2l5.4,9.7c0.4,0.8,0.7,1.4,0.9,1.9l0.1,0c0.1-0.4,0.3-1.1,0.6-2l3.9-10.2l3.5-0.2l1.2,15.1
				L248.1,232.7z M267.9,228.6c-1.3,1.6-3.1,2.6-5.6,2.9c-2.4,0.3-4.4-0.2-6.1-1.4c-1.7-1.2-2.7-3-3-5.2c-0.3-2.4,0.1-4.4,1.4-6
				c1.3-1.6,3.2-2.6,5.7-2.9c2.4-0.3,4.4,0.2,6,1.5c1.6,1.2,2.6,3,3,5.2C269.6,225,269.1,227,267.9,228.6z M280.2,228.8l-2.9,0.4
				l-8.7-14.1l2.8-0.4l6.3,10.7c0.2,0.4,0.4,0.8,0.6,1.3l0.1,0c0-0.4,0-0.9,0.1-1.5l2.2-11.9l2.7-0.4L280.2,228.8z M288.5,227.6
				l-0.4-1.9l0,0l-2.3-11.1v0l-0.4-1.9l2.6-0.4l0.4,1.9l0,0l2.3,11.1v0l0.4,1.9L288.5,227.6z M295.2,226.4l-3.4-14.8l8.8-1.6l0.5,2
				l-6.3,1.1l1,4.4l5.8-1.1l0.4,2l-5.8,1.1l1,4.6l6.6-1.2l0.5,2L295.2,226.4z M315.2,221.7c-0.9,0.9-2.3,1.6-4.2,2
				c-0.7,0.1-1.5,0.2-2.4,0.3c-0.9,0-1.6,0-2.1-0.2l-0.6-2.5c1.5,0.7,3.1,0.8,4.8,0.5c2.2-0.4,3.1-1.3,2.8-2.7
				c-0.1-0.4-0.3-0.7-0.6-1c-0.3-0.3-0.7-0.5-1.2-0.6c-0.5-0.1-1.4-0.4-2.7-0.6c-1.7-0.3-2.9-0.8-3.6-1.3c-0.8-0.5-1.3-1.2-1.5-2.1
				c-0.3-1.3,0-2.4,0.9-3.3c0.9-1,2.3-1.6,4-2c1.7-0.3,3-0.4,3.9-0.2l0.6,2.3c-1.2-0.4-2.5-0.5-4.1-0.2c-1,0.2-1.7,0.5-2.2,1
				c-0.5,0.5-0.7,1-0.5,1.6c0.1,0.6,0.5,1,1,1.2c0.5,0.3,1.6,0.6,3.1,0.9c1.8,0.4,3.1,0.8,3.9,1.4c0.8,0.6,1.3,1.3,1.6,2.2
				C316.4,219.7,316.1,220.8,315.2,221.7z M359.9,216.4c-6.8,1.6-13.7,3.1-20.5,4.3c6.6-2.5,13.1-5.1,19.5-7.8
				C359.3,214.3,359.5,215,359.9,216.4z M357.2,207.1c-6.7,1.6-13.4,3-20.2,4.2c6.5-2.4,12.8-5,19.1-7.7
				C356.6,205,356.8,205.7,357.2,207.1z M334.8,201.9c6.3-2.4,12.6-4.9,18.8-7.6c0.4,1.4,0.6,2.1,1,3.5
				C348,199.4,341.4,200.7,334.8,201.9z M332.5,192.6c6.2-2.4,12.3-4.9,18.4-7.5c0.4,1.4,0.6,2.1,1,3.5
				C345.4,190,339,191.4,332.5,192.6z M87.9,182.5h9.9c0.8,0.2,1.6,0.5,2.6,0.8c0.1-0.3,0.1-0.5,0.2-0.8h235.8
				c0.1,0.3,0.1,0.5,0.2,0.8c0.9-0.3,1.8-0.5,2.6-0.8h9.9C263.4,209.5,173.5,209.5,87.9,182.5z"/>
		</g>
		<polygon class="st2" points="286,92.2 286,113.6 297.7,113.6 313,92.2 		"/>
		<polygon class="st2" points="244.6,141.2 249.5,123.7 244.6,123.7 		"/>
		<path class="st2" d="M252.5,152.3c3.9,0.7,7.7,1.6,11.4,2.6v-28.4L252.5,152.3z"/>
		<path class="st1" d="M277.9,68.2h11.6l17.1-38.9l-27.8-10.1l-11.9,42.6h4C274.6,61.7,277.6,64.6,277.9,68.2z"/>
		<path class="st1" d="M219.1,68.8c0-3.9,3.2-7.1,7.1-7.1h7.9l3.3-49.9h-29.6l4.5,59.7c2.4,1.4,4.7,3,6.8,4.8V68.8z"/>
		<path class="st1" d="M327.1,85.2c0,3.9-3.2,7.1-7.1,7.1h-7l-15.3,21.4H320c1,0,1.9,0.2,2.8,0.6l43-44.9l-22.7-19l-16.4,22.8
			c0.2,0.7,0.3,1.3,0.3,2.1V85.2z"/>
		<path class="st1" d="M312.4,181.5c-1.6-1.7-3.3-3.3-5.2-4.8l100.4-49.5l-14.8-25.6l-97.4,66.6c-3-1.8-6.1-3.5-9.4-5.1v4.3
			c7.9,4,14.9,8.8,20.9,14.2"/>
		<path class="st1" d="M252.5,152.3l11.4-25.8v-2.7h-14.3l-4.9,17.5v13.5c6.7,0.9,13.1,2.2,19.2,4v-3.8
			C260.1,153.9,256.4,153,252.5,152.3z"/>
	</g>
	<polygon class="st1" points="166.3,19.1 138.5,29.2 151.9,58.8 177.8,58.8 	"/>
	<path class="st1" d="M137.4,182.5c4.7-4.3,10.1-8.2,16-11.7h-3.9c-3.9,0-7.1-3.2-7.1-7.1v-1.9l-90.2-60.3l-14.8,25.6l101.9,49
		c-2,1.6-4,3.3-5.8,5.1"/>
	<path class="st1" d="M124.9,81.6H95.1c-3,0-5.7-1.9-6.7-4.8c-1-2.8,0-6,2.3-7.9l11.1-8.7c1.2-1,2.8-1.5,4.3-1.5h2.1l-6.3-8.5
		l-22.7,19l63.2,64.6v-28.4L124.9,81.6z"/>
</g>
</svg>
