<?xml version="1.0" encoding="utf-8"?>
<!-- Generator: Adobe Illustrator 22.0.0, SVG Export Plug-In . SVG Version: 6.00 Build 0)  -->
<svg version="1.1" id="圖層_1" xmlns="http://www.w3.org/2000/svg" xmlns:xlink="http://www.w3.org/1999/xlink" x="0px" y="0px"
	 viewBox="0 0 570.7 247" style="enable-background:new 0 0 570.7 247;" xml:space="preserve">
<style type="text/css">
	.st0{fill:#641a1d}
	.st1{fill:none;}
</style>
<path class="st0" d="M240.2,80.5l-13.2,12h-30.1v123.4h-13.8V92.5h-65l13.2-12H240.2z"/>
<path class="st0" d="M279,166.1c-6.1,14.5-19.3,24.6-34.7,24.6c-21.1,0-38.3-18.9-38.3-42.3s17.1-42.3,38.3-42.3
	c16.1,0,29.9,11,35.5,26.6H290c-6-21.5-24.2-37.2-45.7-37.2c-26.4,0-47.8,23.7-47.8,52.9c0,29.2,21.4,52.9,47.8,52.9
	c20.8,0,38.5-14.7,45.1-35.2H279z"/>
<g>
	<path class="st0" d="M296.3,152.9v55.9h-4V79.5h53.4v8.1h-49.4v52.3"/>
	<path class="st0" d="M296.2,87.6v121.3h9.7V87.6H296.2z M304.3,206h-6.5v-6.5h6.5V206z M304.3,190.5h-6.5V184h6.5V190.5z
		 M304.3,174.9h-6.5v-6.5h6.5V174.9z M304.3,159.3h-6.5v-6.5h6.5V159.3z M304.3,143.7h-6.5v-6.5h6.5V143.7z M304.3,128.2h-6.5v-6.5
		h6.5V128.2z M304.3,112.6h-6.5v-6.5h6.5V112.6z M304.3,97h-6.5v-6.5h6.5V97z"/>
	<rect x="305.9" y="128.2" class="st0" width="35.7" height="8.4"/>
</g>
<polyline class="st0" points="355.3,158.6 404.3,158.6 404.3,148.1 355.3,148.1 355.3,105.7 404.3,105.7 404.3,93.9 345.7,93.9 
	345.7,227 355.3,227 "/>
<circle class="st0" cx="243.3" cy="148.5" r="13.1"/>
<rect x="9" y="228.2" class="st0" width="548.3" height="7.5"/>
<polygon class="st1" points="368.1,114.7 368.1,143.4 383.8,143.4 404.3,114.7 "/>
<polygon class="st1" points="152.3,100.5 175.8,132.6 175.8,100.5 "/>
<polygon class="st1" points="312.6,180.4 319.2,156.9 312.6,156.9 "/>
<path class="st1" d="M323.2,195.1c5.2,1,10.3,2.2,15.2,3.5v-38.1L323.2,195.1z"/>
<path class="st0" d="M357.3,82.5h15.5l23-52.2l-37.2-13.5l-16,57.1h5.4C352.8,73.9,356.8,77.7,357.3,82.5z"/>
<path class="st0" d="M278.5,83.3c0-5.2,4.2-9.4,9.4-9.4h10.6L302.9,7h-39.6l6.1,79.9c3.2,1.8,6.3,4,9.1,6.5V83.3z"/>
<path class="st0" d="M423.1,105.3c0,5.2-4.2,9.4-9.4,9.4h-9.3l-20.5,28.6h29.9c1.3,0,2.6,0.3,3.7,0.8L474.9,84l-30.3-25.5l-22,30.6
	c0.3,0.9,0.5,1.8,0.5,2.8V105.3z"/>
<path class="st0" d="M403.5,234.4c-2.2-2.2-4.5-4.4-6.9-6.5L531,161.6l-19.8-34.3l-130.5,89.2c-4-2.5-8.2-4.7-12.6-6.9v5.7
	c10.6,5.4,20,11.8,27.9,19"/>
<path class="st0" d="M323.2,195.1l15.2-34.6v-3.7h-19.2l-6.6,23.4v18.1c8.9,1.2,17.5,3,25.8,5.3v-5.1
	C333.5,197.3,328.4,196.1,323.2,195.1z"/>
<polygon class="st0" points="207.7,16.8 170.5,30.4 188.4,70 223.2,70 "/>
<path class="st0" d="M169,235.7c6.3-5.7,13.5-11,21.5-15.6h-5.2c-5.2,0-9.4-4.2-9.4-9.4v-2.5L54.9,127.3l-19.8,34.3l136.5,65.6
	c-2.7,2.2-5.3,4.5-7.8,6.8"/>
<path class="st0" d="M152.3,100.5h-40c-4,0-7.6-2.6-8.9-6.4c-1.3-3.8-0.1-8,3.1-10.5L121.3,72c1.7-1.3,3.7-2,5.8-2h2.8l-8.4-11.4
	L91.2,84l84.6,86.6v-38L152.3,100.5z"/>
</svg>
