<?xml version="1.0" encoding="utf-8"?>
<!-- Generator: Adobe Illustrator 22.0.0, SVG Export Plug-In . SVG Version: 6.00 Build 0)  -->
<svg version="1.1" id="圖層_1" xmlns="http://www.w3.org/2000/svg" xmlns:xlink="http://www.w3.org/1999/xlink" x="0px" y="0px"
	 viewBox="0 0 461.1 465" style="enable-background:new 0 0 461.1 465;" xml:space="preserve">
<style type="text/css">
	<!-- .st0{fill:#8E5F59;} -->
	.st0{fill:rgb(99,26,28);}
</style>
<path class="st0" d="M352.9,354.9"/>
<g>
	<polygon class="st0" points="317.5,292.7 304.3,292.7 304.3,316.8 280.3,316.8 280.3,330 304.3,330 304.3,354 317.5,354 317.5,330 
		341.6,330 341.6,316.8 317.5,316.8 	"/>
	<path class="st0" d="M231.2,18C112.5,18,16.3,114.2,16.3,232.8s96.2,214.8,214.8,214.8c118.6,0,214.8-96.2,214.8-214.8
		S349.8,18,231.2,18z M231,97.2c37.7,0,68.2,30.6,68.2,68.2s-30.6,68.2-68.2,68.2s-68.2-30.6-68.2-68.2S193.3,97.2,231,97.2z
		 M259.3,368.3L108,368.4c-0.1-68.1,55.1-123.4,123.2-123.5c20.8,0,40.5,5.1,57.7,14.2c-27.1,8.8-46.7,34.2-46.7,64.2
		C242.2,340.6,248.7,356.3,259.3,368.3z M310.9,366.7c-23.9,0-43.4-19.4-43.4-43.4c0-23.9,19.4-43.4,43.4-43.4
		c23.9,0,43.4,19.4,43.4,43.4C354.3,347.3,334.9,366.7,310.9,366.7z"/>
</g>
</svg>
