<?xml version="1.0" encoding="utf-8"?>
<!-- Generator: Adobe Illustrator 22.0.0, SVG Export Plug-In . SVG Version: 6.00 Build 0)  -->
<svg version="1.1" id="圖層_1" xmlns="http://www.w3.org/2000/svg" xmlns:xlink="http://www.w3.org/1999/xlink" x="0px" y="0px"
	 viewBox="0 0 468.9 465.4" style="enable-background:new 0 0 468.9 465.4;" xml:space="preserve">
<style type="text/css">
	.st0{fill:#8E5F59;}
</style>
<path class="st0" d="M235.2,22C116.5,22,20.3,118.2,20.3,236.8s96.2,214.8,214.8,214.8c118.6,0,214.8-96.2,214.8-214.8
	S353.8,22,235.2,22z M235,101.2c37.7,0,68.2,30.6,68.2,68.2c0,37.7-30.6,68.2-68.2,68.2c-37.7,0-68.2-30.6-68.2-68.2
	C166.7,131.7,197.3,101.2,235,101.2z M110,360c0-61.9,56-112,125-112s125,50.1,125,112H110z"/>
</svg>
