<?xml version="1.0" encoding="utf-8"?>
<!-- Generator: Adobe Illustrator 22.0.0, SVG Export Plug-In . SVG Version: 6.00 Build 0)  -->
<svg version="1.1" id="圖層_1" xmlns="http://www.w3.org/2000/svg" xmlns:xlink="http://www.w3.org/1999/xlink" x="0px" y="0px"
	 viewBox="0 0 703.6 331.5" style="enable-background:new 0 0 703.6 331.5;" xml:space="preserve">
<style type="text/css">
	.st0{fill:#E3E0D9;}
	.st1{fill:#8E5F59;}
	.st2{fill:none;stroke:#8E5F59;stroke-width:2;stroke-miterlimit:10;}
</style>
<g>
	<path class="st0" d="M673.7,83.3c0-6.1,0-10.8,0-13.1c-20,0.3-24.4-2.9-42.9-11.9c-18.5-9-24.4-35.4-24.4-35.4H85.3
		c1.1,49.5-68.7,47.3-68.7,47.3v13.1c7.2,0,13,5.8,13,13c0,7.2-5.8,13-13,13v10.3c7.2,0,13,5.8,13,13s-5.8,13-13,13v10.3
		c7.2,0,13,5.8,13,13s-5.8,13-13,13V192c7.2,0,13,5.8,13,13c0,7.2-5.8,13-13,13v10.3c7.2,0,13,5.8,13,13s-5.8,13-13,13v10.6
		c0,0,69.9-2.1,68.7,47.3h521.1c0,0,5.9-26.5,24.4-35.4c18.5-9,22.9-12.2,42.9-11.9c0-2,0-5.8,0-10.6c-7.2,0-13-5.8-13-13
		s5.8-13,13-13c0-3.4,0-6.8,0-10.3c-7.2,0-13-5.8-13-13c0-7.2,5.8-13,13-13c0-3.7,0-7.2,0-10.3c-7.2,0-13-5.8-13-13s5.8-13,13-13
		c0-3,0-6.5,0-10.3c-7.2,0-13-5.8-13-13s5.8-13,13-13c0-3.4,0-6.9,0-10.3c-7.2,0-13-5.8-13-13C660.7,89.1,666.5,83.3,673.7,83.3z"/>
	<g>
		<g>
			<path class="st1" d="M190.1,192.7c-0.3,5.7-1.1,10.7-2.4,14.9l-4.1-2.2c1.2-3.5,1.9-8.1,2.2-13.7L190.1,192.7z M203.7,199.8
				l-3.3,3.7c-1-1.6-2.2-3.2-3.7-4.8V232h-5.3v-52.1h5.3v11.9C199.5,194.4,201.8,197,203.7,199.8z M236.2,210.3h-18.7
				c-1.5,8.9-6.7,16.3-15.6,22.3l-3.8-4.3c8-4.8,12.6-10.8,13.9-18h-12.5v-5.2h13.2c0.2-2.8,0.4-6.6,0.4-11.4h-10.9v-5.2h10.8
				c0.1-3.1,0.2-5.9,0.1-8.5h5.3c0.1,3.1,0.1,5.9,0,8.5h13.7v16.6h4.1V210.3z M236.8,229l-4.2,3.6c-4.1-5.3-9-10.2-14.8-14.9
				l3.8-3.7C227.7,218.7,232.7,223.7,236.8,229z M226.8,205.1v-11.4h-8.2c-0.1,5-0.2,8.8-0.4,11.4H226.8z"/>
			<path class="st1" d="M326.8,226.4l-1.6,5.2c-2.5,0.1-5.3,0.1-8.6,0.1c-4.4,0-9.1-0.1-13.9-0.2s-8.6-0.7-11.4-1.6
				s-5.3-2.3-7.5-4.1c-1.8,2.8-3.6,5.2-5.4,7.2l-4.3-3.3c5.2-5.4,8.5-11.1,10-17.2h-9v-4.9c3.2-3.3,5.9-6.7,8.2-10.2h-9.1v-4.8h15.3
				v4.8c-2,3.2-4.5,6.6-7.8,10.2h7.8v5c-0.6,2.9-1.7,5.9-3.2,8.9c3.9,3.5,9,5.3,15.2,5.3C310,226.7,318.4,226.6,326.8,226.4z
				 M288.4,187.2l-3.7,3.8c-2.2-2.5-5.3-5.1-9.5-7.7l3.5-3.9C282.3,181.5,285.5,184.1,288.4,187.2z M326.6,219.2l-2.7,4.2
				c-3.8-3-7.8-5.9-12.2-8.5v9.6h-5.2v-10.7c-4,4-8.2,7.4-12.7,10l-3.4-4.2c6.2-3.3,10.9-6.9,14-10.8H294v-15.1h12.5v-4h-14.4v-4.7
				h14.4v-5.1h5.2v5.1h14.6v4.7h-14.6v4h12.6V209h-12.6v0.6C317.9,213,322.8,216.2,326.6,219.2z M306.5,204.3v-6.1h-7.4v6.1H306.5z
				 M319.2,204.3v-6.1h-7.4v6.1H319.2z"/>
			<path class="st1" d="M380.7,217.9h-10.8l3.3,2.1c-1.5,5.1-3.2,9.2-5.3,12.4l-4.4-3.1c2.2-3.6,3.9-7.4,5-11.5h-3v-36.5h15.1V217.9
				z M375.7,192.1v-5.6h-5.1v5.6H375.7z M375.7,202.4v-5.7h-5.1v5.7H375.7z M375.7,213v-5.9h-5.1v5.9H375.7z M383.1,228.8l-4.7,2
				c-0.8-3.2-2.3-6.6-4.3-10.1l4.3-2C380.1,221.4,381.6,224.8,383.1,228.8z M416.5,222.9h-3.8v3.9c0,2-0.4,3.4-1.3,4.3
				s-2.5,1.3-5,1.3c-1,0-2.2-0.1-3.7-0.2l-1.8-5c1,0.1,2.1,0.1,3.2,0.1c1.7,0,2.7-0.1,3-0.3s0.4-0.5,0.4-1.1v-3.1h-17v9.5h-5.2v-9.5
				h-3.5v-4.2h3.5v-13.8h11.3v-3.2H382v-4.3h7.9v-2.9h-5v-3.9h5v-2.9h-6.4v-4.1h6.4v-3.4h5.2v3.4h8.6v-3.4h5.2v3.4h7.1v4.1h-7.1v2.9
				h4.9v3.9h-4.9v2.9h7.7v4.3H402v3.2h10.8v13.8h3.8V222.9z M396.7,211.9v-2.8h-6.1v2.8H396.7z M396.7,218.6v-2.8h-6.1v2.8H396.7z
				 M403.7,190.3v-2.8h-8.6v2.8H403.7z M403.7,197.3v-2.9h-8.6v2.9H403.7z M407.6,211.9v-2.8H402v2.8H407.6z M407.6,218.6v-2.8H402
				v2.8H407.6z"/>
			<path class="st1" d="M473.6,221.1c-3.9,4.1-9.4,7.7-16.7,10.8l-2.9-4.3c7.1-3.1,12.1-6.3,15.3-9.6L473.6,221.1z M506.4,185.4
				h-16.6v3.3h13.6v12.7h-46.1v-12.7h13.7v-3.3h-16.8v-4.6h52.3V185.4z M506.5,216.8h-23.3v15.6h-5.4v-15.6h-23.5v-4.6h52.3V216.8z
				 M502.5,209h-44.2v-4.5h44.2V209z M470.9,197.1V193h-8.4v4.1H470.9z M484.5,188.7v-3.3h-8.4v3.3H484.5z M484.5,197.1V193h-8.4
				v4.1H484.5z M507,228.2l-3.5,4c-5.1-3.8-10.6-7.2-16.4-10.4l3.5-3.7C496.3,220.9,501.7,224.2,507,228.2z M498.1,197.1V193h-8.4
				v4.1H498.1z"/>
		</g>
		<rect x="124.7" y="158.5" class="st1" width="440.7" height="6"/>
		<rect x="124.7" y="251.6" class="st1" width="440.7" height="6"/>
	</g>
	<g>
		<g>
			<path class="st1" d="M318.8,108.4l-0.4,0.3c-0.2-0.3-0.5-0.6-0.8-1c-2,0.4-4.4,0.7-7.1,0.8l-0.1-0.5c1.5-1.1,2.5-2.2,3-3.3
				l0.5,0.2c-0.5,1-1.4,2-2.6,3.1c2.1-0.1,4.1-0.3,5.9-0.7c-0.4-0.4-0.9-0.9-1.6-1.5l0.4-0.3C317.1,106.5,318,107.5,318.8,108.4z
				 M317.9,113.4h-0.5v-0.6h-5.7v0.6h-0.5v-3.8h6.7V113.4z M317.3,112.2V110h-5.7v2.2H317.3z"/>
			<path class="st1" d="M324.4,112c-1.8,0.6-3.2,1.1-4.3,1.3l-0.2-0.5c0.8-0.2,1.7-0.4,2.7-0.8v-3.7h-2.6v-0.5h2.6v-3h0.5v7.1
				c0.3-0.1,0.7-0.2,1.2-0.4V112z M328.5,110.7c0,0.4,0,0.8-0.1,1.2s-0.1,0.7-0.2,0.8c0,0.1-0.1,0.2-0.2,0.3
				c-0.1,0.1-0.2,0.1-0.3,0.2s-0.4,0-0.8,0c-0.8,0-1.2,0-1.4-0.1s-0.3-0.2-0.3-0.3c-0.1-0.1-0.1-0.3-0.1-0.5v-7.6h0.5v3h2.8v0.5
				h-2.8v4.1c0,0.1,0,0.1,0.1,0.2c0.1,0.1,0.4,0.1,1,0.1c0.4,0,0.7,0,0.8,0c0.1,0,0.2-0.1,0.2-0.2c0.1-0.1,0.1-0.3,0.1-0.7
				c0-0.4,0.1-0.8,0.1-1.3L328.5,110.7z"/>
			<path class="st1" d="M330.9,111c-0.2,0.9-0.4,1.6-0.6,2.2l-0.5-0.2c0.2-0.5,0.4-1.3,0.6-2.1L330.9,111z M333.2,110.3l-0.5,0.2
				c0-0.2-0.1-0.3-0.1-0.4c-1,0.3-1.8,0.5-2.6,0.6l-0.2-0.4c0.7-0.7,1.4-1.5,2-2.3c-0.5,0.1-1.1,0.2-1.7,0.3l-0.1-0.4
				c0.7-0.8,1.3-1.8,1.7-2.9l0.5,0.1c-0.3,0.9-0.8,1.8-1.5,2.7c0.4,0,0.9-0.1,1.4-0.2c0.2-0.3,0.4-0.7,0.6-1.1l0.5,0.2
				c-0.8,1.5-1.6,2.7-2.5,3.6c0.6-0.1,1.2-0.3,1.8-0.4c-0.1-0.2-0.1-0.4-0.3-0.7l0.5-0.2C333,109.3,333.2,109.9,333.2,110.3z
				 M332.1,113l-0.5,0.1c0-0.6-0.1-1.3-0.2-2.1l0.4-0.1C332.1,111.7,332.2,112.4,332.1,113z M333.5,112.2l-0.4,0.2
				c-0.1-0.5-0.2-1-0.4-1.4l0.4-0.2C333.2,111.2,333.4,111.7,333.5,112.2z M334.9,109.6l-0.4,0.2c-0.4-0.7-0.8-1.3-1.2-1.9
				c0.5-0.7,0.8-1.3,1.1-1.8l0.5,0.2c-0.3,0.6-0.6,1.1-1,1.6C334.2,108.4,334.6,108.9,334.9,109.6z M338.4,113.1h-5.1v-0.5h2.3v-2
				h-2v-0.5h4.5v0.5h-2v2h2.3V113.1z M338.3,105.5h-4.9V105h4.9V105.5z M336.6,109.5l-0.4,0.2c-0.3-0.6-0.7-1.2-1.2-1.9
				c0.5-0.7,0.8-1.2,1-1.8l0.5,0.2c-0.3,0.5-0.6,1.1-1,1.6C336,108.4,336.3,109,336.6,109.5z M338.3,109.5l-0.4,0.2
				c-0.3-0.6-0.7-1.2-1.2-1.8c0.4-0.6,0.8-1.2,1.1-1.8l0.5,0.2c-0.3,0.6-0.6,1.1-0.9,1.6C337.8,108.5,338.1,109.1,338.3,109.5z"/>
			<path class="st1" d="M348.2,110.9h-8.7v-0.5h0.9v-4.5h2.1v-1.1h0.5v1.1h1.6v-1.1h0.5v1.1h2.1v4.5h1V110.9z M343,111.8
				c-0.9,0.7-1.9,1.2-3.1,1.6l-0.3-0.4c1.2-0.4,2.2-0.9,3-1.5L343,111.8z M342.6,108.1v-1.7H341v1.7H342.6z M342.6,110.4v-1.8H341
				v1.8H342.6z M344.7,108.1v-1.7h-1.6v1.7H344.7z M344.7,110.4v-1.8h-1.6v1.8H344.7z M348.1,112.9l-0.4,0.4c-0.8-0.6-1.8-1.1-3-1.5
				l0.3-0.4C346.4,112,347.4,112.5,348.1,112.9z M346.8,108.1v-1.7h-1.6v1.7H346.8z M346.8,110.4v-1.8h-1.6v1.8H346.8z"/>
			<path class="st1" d="M357.8,108.3h-0.5v-1.7h-3.4v1.9h-0.5v-1.9h-3.2v1.7h-0.5v-2.1h3.7v-0.7H350V105h7.5v0.5h-3.6v0.7h3.9V108.3
				z M358.1,112.2c0,0.4-0.1,0.7-0.3,0.9c-0.2,0.2-0.4,0.3-0.8,0.3c-0.4,0-0.9,0-1.4,0c-0.4,0-0.8,0-1.2,0c-0.4,0-0.6-0.1-0.8-0.2
				c-0.1-0.1-0.2-0.3-0.2-0.6v-0.7h-3.1V109h6.8v2.8h-3.1v0.8c0,0.1,0,0.1,0.1,0.2c0.1,0,0.3,0.1,0.6,0.1c0.4,0,0.8,0,1.2,0
				c0.8,0,1.2,0,1.3-0.1s0.2-0.1,0.3-0.3c0.1-0.2,0.1-0.4,0.1-0.6L358.1,112.2z M353,108.3c-0.8,0.2-1.5,0.3-2.2,0.4l-0.2-0.4
				c0.7,0,1.5-0.1,2.2-0.3L353,108.3z M353,107.3l-0.2,0.4c-0.5-0.1-1.3-0.2-2.1-0.3l0.2-0.4C351.7,107,352.4,107.1,353,107.3z
				 M353.4,110.1v-0.7h-2.6v0.7H353.4z M353.4,111.3v-0.7h-2.6v0.7H353.4z M356.5,110.1v-0.7h-2.6v0.7H356.5z M356.5,111.3v-0.7
				h-2.6v0.7H356.5z M356.8,108.3l-0.2,0.4c-0.7-0.2-1.5-0.3-2.3-0.4l0.2-0.4C355.5,108,356.3,108.1,356.8,108.3z M356.7,107.4
				c-0.8,0.1-1.6,0.2-2.2,0.3l-0.1-0.4c0.7-0.1,1.4-0.2,2.2-0.3L356.7,107.4z"/>
			<path class="st1" d="M361,111.5c-0.4,0.5-0.8,1-1.4,1.4l-0.4-0.4c0.5-0.3,0.9-0.8,1.4-1.3L361,111.5z M364.7,108.6h-5.4v-0.5h2.5
				c-0.1-0.3-0.2-0.5-0.3-0.6h-1.6V105h4.2v2.5h-2c0.1,0.2,0.2,0.4,0.3,0.6h2.3V108.6z M364,110.9h-1.7v1.8c0,0.2-0.1,0.4-0.2,0.5
				c-0.1,0.1-0.4,0.2-0.7,0.2h-0.4l-0.2-0.5c0.3,0,0.6,0,0.7,0s0.2-0.1,0.2-0.3v-1.7h-1.8v-1.7h4V110.9z M363.5,106v-0.5h-3.2v0.5
				H363.5z M363.5,107v-0.6h-3.2v0.6H363.5z M363.5,110.4v-0.8h-3v0.8H363.5z M364.1,112.5l-0.4,0.3c-0.2-0.5-0.5-0.9-0.9-1.3
				l0.4-0.3C363.6,111.5,363.9,112,364.1,112.5z M367.9,110.6c-0.8,1.1-1.9,2.1-3.2,2.8l-0.3-0.4c1.5-0.8,2.5-1.7,3.2-2.8
				L367.9,110.6z M367.6,105.1c-0.7,0.9-1.7,1.6-2.8,2.2l-0.3-0.4c1.3-0.7,2.3-1.4,2.8-2.1L367.6,105.1z M367.7,107.7
				c-0.7,0.9-1.6,1.6-2.9,2.3l-0.3-0.4c1.3-0.7,2.2-1.4,2.9-2.2L367.7,107.7z"/>
			<path class="st1" d="M377.3,110.2h-5.2v2.5c0.6-0.1,1.3-0.3,1.9-0.5l0,0.5c-0.8,0.3-1.6,0.5-2.5,0.7l-0.2-0.5
				c0.1-0.1,0.2-0.2,0.2-0.3v-2.4h-1.3c-0.2,1.4-0.6,2.5-1.1,3.2l-0.4-0.4c0.7-1.2,1.1-2.7,1.1-4.7V105h6.9v2.1h-6.4v1h1.8v-0.7h0.5
				v0.7h2.1v-0.7h0.5v0.7h1.5v0.5h-1.5v1.1h1.9V110.2z M372.3,109.7v-1.1h-1.8c0,0.3,0,0.7-0.1,1.1H372.3z M376.2,106.6v-1.1h-5.8
				v1.1H376.2z M374.9,109.7v-1.1h-2.1v1.1H374.9z M377.8,112.9l-0.2,0.5c-1.3-0.3-2.2-0.8-2.8-1.2s-1-1-1.2-1.5l0.5-0.1
				c0.3,0.5,0.6,0.9,1,1.2c0.5-0.3,0.9-0.7,1.3-1.2l0.4,0.3c-0.4,0.4-0.8,0.8-1.2,1.1C376.1,112.4,376.9,112.7,377.8,112.9z"/>
		</g>
		<g>
			<path class="st1" d="M296.1,123.3c0.8-2.7,1.7-5.4,2.5-8.2c2.6-1,5.2-2.1,7.7-3.3c-5.7-1.7-11.1-3.7-16.5-6.1
				c0.8,2.9,1.6,5.8,2.5,8.7c-2.5,1.5-5,3-7.6,4.4C288.5,120.4,292.2,121.9,296.1,123.3z"/>
			<path class="st1" d="M305.9,113.2c-2,0.9-4,1.7-6,2.4c2,0.7,3,1,5,1.6C305.3,115.6,305.5,114.8,305.9,113.2z"/>
			<path class="st1" d="M299.3,116.4c-1.2,4.2-2.5,8.3-3.7,12.5c31.7,10.4,65.2,10.4,96.9,0c-1.2-4.2-2.5-8.3-3.7-12.5
				C359.4,126,328.5,126,299.3,116.4z M297.2,128.1c0.1-0.5,0.2-0.7,0.3-1.2c2.1,0.9,4.3,1.8,6.5,2.6
				C301.7,129.1,299.4,128.6,297.2,128.1z M298.1,125c0.1-0.5,0.2-0.7,0.3-1.2c2.1,0.9,4.2,1.8,6.3,2.6
				C302.5,126,300.3,125.6,298.1,125z M299,122c0.1-0.5,0.2-0.7,0.3-1.2c2,0.9,4.1,1.7,6.2,2.5C303.3,122.9,301.1,122.5,299,122z
				 M299.9,118.9c0.1-0.5,0.2-0.7,0.3-1.2c2,0.9,4,1.7,6.1,2.5C304.1,119.8,302,119.4,299.9,118.9z M315.9,129.8
				c0.3,0.4,0.7,0.7,1.2,0.8c0.5,0.1,1,0.1,1.5-0.1l-0.2,0.7c-0.5,0.1-1,0.1-1.6,0c-0.8-0.1-1.4-0.5-1.8-1c-0.4-0.5-0.5-1.2-0.3-1.9
				c0.2-0.8,0.6-1.3,1.2-1.7c0.6-0.4,1.4-0.5,2.2-0.4c0.5,0.1,0.9,0.2,1.3,0.4l-0.2,0.8c-0.3-0.3-0.7-0.4-1.2-0.5
				c-0.6-0.1-1.1,0-1.6,0.3s-0.7,0.7-0.9,1.3C315.5,129,315.6,129.4,315.9,129.8z M322.4,132.1l-3-0.5l1-4.9l0.9,0.1l-0.9,4.3
				l2.2,0.4L322.4,132.1z M327,132.7l-0.3-1.4l-2.2-0.3l-0.7,1.2l-0.9-0.1l2.9-4.7l1,0.1l1.2,5.2L327,132.7z M332.2,129.2
				c-0.3-0.2-0.7-0.4-1.2-0.5c-0.3,0-0.6,0-0.8,0.1c-0.2,0.1-0.3,0.2-0.4,0.5c0,0.2,0,0.3,0.2,0.5c0.1,0.1,0.4,0.3,0.9,0.6
				c0.5,0.3,0.9,0.6,1.1,0.8c0.2,0.3,0.3,0.5,0.2,0.8c-0.1,0.4-0.3,0.8-0.7,1c-0.4,0.2-0.9,0.3-1.6,0.2c-0.2,0-0.5-0.1-0.8-0.2
				c-0.3-0.1-0.5-0.2-0.6-0.3l0.1-0.8c0.4,0.4,0.9,0.6,1.4,0.6c0.7,0.1,1.1-0.1,1.2-0.6c0-0.1,0-0.3-0.1-0.4
				c-0.1-0.1-0.2-0.2-0.3-0.3c-0.1-0.1-0.4-0.2-0.8-0.5c-0.5-0.3-0.8-0.5-1-0.8c-0.2-0.2-0.2-0.5-0.2-0.8c0.1-0.4,0.3-0.7,0.7-1
				s0.9-0.3,1.5-0.2c0.6,0.1,1,0.2,1.2,0.3L332.2,129.2z M336.4,129.5c-0.3-0.2-0.7-0.4-1.3-0.4c-0.3,0-0.6,0-0.8,0.1
				c-0.2,0.1-0.3,0.3-0.3,0.5c0,0.2,0,0.3,0.2,0.5c0.1,0.1,0.4,0.3,0.9,0.6c0.5,0.3,0.9,0.5,1.1,0.8c0.2,0.2,0.3,0.5,0.2,0.8
				c0,0.5-0.3,0.8-0.6,1c-0.4,0.2-0.9,0.3-1.6,0.2c-0.2,0-0.5-0.1-0.8-0.1c-0.3-0.1-0.5-0.2-0.7-0.3l0.1-0.8
				c0.4,0.3,0.9,0.5,1.5,0.6c0.7,0.1,1.1-0.1,1.2-0.6c0-0.1,0-0.3-0.1-0.4c-0.1-0.1-0.2-0.2-0.3-0.3c-0.1-0.1-0.4-0.2-0.8-0.4
				c-0.5-0.3-0.8-0.5-1-0.7c-0.2-0.2-0.3-0.5-0.2-0.8c0-0.4,0.3-0.8,0.7-1c0.4-0.2,0.9-0.3,1.5-0.3c0.6,0,1,0.1,1.3,0.3L336.4,129.5
				z M338.5,129.4L338.5,129.4l-0.2,3.7v0l0,0.6l-0.9,0l0-0.6l0,0l0.2-3.7v0l0-0.6l0.9,0L338.5,129.4z M343.7,129.8
				c-0.4-0.2-0.8-0.3-1.3-0.3c-0.6,0-1.1,0.2-1.5,0.5c-0.4,0.3-0.6,0.8-0.6,1.4c0,0.6,0.1,1,0.5,1.4c0.3,0.3,0.8,0.5,1.4,0.5
				c0.5,0,1-0.1,1.4-0.3l0,0.7c-0.4,0.2-0.9,0.3-1.6,0.2c-0.8,0-1.5-0.3-1.9-0.7c-0.5-0.5-0.7-1.1-0.7-1.8c0-0.8,0.3-1.4,0.9-1.9
				c0.6-0.5,1.3-0.7,2.1-0.7c0.5,0,1,0.1,1.3,0.2L343.7,129.8z M353.8,133.5l-0.3-3.2c0-0.3,0-0.6,0-1l0,0c-0.1,0.3-0.1,0.5-0.1,0.6
				l-1.4,3.8l-0.6,0l-2-3.5c0-0.1-0.1-0.3-0.2-0.6l0,0c0,0.3,0.1,0.7,0.1,1.1l0.2,3.1l-0.8,0.1l-0.4-5l1.2-0.1l1.8,3.2
				c0.1,0.3,0.2,0.5,0.3,0.6l0,0c0-0.1,0.1-0.4,0.2-0.7l1.3-3.4l1.2-0.1l0.4,5L353.8,133.5z M360.3,132.2c-0.4,0.5-1,0.9-1.9,1
				c-0.8,0.1-1.5-0.1-2-0.5c-0.6-0.4-0.9-1-1-1.7c-0.1-0.8,0-1.4,0.5-2c0.4-0.5,1.1-0.9,1.9-1c0.8-0.1,1.4,0.1,2,0.5
				c0.5,0.4,0.9,1,1,1.7C360.9,131,360.8,131.6,360.3,132.2z M364.4,132.2l-1,0.1l-2.9-4.6l0.9-0.1l2.1,3.5c0.1,0.1,0.1,0.3,0.2,0.4
				l0,0c0-0.1,0-0.3,0-0.5l0.7-3.9l0.9-0.1L364.4,132.2z M367.2,131.8l-0.1-0.6l0,0l-0.8-3.7v0l-0.1-0.6l0.9-0.1l0.1,0.6l0,0
				l0.8,3.7v0l0.1,0.6L367.2,131.8z M369.4,131.4l-1.1-4.9l2.9-0.5l0.1,0.7l-2.1,0.4l0.3,1.4l1.9-0.3l0.1,0.6l-1.9,0.4l0.3,1.5
				l2.2-0.4l0.1,0.7L369.4,131.4z M376,129.9c-0.3,0.3-0.8,0.5-1.4,0.7c-0.2,0-0.5,0.1-0.8,0.1c-0.3,0-0.5,0-0.7-0.1l-0.2-0.8
				c0.5,0.2,1,0.3,1.6,0.2c0.7-0.1,1-0.4,0.9-0.9c0-0.1-0.1-0.2-0.2-0.3c-0.1-0.1-0.2-0.2-0.4-0.2c-0.2,0-0.5-0.1-0.9-0.2
				c-0.5-0.1-0.9-0.3-1.2-0.4c-0.3-0.2-0.4-0.4-0.5-0.7c-0.1-0.4,0-0.8,0.3-1.1c0.3-0.3,0.8-0.5,1.3-0.7c0.5-0.1,1-0.1,1.3-0.1
				l0.2,0.8c-0.4-0.1-0.8-0.2-1.3-0.1c-0.3,0.1-0.6,0.2-0.7,0.3c-0.2,0.2-0.2,0.3-0.2,0.5c0,0.2,0.2,0.3,0.3,0.4
				c0.2,0.1,0.5,0.2,1,0.3c0.6,0.1,1,0.3,1.3,0.5c0.3,0.2,0.4,0.4,0.5,0.7C376.4,129.2,376.3,129.6,376,129.9z M387.8,117.8
				c0.1,0.5,0.2,0.7,0.3,1.2c-2.1,0.5-4.3,0.9-6.4,1.3C383.7,119.5,385.8,118.6,387.8,117.8z M390.8,128.1c-2.3,0.5-4.5,1-6.8,1.4
				c2.2-0.8,4.3-1.7,6.5-2.6C390.6,127.4,390.6,127.6,390.8,128.1z M389.9,125c-2.2,0.5-4.4,1-6.7,1.4c2.1-0.8,4.2-1.7,6.3-2.6
				C389.7,124.4,389.8,124.6,389.9,125z M382.5,123.3c2.1-0.8,4.2-1.6,6.2-2.5c0.1,0.5,0.2,0.7,0.3,1.2
				C386.8,122.5,384.7,122.9,382.5,123.3z"/>
			<path class="st1" d="M326.1,128.3L326.1,128.3c-0.1,0.1-0.1,0.3-0.2,0.4l-1.1,1.9l1.7,0.2l-0.4-2.1
				C326.1,128.6,326.1,128.5,326.1,128.3z"/>
			<path class="st1" d="M359.2,129c-0.4-0.3-0.8-0.4-1.4-0.4c-0.5,0.1-0.9,0.3-1.2,0.7c-0.3,0.4-0.4,0.9-0.3,1.4
				c0.1,0.5,0.3,1,0.7,1.3c0.4,0.3,0.8,0.4,1.3,0.4c0.6-0.1,1-0.3,1.2-0.7c0.3-0.4,0.4-0.8,0.3-1.4
				C359.8,129.8,359.6,129.3,359.2,129z"/>
			<path class="st1" d="M391.9,123.3c3.9-1.4,7.6-2.9,11.4-4.5c-2.6-1.4-5.1-2.9-7.6-4.4c0.9-2.9,1.7-5.8,2.5-8.7
				c-5.4,2.3-10.8,4.3-16.5,6.1c2.5,1.2,5.1,2.3,7.7,3.3C390.2,117.8,391,120.6,391.9,123.3z"/>
			<path class="st1" d="M388,115.6c-2-0.8-4-1.6-6-2.4c0.4,1.6,0.6,2.4,1,4C385.1,116.6,386.1,116.3,388,115.6z"/>
		</g>
		<path class="st1" d="M334.5,64.9l-3.3,3h-7.4v30.5h-3.4V67.8h-16.1l3.3-3H334.5z"/>
		<path class="st1" d="M344.1,86c-1.5,3.6-4.8,6.1-8.6,6.1c-5.2,0-9.4-4.7-9.4-10.4c0-5.8,4.2-10.4,9.4-10.4c4,0,7.4,2.7,8.8,6.6
			h2.5c-1.5-5.3-6-9.2-11.3-9.2c-6.5,0-11.8,5.8-11.8,13.1c0,7.2,5.3,13.1,11.8,13.1c5.1,0,9.5-3.6,11.1-8.7H344.1z"/>
		<g>
			<path class="st1" d="M348.3,82.7v13.8h-1v-32h13.2v2h-12.2v12.9"/>
			<path class="st1" d="M348.3,66.6v30h2.4v-30H348.3z M350.3,95.9h-1.6v-1.6h1.6V95.9z M350.3,92h-1.6v-1.6h1.6V92z M350.3,88.2
				h-1.6v-1.6h1.6V88.2z M350.3,84.3h-1.6v-1.6h1.6V84.3z M350.3,80.5h-1.6v-1.6h1.6V80.5z M350.3,76.6h-1.6V75h1.6V76.6z
				 M350.3,72.8h-1.6v-1.6h1.6V72.8z M350.3,68.9h-1.6v-1.6h1.6V68.9z"/>
			<rect x="350.7" y="76.6" class="st1" width="8.8" height="2.1"/>
		</g>
		<polyline class="st1" points="362.9,84.1 375,84.1 375,81.6 362.9,81.6 362.9,71.1 375,71.1 375,68.2 360.5,68.2 360.5,101 
			362.9,101 		"/>
		<circle class="st1" cx="335.2" cy="81.6" r="3.2"/>
		<rect x="277.4" y="101.3" class="st1" width="135.4" height="1.8"/>
		<rect x="277.4" y="115" class="st1" width="135.4" height="1.8"/>
		<polygon class="st1" points="366.1,73.3 366.1,80.4 370,80.4 375,73.3 		"/>
		<polygon class="st1" points="312.8,69.8 318.6,77.7 318.6,69.8 		"/>
		<polygon class="st1" points="352.4,89.5 354,83.7 352.4,83.7 		"/>
		<path class="st1" d="M355,93.2c1.3,0.2,2.5,0.5,3.8,0.9v-9.4L355,93.2z"/>
		<path class="st1" d="M363.4,65.4h3.8l5.7-12.9l-9.2-3.3l-4,14.1h1.3C362.3,63.2,363.3,64.2,363.4,65.4z"/>
		<path class="st1" d="M343.9,65.6c0-1.3,1-2.3,2.3-2.3h2.6l1.1-16.5h-9.8l1.5,19.7c0.8,0.5,1.6,1,2.3,1.6V65.6z"/>
		<path class="st1" d="M379.7,71c0,1.3-1,2.3-2.3,2.3H375l-5.1,7.1h7.4c0.3,0,0.6,0.1,0.9,0.2l14.2-14.8l-7.5-6.3l-5.4,7.6
			c0.1,0.2,0.1,0.4,0.1,0.7V71z"/>
		<path class="st1" d="M374.8,102.9c-0.5-0.6-1.1-1.1-1.7-1.6l33.2-16.4l-4.9-8.5l-32.2,22c-1-0.6-2-1.2-3.1-1.7v1.4
			c2.6,1.3,4.9,2.9,6.9,4.7"/>
		<path class="st1" d="M355,93.2l3.8-8.5v-0.9H354l-1.6,5.8V94c2.2,0.3,4.3,0.7,6.4,1.3V94C357.5,93.7,356.3,93.4,355,93.2z"/>
		<polygon class="st1" points="326.5,49.1 317.3,52.5 321.7,62.3 330.3,62.3 		"/>
		<path class="st1" d="M316.9,103.2c1.5-1.4,3.3-2.7,5.3-3.9h-1.3c-1.3,0-2.3-1-2.3-2.3v-0.6l-29.9-19.9l-4.9,8.5l33.7,16.2
			c-0.7,0.5-1.3,1.1-1.9,1.7"/>
		<path class="st1" d="M312.8,69.8h-9.9c-1,0-1.9-0.6-2.2-1.6c-0.3-0.9,0-2,0.8-2.6l3.7-2.9c0.4-0.3,0.9-0.5,1.4-0.5h0.7l-2.1-2.8
			l-7.5,6.3l20.9,21.4v-9.4L312.8,69.8z"/>
	</g>
	<g>
		<path class="st1" d="M645.6,234.9l-0.7-0.6c1-1,2-2.5,2-4.8c0-2.3-1.3-4.1-3.4-4.1c-2.1,0-3.6,1.8-3.6,6.1h-0.9
			c0-4-1.5-5.6-3.3-5.6c-1.7,0-2.9,1.5-2.9,3.6c0,1.6,0.7,3.1,1.7,4.1l-0.7,0.6c-1-1.1-1.9-2.8-1.9-4.7c0-2.6,1.4-4.7,3.7-4.7
			c2,0,3.2,1.5,3.8,3.5h0.1c0.4-2.1,1.8-4,4-4c2.7,0,4.3,2.3,4.3,5.2C647.7,232.2,646.6,233.9,645.6,234.9z"/>
		<path class="st1" d="M635.9,212.9c-0.8,0-1.6-0.1-2.3-0.1v0.1c0.7,0.5,1.3,1,2,1.5l6.3,5.2v-10.4h0.9v11.9h-0.7l-10.1-8.4v-0.8
			h15.4v1H635.9z"/>
		<path class="st1" d="M633,196.4v9.5h-1v-10.9h0.6c4.9,4.2,8.7,5.4,14.7,5.6v1.2C641.2,201.6,637.5,200.1,633,196.4z"/>
		<path class="st1" d="M646.8,191.4c-5.1-5.7-7.9-8.5-10.6-8.5c-1.9,0-3.4,1.1-3.4,3.8c0,1.6,0.9,3,2,4l-0.7,0.7
			c-1.3-1.3-2.3-2.8-2.3-4.8c0-3,1.7-4.8,4.3-4.8c3.1,0,6,3,10.5,7.9c-0.1-1-0.1-1.9-0.1-2.9V181h1v10.4H646.8z"/>
		<path class="st1" d="M643.5,177.2c-2.3,0-3.5-1.8-4.3-3.5h-0.1c-0.7,1.3-1.9,2.4-3.6,2.4c-2.2,0-3.8-1.9-3.8-4.4
			c0-3,1.7-4.6,4-4.6c1.5,0,2.9,1.1,3.9,2.4h0.1c0.9-1.7,1.7-3.1,3.9-3.1c2.2,0,4,1.9,4,5.3C647.7,175,645.9,177.2,643.5,177.2z
			 M635.8,168c-1.7,0-3.1,1.3-3.1,3.6c0,2,1.2,3.4,2.9,3.4c2.2,0,3-2.1,3.8-4.6C638.3,168.8,637.1,168,635.8,168z M643.7,167.4
			c-2.6,0-3.2,2.5-4.1,5.5c0.9,1.9,2,3.3,3.9,3.3c1.9,0,3.4-1.7,3.4-4.5C646.8,168.8,645.4,167.4,643.7,167.4z"/>
		<path class="st1" d="M639.7,162.6c-5.1,0-7.9-1.9-7.9-5.3c0-3.3,2.8-5.3,7.9-5.3c5.1,0,8,1.9,8,5.3
			C647.7,160.7,644.8,162.6,639.7,162.6z M639.7,153.1c-4.7,0-7,1.7-7,4.2c0,2.5,2.3,4.2,7,4.2c4.7,0,7.1-1.7,7.1-4.2
			C646.8,154.8,644.4,153.1,639.7,153.1z M639.5,158.6c-0.9,0-1.4-0.6-1.4-1.3s0.5-1.3,1.4-1.3c0.9,0,1.5,0.6,1.5,1.3
			S640.4,158.6,639.5,158.6z"/>
		<path class="st1" d="M639.7,148.2c-5.1,0-7.9-1.9-7.9-5.3c0-3.3,2.8-5.3,7.9-5.3c5.1,0,8,1.9,8,5.3
			C647.7,146.3,644.8,148.2,639.7,148.2z M639.7,138.7c-4.7,0-7,1.7-7,4.2c0,2.5,2.3,4.2,7,4.2c4.7,0,7.1-1.7,7.1-4.2
			C646.8,140.4,644.4,138.7,639.7,138.7z M639.5,144.2c-0.9,0-1.4-0.6-1.4-1.3c0-0.7,0.5-1.3,1.4-1.3c0.9,0,1.5,0.6,1.5,1.3
			C640.9,143.6,640.4,144.2,639.5,144.2z"/>
		<path class="st1" d="M646.5,133.1v-4.6h-12.7v3.5H633c-0.2-1.6-0.5-2.8-1-3.7v-0.8h14.4v-4.3h0.9v10H646.5z"/>
		<path class="st1" d="M646.8,119.4c-5.1-5.7-7.9-8.5-10.6-8.5c-1.9,0-3.4,1.1-3.4,3.8c0,1.6,0.9,3,2,4l-0.7,0.7
			c-1.3-1.3-2.3-2.8-2.3-4.8c0-3,1.7-4.8,4.3-4.8c3.1,0,6,3,10.5,7.9c-0.1-1-0.1-1.9-0.1-2.9V109h1v10.4H646.8z"/>
	</g>
	<g>
		<path class="st1" d="M52.6,108.5l0.7,0.6c-1,1-2,2.5-2,4.8c0,2.4,1.3,4.1,3.4,4.1c2.1,0,3.6-1.8,3.6-6.1h0.9c0,4,1.5,5.6,3.3,5.6
			c1.7,0,2.9-1.5,2.9-3.6c0-1.6-0.7-3.1-1.7-4.1l0.7-0.6c1,1.2,1.9,2.8,1.9,4.7c0,2.6-1.4,4.7-3.7,4.7c-2,0-3.2-1.5-3.8-3.5h-0.1
			c-0.4,2.1-1.8,4-4,4c-2.7,0-4.3-2.3-4.3-5.2C50.4,111.3,51.6,109.6,52.6,108.5z"/>
		<path class="st1" d="M62.3,130.5c0.8,0,1.6,0.1,2.3,0.1v-0.1c-0.7-0.5-1.3-1-2-1.5l-6.3-5.2v10.4h-0.9v-11.9H56l10.1,8.4v0.8H50.7
			v-1H62.3z"/>
		<path class="st1" d="M65.1,147v-9.5h1v10.9h-0.6c-4.9-4.2-8.7-5.4-14.7-5.6v-1.2C57,141.8,60.7,143.4,65.1,147z"/>
		<path class="st1" d="M51.4,152.1c5.1,5.7,7.9,8.5,10.6,8.5c1.9,0,3.4-1.1,3.4-3.8c0-1.6-0.9-3-2-4l0.7-0.7
			c1.3,1.3,2.3,2.8,2.3,4.8c0,3-1.7,4.8-4.3,4.8c-3.1,0-6-3-10.5-7.9c0.1,1,0.1,1.9,0.1,2.9v5.9h-1v-10.4H51.4z"/>
		<path class="st1" d="M54.7,166.3c2.3,0,3.5,1.8,4.3,3.5H59c0.7-1.3,1.9-2.4,3.6-2.4c2.2,0,3.8,1.9,3.8,4.4c0,3-1.7,4.6-4,4.6
			c-1.5,0-2.9-1.1-3.9-2.4h-0.1c-0.9,1.7-1.7,3.1-3.9,3.1c-2.2,0-4-1.9-4-5.3C50.4,168.4,52.3,166.3,54.7,166.3z M54.5,176.1
			c2.6,0,3.2-2.5,4.1-5.5c-0.9-1.9-2-3.3-3.9-3.3c-1.9,0-3.4,1.7-3.4,4.5C51.3,174.6,52.7,176.1,54.5,176.1z M62.3,175.4
			c1.7,0,3.1-1.3,3.1-3.6c0-2-1.2-3.4-2.9-3.4c-2.2,0-3,2.1-3.8,4.6C59.8,174.6,61,175.4,62.3,175.4z"/>
		<path class="st1" d="M58.5,180.9c5.1,0,7.9,1.9,7.9,5.3c0,3.3-2.8,5.3-7.9,5.3c-5.1,0-8-1.9-8-5.3
			C50.4,182.8,53.4,180.9,58.5,180.9z M58.5,190.3c4.7,0,7-1.7,7-4.2c0-2.5-2.3-4.2-7-4.2c-4.7,0-7.1,1.7-7.1,4.2
			C51.4,188.6,53.8,190.3,58.5,190.3z M58.7,184.8c0.9,0,1.4,0.6,1.4,1.3c0,0.7-0.5,1.3-1.4,1.3c-0.9,0-1.5-0.6-1.5-1.3
			C57.2,185.5,57.7,184.8,58.7,184.8z"/>
		<path class="st1" d="M58.5,195.3c5.1,0,7.9,1.9,7.9,5.3c0,3.3-2.8,5.3-7.9,5.3c-5.1,0-8-1.9-8-5.3
			C50.4,197.2,53.4,195.3,58.5,195.3z M58.5,204.7c4.7,0,7-1.7,7-4.2c0-2.5-2.3-4.2-7-4.2c-4.7,0-7.1,1.7-7.1,4.2
			C51.4,203,53.8,204.7,58.5,204.7z M58.7,199.2c0.9,0,1.4,0.6,1.4,1.3s-0.5,1.3-1.4,1.3c-0.9,0-1.5-0.6-1.5-1.3
			S57.7,199.2,58.7,199.2z"/>
		<path class="st1" d="M51.7,210.3v4.6h12.7v-3.4h0.7c0.2,1.6,0.5,2.8,1,3.7v0.8H51.7v4.3h-0.9v-10H51.7z"/>
		<path class="st1" d="M51.4,224.1c5.1,5.7,7.9,8.5,10.6,8.5c1.9,0,3.4-1.1,3.4-3.8c0-1.6-0.9-3-2-4l0.7-0.7
			c1.3,1.3,2.3,2.8,2.3,4.8c0,3-1.7,4.8-4.3,4.8c-3.1,0-6-3-10.5-7.9c0.1,1,0.1,1.9,0.1,2.9v5.9h-1v-10.4H51.4z"/>
	</g>
	<line class="st2" x1="602.8" y1="54.5" x2="602.8" y2="280.5"/>
	<line class="st2" x1="89.5" y1="54.5" x2="89.5" y2="280.5"/>
</g>
</svg>
