<?xml version="1.0" encoding="utf-8"?>
<!-- Generator: Adobe Illustrator 22.0.0, SVG Export Plug-In . SVG Version: 6.00 Build 0)  -->
<svg version="1.1" id="圖層_1" xmlns="http://www.w3.org/2000/svg" xmlns:xlink="http://www.w3.org/1999/xlink" x="0px" y="0px"
	 viewBox="0 0 703.6 331.5" style="enable-background:new 0 0 703.6 331.5;" xml:space="preserve">
<style type="text/css">
	.st0{fill:#E3E0D9;}
	.st1{fill:#8E5F59;}
	.st2{fill:none;stroke:#8E5F59;stroke-width:2;stroke-miterlimit:10;}
</style>
<path class="st0" d="M677.1,82.2c0-6.1,0-10.8,0-13.1c-20,0.3-24.4-2.9-42.9-11.9c-18.5-9-24.4-35.4-24.4-35.4H88.7
	c1.1,49.5-68.7,47.3-68.7,47.3v13.1c7.2,0,13,5.8,13,13c0,7.2-5.8,13-13,13v10.3c7.2,0,13,5.8,13,13s-5.8,13-13,13v10.3
	c7.2,0,13,5.8,13,13s-5.8,13-13,13v10.3c7.2,0,13,5.8,13,13c0,7.2-5.8,13-13,13v10.3c7.2,0,13,5.8,13,13s-5.8,13-13,13v10.6
	c0,0,69.9-2.1,68.7,47.3h521.1c0,0,5.9-26.5,24.4-35.4c18.5-9,22.9-12.2,42.9-11.9c0-2,0-5.8,0-10.6c-7.2,0-13-5.8-13-13
	s5.8-13,13-13c0-3.4,0-6.8,0-10.3c-7.2,0-13-5.8-13-13c0-7.2,5.8-13,13-13c0-3.7,0-7.2,0-10.3c-7.2,0-13-5.8-13-13s5.8-13,13-13
	c0-3,0-6.5,0-10.3c-7.2,0-13-5.8-13-13s5.8-13,13-13c0-3.4,0-6.9,0-10.3c-7.2,0-13-5.8-13-13C664.1,88,670,82.2,677.1,82.2z"/>
<g>
	<path class="st1" d="M242,182.2c-0.2,3.4-0.6,6.4-1.4,8.9l-2.4-1.3c0.7-2.1,1.2-4.8,1.3-8.2L242,182.2z M250.2,186.4l-2,2.2
		c-0.6-1-1.3-1.9-2.2-2.9v20h-3.2v-31.3h3.2v7.2C247.7,183.2,249.1,184.8,250.2,186.4z M269.7,192.7h-11.2c-0.9,5.3-4,9.8-9.4,13.4
		l-2.3-2.6c4.8-2.9,7.6-6.5,8.3-10.8h-7.5v-3.1h7.9c0.1-1.7,0.2-3.9,0.2-6.8h-6.5v-3.1h6.5c0.1-1.8,0.1-3.5,0.1-5.1h3.2
		c0,1.9,0,3.6,0,5.1h8.2v9.9h2.4V192.7z M270,204l-2.5,2.2c-2.4-3.2-5.4-6.1-8.9-8.9l2.3-2.2C264.6,197.8,267.6,200.8,270,204z
		 M264,189.6v-6.8h-4.9c0,3-0.1,5.3-0.2,6.8H264z"/>
	<path class="st1" d="M333.1,202.4l-0.9,3.1c-1.5,0-3.2,0.1-5.2,0.1c-2.7,0-5.4,0-8.3-0.1s-5.2-0.4-6.8-1s-3.2-1.4-4.5-2.5
		c-1.1,1.7-2.2,3.1-3.3,4.3l-2.6-2c3.1-3.2,5.1-6.7,6-10.3H302v-3c1.9-2,3.6-4,4.9-6.1h-5.5v-2.9h9.2v2.9c-1.2,1.9-2.7,4-4.7,6.1
		h4.7v3c-0.4,1.8-1,3.5-1.9,5.3c2.3,2.1,5.4,3.2,9.1,3.2C323,202.6,328,202.5,333.1,202.4z M310,178.9l-2.2,2.3
		c-1.3-1.5-3.2-3.1-5.7-4.6l2.1-2.3C306.4,175.5,308.3,177.1,310,178.9z M332.9,198.1l-1.6,2.5c-2.3-1.8-4.7-3.5-7.3-5.1v5.8h-3.1
		v-6.4c-2.4,2.4-4.9,4.4-7.6,6l-2.1-2.5c3.7-2,6.5-4.1,8.4-6.5h-6.3v-9h7.5v-2.4h-8.7v-2.8h8.7v-3.1h3.1v3.1h8.8v2.8H324v2.4h7.6v9
		H324v0.4C327.7,194.4,330.7,196.3,332.9,198.1z M320.9,189.2v-3.6h-4.5v3.6H320.9z M328.5,189.2v-3.6H324v3.6H328.5z"/>
	<path class="st1" d="M374.4,197.3h-6.5l2,1.3c-0.9,3.1-1.9,5.5-3.2,7.5l-2.6-1.8c1.3-2.1,2.3-4.4,3-6.9h-1.8v-21.9h9V197.3z
		 M371.4,181.8v-3.4h-3.1v3.4H371.4z M371.4,188v-3.4h-3.1v3.4H371.4z M371.4,194.4v-3.5h-3.1v3.5H371.4z M375.8,203.9L373,205
		c-0.5-1.9-1.4-4-2.6-6l2.6-1.2C374,199.4,375,201.4,375.8,203.9z M395.9,200.3h-2.3v2.3c0,1.2-0.3,2.1-0.8,2.6s-1.5,0.8-3,0.8
		c-0.6,0-1.3,0-2.2-0.1l-1.1-3c0.6,0.1,1.2,0.1,1.9,0.1c1,0,1.6-0.1,1.8-0.2s0.3-0.3,0.3-0.6v-1.9h-10.2v5.7h-3.1v-5.7h-2.1v-2.5
		h2.1v-8.3h6.8v-1.9h-8.8V185h4.7v-1.8h-3v-2.3h3v-1.7h-3.8v-2.5h3.8v-2h3.1v2h5.2v-2h3.1v2h4.3v2.5h-4.3v1.7h2.9v2.3h-2.9v1.8h4.6
		v2.6h-8.7v1.9h6.5v8.3h2.3V200.3z M384,193.7v-1.7h-3.6v1.7H384z M384,197.8v-1.7h-3.6v1.7H384z M388.2,180.8v-1.7H383v1.7H388.2z
		 M388.2,185v-1.8H383v1.8H388.2z M390.5,193.7v-1.7h-3.4v1.7H390.5z M390.5,197.8v-1.7h-3.4v1.7H390.5z"/>
	<path class="st1" d="M439.1,199.3c-2.3,2.4-5.7,4.6-10,6.5l-1.8-2.6c4.2-1.9,7.3-3.8,9.2-5.8L439.1,199.3z M458.8,177.8h-10v2h8.2
		v7.6h-27.7v-7.6h8.2v-2h-10.1v-2.8h31.4V177.8z M458.9,196.7h-14v9.4h-3.3v-9.4h-14.1v-2.8h31.4V196.7z M456.5,192H430v-2.7h26.5
		V192z M437.5,184.9v-2.4h-5v2.4H437.5z M445.7,179.8v-2h-5v2H445.7z M445.7,184.9v-2.4h-5v2.4H445.7z M459.2,203.5l-2.1,2.4
		c-3.1-2.3-6.4-4.3-9.9-6.2l2.1-2.2C452.7,199.1,456,201.1,459.2,203.5z M453.9,184.9v-2.4h-5v2.4H453.9z"/>
</g>
<g>
	<path class="st1" d="M305,235.7h-6.2v5.6h5.8v1.6h-5.8v7.1H297v-15.9h8V235.7z"/>
	<path class="st1" d="M307.2,239.5c1.1-0.7,2.4-1.1,3.8-1.1c2.6,0,3.9,1.4,3.9,4.2v7.4h-1.7v-1.8h-0.1c-0.8,1.4-1.9,2.1-3.5,2.1
		c-1.1,0-2-0.3-2.7-0.9c-0.6-0.6-1-1.4-1-2.4c0-2.1,1.2-3.3,3.7-3.7l3.4-0.5c0-2-0.8-3-2.4-3c-1.4,0-2.6,0.5-3.7,1.4V239.5z
		 M310.5,244.6c-1,0.1-1.6,0.4-2,0.7c-0.4,0.3-0.6,0.9-0.6,1.6c0,0.6,0.2,1,0.6,1.4c0.4,0.4,0.9,0.5,1.6,0.5c0.9,0,1.7-0.3,2.3-1
		s0.9-1.5,0.9-2.4v-1.1L310.5,244.6z"/>
	<path class="st1" d="M317.7,247.7c1,0.7,2.1,1.1,3.3,1.1c1.6,0,2.4-0.5,2.4-1.6c0-0.5-0.2-0.9-0.5-1.2c-0.4-0.3-1-0.6-2.1-1
		c-1.2-0.5-2-1-2.5-1.5s-0.6-1.1-0.6-1.8c0-1,0.4-1.8,1.2-2.4c0.8-0.6,1.9-0.9,3.1-0.9c1,0,1.8,0.2,2.6,0.5v1.8
		c-0.8-0.5-1.8-0.8-2.9-0.8c-0.7,0-1.2,0.2-1.6,0.5c-0.4,0.3-0.6,0.7-0.6,1.2s0.1,0.9,0.4,1.1c0.3,0.3,0.9,0.6,2,1
		c1.3,0.5,2.2,1,2.6,1.5c0.4,0.5,0.7,1.1,0.7,1.9c0,1-0.4,1.8-1.2,2.4c-0.8,0.6-1.9,0.9-3.2,0.9c-1.2,0-2.2-0.2-3-0.7V247.7z"/>
	<path class="st1" d="M333.2,249.9c-0.4,0.2-1,0.4-1.7,0.4c-1.9,0-2.9-1.1-2.9-3.3v-6.8h-2v-1.5h2v-2.8l1.7-0.6v3.3h2.9v1.5h-2.9
		v6.5c0,0.8,0.1,1.3,0.4,1.7s0.7,0.5,1.3,0.5c0.5,0,0.9-0.1,1.2-0.4V249.9z"/>
	<path class="st1" d="M355.7,235.7h-4.6V250h-1.8v-14.3h-4.6v-1.6h10.9V235.7z"/>
	<path class="st1" d="M357.7,234.6c0-0.3,0.1-0.6,0.3-0.8c0.2-0.2,0.5-0.3,0.8-0.3c0.3,0,0.6,0.1,0.8,0.3c0.2,0.2,0.3,0.5,0.3,0.8
		c0,0.3-0.1,0.6-0.3,0.8c-0.2,0.2-0.5,0.3-0.8,0.3c-0.3,0-0.6-0.1-0.8-0.3C357.8,235.1,357.7,234.9,357.7,234.6z M357.9,250v-11.3
		h1.7V250H357.9z"/>
	<path class="st1" d="M371.1,249.5c-0.9,0.5-1.9,0.8-3.1,0.8c-1.6,0-2.9-0.5-3.9-1.6c-1-1-1.5-2.4-1.5-4.1c0-1.9,0.5-3.4,1.6-4.5
		c1.1-1.1,2.5-1.7,4.3-1.7c1,0,1.8,0.2,2.6,0.6v1.8c-0.8-0.6-1.8-0.9-2.7-0.9c-1.2,0-2.1,0.4-2.9,1.3c-0.8,0.8-1.1,2-1.1,3.3
		c0,1.4,0.4,2.4,1.1,3.2c0.7,0.8,1.7,1.2,2.8,1.2c1,0,1.9-0.3,2.8-1V249.5z"/>
	<path class="st1" d="M383.1,250h-2.4l-5.1-5.4h-0.1v5.4h-1.7v-16.8h1.7v10.6h0.1l4.8-5.2h2.3l-5.3,5.5L383.1,250z"/>
	<path class="st1" d="M393.6,244.7h-8c0,1.3,0.4,2.3,1,3s1.6,1,2.7,1c1.3,0,2.5-0.4,3.5-1.3v1.6c-1,0.7-2.3,1.1-3.9,1.1
		c-1.6,0-2.8-0.5-3.7-1.5c-0.9-1-1.4-2.5-1.4-4.4c0-1.7,0.5-3.1,1.5-4.3c1-1.1,2.2-1.7,3.7-1.7c1.5,0,2.6,0.5,3.4,1.4s1.2,2.3,1.2,4
		V244.7z M391.8,243.2c0-1.1-0.3-1.9-0.8-2.5c-0.5-0.6-1.2-0.9-2.1-0.9c-0.8,0-1.6,0.3-2.2,0.9c-0.6,0.6-1,1.4-1.2,2.5H391.8z"/>
	<path class="st1" d="M401.5,249.9c-0.4,0.2-1,0.4-1.7,0.4c-1.9,0-2.9-1.1-2.9-3.3v-6.8h-2v-1.5h2v-2.8l1.7-0.6v3.3h2.9v1.5h-2.9
		v6.5c0,0.8,0.1,1.3,0.4,1.7s0.7,0.5,1.3,0.5c0.5,0,0.9-0.1,1.2-0.4V249.9z"/>
</g>
<rect x="128.2" y="157.4" class="st1" width="440.7" height="6"/>
<rect x="128.2" y="219.5" class="st1" width="440.7" height="6"/>
<g>
	<g>
		<path class="st1" d="M319.7,109l-0.5,0.4c-0.2-0.4-0.5-0.7-0.9-1.1c-2.2,0.5-4.8,0.7-7.8,0.9l-0.2-0.5c1.6-1.2,2.7-2.5,3.3-3.7
			l0.6,0.2c-0.6,1.1-1.6,2.2-2.9,3.4c2.4-0.1,4.5-0.3,6.4-0.7c-0.4-0.5-1-1-1.7-1.6l0.5-0.4C317.8,106.8,318.8,107.9,319.7,109z
			 M318.6,114.4H318v-0.7h-6.2v0.7h-0.6v-4.2h7.4V114.4z M318,113.2v-2.4h-6.2v2.4H318z"/>
		<path class="st1" d="M325.8,112.9c-1.9,0.7-3.5,1.2-4.7,1.4l-0.2-0.6c0.9-0.2,1.9-0.5,3-0.8v-4.1h-2.8v-0.6h2.8V105h0.6v7.8
			c0.4-0.1,0.8-0.3,1.3-0.4V112.9z M330.3,111.5c0,0.4,0,0.9-0.1,1.3c-0.1,0.5-0.1,0.7-0.2,0.8s-0.1,0.2-0.2,0.3s-0.2,0.2-0.4,0.2
			s-0.4,0.1-0.9,0.1c-0.8,0-1.4,0-1.5-0.1c-0.2-0.1-0.3-0.2-0.4-0.3s-0.1-0.3-0.1-0.5V105h0.6v3.3h3.1v0.6h-3.1v4.5
			c0,0.1,0,0.2,0.1,0.2s0.5,0.1,1.2,0.1c0.5,0,0.8,0,0.8-0.1s0.2-0.1,0.2-0.2c0.1-0.1,0.1-0.3,0.2-0.7s0.1-0.9,0.1-1.4L330.3,111.5z
			"/>
		<path class="st1" d="M333,111.8c-0.2,1-0.4,1.8-0.7,2.5l-0.5-0.2c0.3-0.6,0.5-1.4,0.7-2.3L333,111.8z M335.5,111l-0.5,0.2
			c0-0.2-0.1-0.4-0.1-0.5c-1.1,0.3-2,0.5-2.9,0.7l-0.2-0.5c0.8-0.7,1.5-1.6,2.1-2.6c-0.6,0.1-1.2,0.2-1.9,0.3l-0.1-0.5
			c0.8-0.9,1.4-2,1.9-3.2l0.5,0.1c-0.4,1-0.9,2-1.6,3c0.4-0.1,1-0.1,1.6-0.2c0.2-0.3,0.5-0.8,0.7-1.2l0.5,0.2
			c-0.9,1.7-1.8,3-2.7,3.9c0.6-0.1,1.3-0.3,1.9-0.5c-0.1-0.2-0.2-0.5-0.3-0.8l0.5-0.2C335.2,110,335.4,110.6,335.5,111z M334.3,114
			l-0.5,0.1c0-0.7-0.1-1.4-0.2-2.3l0.5-0.1C334.2,112.6,334.3,113.4,334.3,114z M335.8,113.1l-0.5,0.2c-0.1-0.5-0.3-1.1-0.5-1.5
			l0.5-0.2C335.5,112,335.6,112.6,335.8,113.1z M337.3,110.2l-0.5,0.2c-0.4-0.8-0.9-1.5-1.3-2.1c0.5-0.7,0.9-1.4,1.2-2l0.5,0.2
			c-0.3,0.7-0.7,1.3-1.1,1.8C336.6,108.9,337,109.5,337.3,110.2z M341.2,114.1h-5.6v-0.5h2.5v-2.2h-2.2v-0.5h5v0.5h-2.2v2.2h2.5
			V114.1z M341,105.8h-5.4v-0.5h5.4V105.8z M339.2,110.2l-0.5,0.3c-0.4-0.7-0.8-1.4-1.3-2c0.5-0.7,0.9-1.4,1.1-1.9l0.5,0.2
			c-0.3,0.6-0.7,1.2-1.1,1.7C338.5,109,338.9,109.6,339.2,110.2z M341.1,110.2l-0.5,0.3c-0.4-0.7-0.8-1.4-1.3-2
			c0.5-0.7,0.9-1.4,1.2-2l0.5,0.2c-0.3,0.7-0.7,1.2-1,1.8C340.5,109.1,340.9,109.7,341.1,110.2z"/>
		<path class="st1" d="M352,111.7h-9.5v-0.5h0.9v-4.9h2.3v-1.3h0.5v1.3h1.8v-1.3h0.5v1.3h2.3v4.9h1.1V111.7z M346.2,112.6
			c-0.9,0.7-2.1,1.3-3.4,1.7l-0.3-0.5c1.3-0.4,2.4-1,3.3-1.6L346.2,112.6z M345.8,108.6v-1.9H344v1.9H345.8z M345.8,111.1v-2H344v2
			H345.8z M348.1,108.6v-1.9h-1.8v1.9H348.1z M348.1,111.1v-2h-1.8v2H348.1z M351.8,113.9l-0.4,0.5c-0.9-0.6-2-1.2-3.3-1.7l0.3-0.5
			C350,112.8,351.1,113.4,351.8,113.9z M350.4,108.6v-1.9h-1.8v1.9H350.4z M350.4,111.1v-2h-1.8v2H350.4z"/>
		<path class="st1" d="M362.5,108.8h-0.5V107h-3.8v2.1h-0.5V107h-3.5v1.8h-0.6v-2.3h4.1v-0.8h-3.7v-0.5h8.2v0.5h-4v0.8h4.3V108.8z
			 M362.8,113.1c0,0.4-0.2,0.8-0.3,0.9c-0.2,0.2-0.5,0.3-0.9,0.3c-0.4,0-0.9,0-1.5,0c-0.5,0-0.9,0-1.4,0c-0.4,0-0.7-0.1-0.9-0.2
			c-0.1-0.1-0.2-0.4-0.2-0.7v-0.8h-3.4v-3.1h7.4v3.1h-3.4v0.8c0,0.1,0,0.2,0.1,0.2s0.3,0.1,0.7,0.1c0.4,0,0.8,0,1.3,0
			c0.8,0,1.3,0,1.5-0.1c0.1,0,0.3-0.1,0.3-0.3c0.1-0.2,0.1-0.4,0.1-0.7L362.8,113.1z M357.2,108.8c-0.9,0.2-1.7,0.4-2.4,0.4
			l-0.2-0.5c0.8,0,1.6-0.1,2.4-0.3L357.2,108.8z M357.2,107.7l-0.2,0.5c-0.6-0.1-1.4-0.3-2.3-0.3l0.2-0.5
			C355.8,107.4,356.6,107.5,357.2,107.7z M357.6,110.8v-0.8h-2.9v0.8H357.6z M357.6,112.1v-0.8h-2.9v0.8H357.6z M361.1,110.8v-0.8
			h-2.9v0.8H361.1z M361.1,112.1v-0.8h-2.9v0.8H361.1z M361.4,108.8l-0.2,0.5c-0.8-0.2-1.6-0.3-2.5-0.4l0.2-0.4
			C360,108.5,360.8,108.6,361.4,108.8z M361.3,107.8c-0.9,0.2-1.7,0.3-2.5,0.3l-0.2-0.4c0.7-0.1,1.6-0.2,2.4-0.3L361.3,107.8z"/>
		<path class="st1" d="M366,112.3c-0.4,0.6-0.9,1.1-1.6,1.5l-0.4-0.4c0.5-0.4,1-0.8,1.5-1.4L366,112.3z M370,109.1h-5.9v-0.5h2.7
			c-0.1-0.3-0.2-0.5-0.3-0.7h-1.8v-2.7h4.6v2.7h-2.2c0.1,0.2,0.2,0.4,0.3,0.7h2.6V109.1z M369.3,111.6h-1.9v2c0,0.3-0.1,0.5-0.2,0.6
			c-0.2,0.1-0.4,0.2-0.8,0.2H366l-0.2-0.5c0.4,0,0.6,0,0.8,0s0.3-0.1,0.3-0.3v-1.9h-2v-1.9h4.4V111.6z M368.8,106.3v-0.6h-3.5v0.6
			H368.8z M368.8,107.4v-0.6h-3.5v0.6H368.8z M368.7,111.1v-0.8h-3.3v0.8H368.7z M369.5,113.5l-0.5,0.3c-0.2-0.5-0.6-1-0.9-1.5
			l0.5-0.3C368.8,112.4,369.2,112.9,369.5,113.5z M373.6,111.3c-0.9,1.2-2.1,2.3-3.6,3.1l-0.3-0.5c1.6-0.9,2.8-1.9,3.5-3
			L373.6,111.3z M373.3,105.3c-0.8,1-1.8,1.8-3.1,2.4l-0.3-0.5c1.5-0.7,2.5-1.5,3.1-2.3L373.3,105.3z M373.4,108.2
			c-0.7,0.9-1.8,1.8-3.2,2.5l-0.3-0.5c1.4-0.7,2.5-1.6,3.2-2.5L373.4,108.2z"/>
		<path class="st1" d="M383.9,110.9h-5.7v2.8c0.7-0.1,1.4-0.3,2.1-0.5l0,0.5c-0.9,0.3-1.7,0.5-2.7,0.7l-0.2-0.5
			c0.1-0.1,0.2-0.2,0.2-0.3v-2.6h-1.4c-0.3,1.5-0.6,2.7-1.2,3.5l-0.4-0.4c0.8-1.3,1.2-3,1.2-5.2v-3.6h7.5v2.3h-7v1.1h2v-0.7h0.6v0.7
			h2.3v-0.7h0.6v0.7h1.6v0.5h-1.6v1.2h2.1V110.9z M378.4,110.4v-1.2h-2c0,0.4,0,0.8-0.1,1.2H378.4z M382.8,107v-1.2h-6.4v1.2H382.8z
			 M381.3,110.4v-1.2H379v1.2H381.3z M384.5,113.9l-0.3,0.5c-1.4-0.4-2.5-0.8-3.1-1.4c-0.6-0.5-1-1.1-1.3-1.6l0.6-0.1
			c0.3,0.5,0.7,1,1.1,1.3c0.5-0.3,1-0.8,1.4-1.3l0.5,0.3c-0.4,0.5-0.9,0.9-1.4,1.3C382.6,113.3,383.4,113.6,384.5,113.9z"/>
	</g>
	<g>
		<path class="st1" d="M294.7,125.3c0.9-3,1.8-6,2.7-9c2.9-1.1,5.7-2.3,8.5-3.6c-6.2-1.9-12.2-4.1-18.1-6.7c0.9,3.2,1.8,6.3,2.8,9.5
			c-2.7,1.7-5.5,3.3-8.3,4.8C286.4,122.1,290.5,123.8,294.7,125.3z"/>
		<path class="st1" d="M305.5,114.2c-2.2,0.9-4.4,1.8-6.6,2.7c2.2,0.7,3.3,1.1,5.5,1.7C304.9,116.8,305.1,115.9,305.5,114.2z"/>
		<path class="st1" d="M298.2,117.7c-1.4,4.6-2.7,9.2-4.1,13.7c34.8,11.4,71.6,11.4,106.4,0c-1.4-4.6-2.7-9.2-4.1-13.7
			C364.3,128.3,330.4,128.3,298.2,117.7z M295.9,130.6c0.1-0.5,0.2-0.8,0.4-1.3c2.3,1,4.7,2,7.1,2.9
			C300.9,131.7,298.4,131.2,295.9,130.6z M296.9,127.2c0.1-0.5,0.2-0.8,0.4-1.3c2.3,1,4.6,1.9,7,2.8
			C301.8,128.3,299.3,127.8,296.9,127.2z M297.9,123.9c0.1-0.5,0.2-0.8,0.4-1.3c2.2,1,4.5,1.9,6.8,2.8
			C302.7,124.9,300.3,124.4,297.9,123.9z M298.8,120.5c0.1-0.5,0.2-0.8,0.4-1.3c2.2,1,4.4,1.9,6.7,2.7
			C303.5,121.5,301.2,121,298.8,120.5z M316.4,132.5c0.3,0.4,0.7,0.7,1.4,0.8c0.6,0.1,1.1,0.1,1.6-0.1l-0.2,0.8
			c-0.5,0.1-1.1,0.1-1.8,0c-0.9-0.2-1.5-0.5-1.9-1.1c-0.4-0.6-0.5-1.3-0.3-2.1c0.2-0.8,0.7-1.5,1.4-1.9c0.7-0.4,1.5-0.6,2.4-0.4
			c0.6,0.1,1,0.3,1.4,0.5l-0.2,0.8c-0.4-0.3-0.8-0.5-1.3-0.6c-0.7-0.1-1.2,0-1.7,0.3c-0.5,0.3-0.8,0.8-1,1.4
			C316.1,131.5,316.2,132.1,316.4,132.5z M323.6,135l-3.3-0.5l1.1-5.4l0.9,0.2l-1,4.7l2.4,0.4L323.6,135z M328.6,135.7l-0.3-1.5
			l-2.4-0.3l-0.8,1.3l-1-0.1l3.2-5.1l1.1,0.1l1.4,5.7L328.6,135.7z M334.4,131.8c-0.3-0.3-0.8-0.4-1.4-0.5c-0.4,0-0.7,0-0.9,0.1
			c-0.2,0.1-0.4,0.3-0.4,0.5c0,0.2,0,0.4,0.2,0.5s0.5,0.4,1,0.6c0.6,0.3,1,0.6,1.2,0.9c0.2,0.3,0.3,0.6,0.2,0.9
			c-0.1,0.5-0.3,0.9-0.7,1.1c-0.4,0.2-1,0.3-1.7,0.2c-0.3,0-0.5-0.1-0.9-0.2c-0.3-0.1-0.5-0.2-0.7-0.3l0.1-0.9
			c0.4,0.4,1,0.6,1.6,0.7c0.8,0.1,1.3-0.1,1.3-0.6c0-0.1,0-0.3-0.1-0.4c-0.1-0.1-0.2-0.2-0.3-0.3c-0.1-0.1-0.4-0.3-0.8-0.5
			c-0.5-0.3-0.9-0.6-1.1-0.8c-0.2-0.3-0.3-0.6-0.2-0.9c0.1-0.5,0.3-0.8,0.8-1c0.5-0.2,1-0.3,1.7-0.2c0.6,0.1,1.1,0.2,1.4,0.3
			L334.4,131.8z M339,132.1c-0.4-0.3-0.8-0.4-1.4-0.5c-0.4,0-0.7,0-0.9,0.1c-0.2,0.1-0.4,0.3-0.4,0.5c0,0.2,0,0.4,0.2,0.5
			c0.2,0.1,0.5,0.3,1,0.6c0.6,0.3,1,0.6,1.2,0.9c0.2,0.3,0.3,0.6,0.3,0.9c0,0.5-0.3,0.9-0.7,1.1c-0.4,0.2-1,0.3-1.7,0.3
			c-0.3,0-0.6-0.1-0.9-0.2c-0.3-0.1-0.6-0.2-0.7-0.3l0.1-0.9c0.4,0.4,1,0.6,1.6,0.6c0.8,0.1,1.2-0.2,1.3-0.7c0-0.1,0-0.3-0.1-0.4
			c-0.1-0.1-0.2-0.2-0.3-0.3c-0.1-0.1-0.4-0.3-0.9-0.5c-0.5-0.3-0.9-0.5-1.1-0.8c-0.2-0.3-0.3-0.6-0.2-0.9c0-0.5,0.3-0.8,0.7-1.1
			c0.4-0.2,1-0.3,1.6-0.3c0.6,0,1.1,0.1,1.4,0.3L339,132.1z M341.3,131.9L341.3,131.9L341,136v0l0,0.7l-1,0l0-0.7l0,0l0.3-4.1v0
			l0-0.7l1,0L341.3,131.9z M347,132.4c-0.4-0.2-0.9-0.3-1.4-0.4c-0.7,0-1.2,0.2-1.6,0.6c-0.4,0.4-0.6,0.9-0.7,1.5
			c0,0.6,0.2,1.1,0.5,1.5c0.4,0.4,0.9,0.6,1.5,0.6c0.6,0,1.1-0.1,1.6-0.3l0,0.8c-0.5,0.2-1,0.3-1.7,0.3c-0.9,0-1.6-0.3-2.1-0.8
			c-0.5-0.5-0.8-1.2-0.7-2c0-0.9,0.3-1.6,1-2.1c0.6-0.5,1.4-0.8,2.3-0.8c0.6,0,1.1,0.1,1.5,0.3L347,132.4z M358.1,136.5l-0.3-3.5
			c0-0.3,0-0.7,0-1.1l0,0c-0.1,0.3-0.1,0.5-0.1,0.6l-1.6,4.2l-0.6,0l-2.2-3.9c-0.1-0.1-0.1-0.3-0.2-0.6l0,0c0.1,0.3,0.1,0.7,0.1,1.2
			l0.3,3.4l-0.9,0.1l-0.4-5.5l1.3-0.1l1.9,3.5c0.2,0.3,0.3,0.5,0.3,0.7l0,0c0-0.2,0.1-0.4,0.2-0.7l1.4-3.7l1.3-0.1l0.4,5.5
			L358.1,136.5z M365.3,135c-0.5,0.6-1.1,0.9-2,1c-0.9,0.1-1.6-0.1-2.2-0.5c-0.6-0.4-1-1.1-1.1-1.9c-0.1-0.9,0-1.6,0.5-2.2
			c0.5-0.6,1.2-0.9,2.1-1.1c0.9-0.1,1.6,0.1,2.2,0.5c0.6,0.5,1,1.1,1.1,1.9C365.9,133.7,365.7,134.4,365.3,135z M369.8,135.1
			l-1.1,0.2l-3.2-5.1l1-0.1l2.3,3.9c0.1,0.1,0.2,0.3,0.2,0.5l0,0c0-0.2,0-0.3,0-0.5l0.8-4.3l1-0.1L369.8,135.1z M372.8,134.7
			l-0.1-0.7l0,0l-0.8-4v0l-0.1-0.7l0.9-0.2l0.1,0.7l0,0l0.8,4v0l0.1,0.7L372.8,134.7z M375.2,134.2l-1.2-5.4l3.2-0.6l0.2,0.7
			l-2.3,0.4l0.4,1.6l2.1-0.4l0.2,0.7l-2.1,0.4l0.4,1.7l2.4-0.4l0.2,0.7L375.2,134.2z M382.5,132.5c-0.3,0.3-0.8,0.6-1.5,0.7
			c-0.3,0.1-0.5,0.1-0.9,0.1c-0.3,0-0.6,0-0.8-0.1l-0.2-0.9c0.5,0.2,1.1,0.3,1.8,0.2c0.8-0.2,1.1-0.5,1-1c0-0.1-0.1-0.3-0.2-0.4
			c-0.1-0.1-0.3-0.2-0.4-0.2c-0.2-0.1-0.5-0.1-1-0.2c-0.6-0.1-1-0.3-1.3-0.5c-0.3-0.2-0.5-0.5-0.5-0.8c-0.1-0.5,0-0.9,0.3-1.2
			c0.3-0.3,0.8-0.6,1.5-0.7c0.6-0.1,1.1-0.1,1.4-0.1l0.2,0.8c-0.4-0.2-0.9-0.2-1.5-0.1c-0.4,0.1-0.6,0.2-0.8,0.4
			c-0.2,0.2-0.2,0.4-0.2,0.6c0.1,0.2,0.2,0.3,0.4,0.4c0.2,0.1,0.6,0.2,1.1,0.3c0.7,0.1,1.1,0.3,1.4,0.5c0.3,0.2,0.5,0.5,0.6,0.8
			C382.9,131.8,382.8,132.2,382.5,132.5z M395.4,119.2c0.1,0.5,0.2,0.8,0.4,1.3c-2.3,0.5-4.7,1-7.1,1.5
			C391,121.1,393.2,120.2,395.4,119.2z M398.7,130.6c-2.5,0.6-5,1.1-7.5,1.6c2.4-0.9,4.8-1.8,7.1-2.9
			C398.5,129.8,398.6,130.1,398.7,130.6z M397.7,127.2c-2.4,0.6-4.9,1.1-7.3,1.5c2.3-0.9,4.7-1.8,7-2.8
			C397.5,126.5,397.6,126.7,397.7,127.2z M389.6,125.3c2.3-0.9,4.6-1.8,6.8-2.8c0.1,0.5,0.2,0.8,0.4,1.3
			C394.4,124.4,392,124.9,389.6,125.3z"/>
		<path class="st1" d="M327.7,130.8L327.7,130.8c-0.1,0.2-0.1,0.3-0.2,0.4l-1.2,2l1.9,0.3l-0.5-2.3
			C327.7,131.1,327.7,131,327.7,130.8z"/>
		<path class="st1" d="M364.1,131.6c-0.4-0.3-0.9-0.5-1.5-0.4c-0.6,0.1-1,0.3-1.3,0.7c-0.3,0.4-0.4,0.9-0.3,1.6
			c0.1,0.6,0.3,1.1,0.7,1.4c0.4,0.3,0.9,0.5,1.5,0.4c0.6-0.1,1.1-0.3,1.4-0.7c0.3-0.4,0.4-0.9,0.3-1.6
			C364.7,132.4,364.5,131.9,364.1,131.6z"/>
		<path class="st1" d="M399.9,125.3c4.2-1.5,8.4-3.1,12.5-4.9c-2.8-1.5-5.6-3.1-8.3-4.8c1-3.2,1.9-6.3,2.8-9.5
			c-5.9,2.5-11.9,4.8-18.1,6.7c2.8,1.3,5.6,2.5,8.5,3.6C398.1,119.3,399,122.3,399.9,125.3z"/>
		<path class="st1" d="M395.7,116.8c-2.2-0.8-4.4-1.7-6.6-2.7c0.5,1.8,0.7,2.6,1.1,4.4C392.4,117.9,393.5,117.6,395.7,116.8z"/>
	</g>
	<path class="st1" d="M336.9,61.1l-3.6,3.3h-8.2v33.5h-3.7V64.4h-17.6l3.6-3.3H336.9z"/>
	<path class="st1" d="M347.4,84.3c-1.6,3.9-5.2,6.7-9.4,6.7c-5.7,0-10.4-5.1-10.4-11.5s4.6-11.5,10.4-11.5c4.4,0,8.1,3,9.6,7.2h2.8
		c-1.6-5.8-6.6-10.1-12.4-10.1c-7.2,0-13,6.4-13,14.3c0,7.9,5.8,14.3,13,14.3c5.6,0,10.4-4,12.2-9.5H347.4z"/>
	<g>
		<path class="st1" d="M352.1,80.7v15.2H351V60.8h14.5V63h-13.4v14.2"/>
		<path class="st1" d="M352.1,63v32.9h2.6V63H352.1z M354.3,95.2h-1.8v-1.8h1.8V95.2z M354.3,90.9h-1.8v-1.8h1.8V90.9z M354.3,86.7
			h-1.8V85h1.8V86.7z M354.3,82.5h-1.8v-1.8h1.8V82.5z M354.3,78.3h-1.8v-1.8h1.8V78.3z M354.3,74h-1.8v-1.8h1.8V74z M354.3,69.8
			h-1.8v-1.8h1.8V69.8z M354.3,65.6h-1.8v-1.8h1.8V65.6z"/>
		<rect x="354.7" y="74" class="st1" width="9.7" height="2.3"/>
	</g>
	<polyline class="st1" points="368.1,82.3 381.4,82.3 381.4,79.4 368.1,79.4 368.1,68 381.4,68 381.4,64.7 365.5,64.7 365.5,100.9 
		368.1,100.9 	"/>
	<circle class="st1" cx="337.7" cy="79.5" r="3.6"/>
	<rect x="274.2" y="101.2" class="st1" width="148.7" height="2"/>
	<rect x="274.2" y="116.2" class="st1" width="148.7" height="2"/>
	<polygon class="st1" points="371.6,70.4 371.6,78.2 375.8,78.2 381.4,70.4 	"/>
	<polygon class="st1" points="313.1,66.5 319.4,75.2 319.4,66.5 	"/>
	<polygon class="st1" points="356.5,88.2 358.3,81.8 356.5,81.8 	"/>
	<path class="st1" d="M359.4,92.2c1.4,0.3,2.8,0.6,4.1,1V82.8L359.4,92.2z"/>
	<path class="st1" d="M368.7,61.7h4.2l6.2-14.2L369,43.8l-4.3,15.5h1.5C367.4,59.3,368.5,60.3,368.7,61.7z"/>
	<path class="st1" d="M347.3,61.9c0-1.4,1.1-2.6,2.6-2.6h2.9l1.2-18.1h-10.7l1.6,21.7c0.9,0.5,1.7,1.1,2.5,1.8V61.9z"/>
	<path class="st1" d="M386.5,67.8c0,1.4-1.1,2.6-2.6,2.6h-2.5l-5.6,7.8h8.1c0.4,0,0.7,0.1,1,0.2l15.6-16.3l-8.2-6.9l-6,8.3
		c0.1,0.2,0.1,0.5,0.1,0.8V67.8z"/>
	<path class="st1" d="M381.2,102.9c-0.6-0.6-1.2-1.2-1.9-1.8l36.5-18l-5.4-9.3L375,98c-1.1-0.7-2.2-1.3-3.4-1.9v1.5
		c2.9,1.5,5.4,3.2,7.6,5.2"/>
	<path class="st1" d="M359.4,92.2l4.1-9.4v-1h-5.2l-1.8,6.4v4.9c2.4,0.3,4.8,0.8,7,1.4v-1.4C362.2,92.8,360.8,92.5,359.4,92.2z"/>
	<polygon class="st1" points="328.1,43.8 318,47.5 322.8,58.3 332.3,58.3 	"/>
	<path class="st1" d="M317.6,103.2c1.7-1.6,3.7-3,5.8-4.2H322c-1.4,0-2.6-1.1-2.6-2.6v-0.7l-32.8-21.9l-5.4,9.3l37,17.8
		c-0.7,0.6-1.4,1.2-2.1,1.8"/>
	<path class="st1" d="M313.1,66.5h-10.9c-1.1,0-2.1-0.7-2.4-1.7c-0.4-1,0-2.2,0.8-2.9l4-3.1c0.5-0.4,1-0.5,1.6-0.5h0.8l-2.3-3.1
		l-8.2,6.9l22.9,23.5V75.2L313.1,66.5z"/>
</g>
<g>
	<path class="st1" d="M648.4,233.8l-0.7-0.6c1-1,2-2.5,2-4.8c0-2.3-1.3-4.1-3.4-4.1c-2.1,0-3.6,1.8-3.6,6.1h-0.9
		c0-4-1.5-5.6-3.3-5.6c-1.7,0-2.9,1.5-2.9,3.6c0,1.6,0.7,3.1,1.7,4.1l-0.7,0.6c-1-1.1-1.9-2.8-1.9-4.7c0-2.6,1.4-4.7,3.7-4.7
		c2,0,3.2,1.5,3.8,3.5h0.1c0.4-2.1,1.8-4,4-4c2.7,0,4.3,2.3,4.3,5.2C650.5,231.1,649.4,232.7,648.4,233.8z"/>
	<path class="st1" d="M638.7,211.8c-0.8,0-1.6-0.1-2.3-0.1v0.1c0.7,0.5,1.3,1,2,1.5l6.3,5.2v-10.4h0.9V220H645l-10.1-8.4v-0.8h15.4
		v1H638.7z"/>
	<path class="st1" d="M635.9,195.3v9.5h-1V194h0.6c4.9,4.2,8.7,5.4,14.7,5.6v1.2C644,200.5,640.3,199,635.9,195.3z"/>
	<path class="st1" d="M649.6,190.3c-5.1-5.7-7.9-8.5-10.6-8.5c-1.9,0-3.4,1.1-3.4,3.8c0,1.6,0.9,3,2,4l-0.7,0.7
		c-1.3-1.3-2.3-2.8-2.3-4.8c0-3,1.7-4.8,4.3-4.8c3.1,0,6,3,10.5,7.9c-0.1-1-0.1-1.9-0.1-2.9v-5.9h1v10.4H649.6z"/>
	<path class="st1" d="M646.3,176.1c-2.3,0-3.5-1.8-4.3-3.5h-0.1c-0.7,1.3-1.9,2.4-3.6,2.4c-2.2,0-3.8-1.9-3.8-4.4c0-3,1.7-4.6,4-4.6
		c1.5,0,2.9,1.1,3.9,2.4h0.1c0.9-1.7,1.7-3.1,3.9-3.1c2.2,0,4,1.9,4,5.3C650.5,173.9,648.7,176.1,646.3,176.1z M638.7,166.9
		c-1.7,0-3.1,1.3-3.1,3.6c0,2,1.2,3.4,2.9,3.4c2.2,0,3-2.1,3.8-4.6C641.2,167.7,640,166.9,638.7,166.9z M646.5,166.3
		c-2.6,0-3.2,2.5-4.1,5.5c0.9,1.9,2,3.3,3.9,3.3c1.9,0,3.4-1.7,3.4-4.5C649.7,167.7,648.3,166.3,646.5,166.3z"/>
	<path class="st1" d="M642.5,161.5c-5.1,0-7.9-1.9-7.9-5.3s2.8-5.3,7.9-5.3c5.1,0,8,1.9,8,5.3S647.6,161.5,642.5,161.5z M642.5,152
		c-4.7,0-7,1.7-7,4.2s2.3,4.2,7,4.2c4.7,0,7.1-1.7,7.1-4.2S647.2,152,642.5,152z M642.3,157.5c-0.9,0-1.4-0.6-1.4-1.3
		c0-0.7,0.5-1.3,1.4-1.3c0.9,0,1.5,0.6,1.5,1.3C643.8,156.9,643.3,157.5,642.3,157.5z"/>
	<path class="st1" d="M642.5,147.1c-5.1,0-7.9-1.9-7.9-5.3s2.8-5.3,7.9-5.3c5.1,0,8,1.9,8,5.3S647.6,147.1,642.5,147.1z
		 M642.5,137.6c-4.7,0-7,1.7-7,4.2s2.3,4.2,7,4.2c4.7,0,7.1-1.7,7.1-4.2S647.2,137.6,642.5,137.6z M642.3,143.1
		c-0.9,0-1.4-0.6-1.4-1.3c0-0.7,0.5-1.3,1.4-1.3c0.9,0,1.5,0.6,1.5,1.3C643.8,142.5,643.3,143.1,642.3,143.1z"/>
	<path class="st1" d="M649.3,132v-4.6h-12.7v3.4h-0.7c-0.2-1.6-0.5-2.8-1-3.7v-0.8h14.4v-4.3h0.9v10H649.3z"/>
	<path class="st1" d="M649.6,118.3c-5.1-5.7-7.9-8.5-10.6-8.5c-1.9,0-3.4,1.1-3.4,3.8c0,1.6,0.9,3,2,4l-0.7,0.7
		c-1.3-1.3-2.3-2.8-2.3-4.8c0-3,1.7-4.8,4.3-4.8c3.1,0,6,3,10.5,7.9c-0.1-1-0.1-1.9-0.1-2.9v-5.9h1v10.4H649.6z"/>
</g>
<g>
	<path class="st1" d="M55.4,107.4l0.7,0.6c-1,1-2,2.5-2,4.8c0,2.4,1.3,4.1,3.4,4.1c2.1,0,3.6-1.8,3.6-6.1h0.9c0,4,1.5,5.6,3.3,5.6
		c1.7,0,2.9-1.5,2.9-3.6c0-1.6-0.7-3.1-1.7-4.1l0.7-0.6c1,1.1,1.9,2.8,1.9,4.7c0,2.6-1.4,4.7-3.7,4.7c-2,0-3.2-1.5-3.8-3.5h-0.1
		c-0.4,2.1-1.8,4-4,4c-2.7,0-4.3-2.3-4.3-5.2C53.3,110.2,54.4,108.5,55.4,107.4z"/>
	<path class="st1" d="M65.1,129.4c0.8,0,1.6,0.1,2.3,0.1v-0.1c-0.7-0.5-1.3-1-2-1.5l-6.3-5.2v10.4h-0.9v-11.9h0.7l10.1,8.4v0.8H53.6
		v-1H65.1z"/>
	<path class="st1" d="M68,145.9v-9.5h1v10.9h-0.6c-4.9-4.2-8.7-5.4-14.7-5.6v-1.2C59.8,140.7,63.5,142.3,68,145.9z"/>
	<path class="st1" d="M54.2,151c5.1,5.7,7.9,8.5,10.6,8.5c1.9,0,3.4-1.1,3.4-3.8c0-1.6-0.9-3-2-4l0.7-0.7c1.3,1.3,2.3,2.8,2.3,4.8
		c0,3-1.7,4.8-4.3,4.8c-3.1,0-6-3-10.5-7.9c0.1,1,0.1,1.9,0.1,2.9v5.9h-1V151H54.2z"/>
	<path class="st1" d="M57.5,165.2c2.3,0,3.5,1.8,4.3,3.5h0.1c0.7-1.3,1.9-2.4,3.6-2.4c2.2,0,3.8,1.9,3.8,4.4c0,3-1.7,4.6-4,4.6
		c-1.5,0-2.9-1.1-3.9-2.4h-0.1c-0.9,1.7-1.7,3.1-3.9,3.1c-2.2,0-4-1.9-4-5.3C53.3,167.3,55.1,165.2,57.5,165.2z M57.3,175
		c2.6,0,3.2-2.5,4.1-5.5c-0.9-1.9-2-3.3-3.9-3.3c-1.9,0-3.4,1.7-3.4,4.5C54.2,173.5,55.5,175,57.3,175z M65.2,174.3
		c1.7,0,3.1-1.3,3.1-3.6c0-2-1.2-3.4-2.9-3.4c-2.2,0-3,2.1-3.8,4.6C62.7,173.5,63.8,174.3,65.2,174.3z"/>
	<path class="st1" d="M61.3,179.7c5.1,0,7.9,1.9,7.9,5.3c0,3.3-2.8,5.3-7.9,5.3c-5.1,0-8-1.9-8-5.3
		C53.3,181.7,56.2,179.7,61.3,179.7z M61.3,189.2c4.7,0,7-1.7,7-4.2c0-2.5-2.3-4.2-7-4.2c-4.7,0-7.1,1.7-7.1,4.2
		C54.2,187.5,56.6,189.2,61.3,189.2z M61.5,183.7c0.9,0,1.4,0.6,1.4,1.3c0,0.7-0.5,1.3-1.4,1.3c-0.9,0-1.5-0.6-1.5-1.3
		C60.1,184.3,60.6,183.7,61.5,183.7z"/>
	<path class="st1" d="M61.3,194.1c5.1,0,7.9,1.9,7.9,5.3c0,3.3-2.8,5.3-7.9,5.3c-5.1,0-8-1.9-8-5.3
		C53.3,196.1,56.2,194.1,61.3,194.1z M61.3,203.6c4.7,0,7-1.7,7-4.2c0-2.5-2.3-4.2-7-4.2c-4.7,0-7.1,1.7-7.1,4.2
		C54.2,201.9,56.6,203.6,61.3,203.6z M61.5,198.1c0.9,0,1.4,0.6,1.4,1.3c0,0.7-0.5,1.3-1.4,1.3c-0.9,0-1.5-0.6-1.5-1.3
		C60.1,198.7,60.6,198.1,61.5,198.1z"/>
	<path class="st1" d="M54.5,209.2v4.6h12.7v-3.5h0.7c0.2,1.6,0.5,2.8,1,3.7v0.8H54.5v4.3h-0.9v-10H54.5z"/>
	<path class="st1" d="M54.2,223c5.1,5.7,7.9,8.5,10.6,8.5c1.9,0,3.4-1.1,3.4-3.8c0-1.6-0.9-3-2-4l0.7-0.7c1.3,1.3,2.3,2.8,2.3,4.8
		c0,3-1.7,4.8-4.3,4.8c-3.1,0-6-3-10.5-7.9c0.1,1,0.1,1.9,0.1,2.9v5.9h-1V223H54.2z"/>
</g>
<line class="st2" x1="605.6" y1="53.4" x2="605.6" y2="279.4"/>
<line class="st2" x1="92.3" y1="53.4" x2="92.3" y2="279.4"/>
</svg>
