<?xml version="1.0" encoding="utf-8"?>
<!-- Generator: Adobe Illustrator 22.0.0, SVG Export Plug-In . SVG Version: 6.00 Build 0)  -->
<svg version="1.1" id="圖層_1" xmlns="http://www.w3.org/2000/svg" xmlns:xlink="http://www.w3.org/1999/xlink" x="0px" y="0px"
	 viewBox="0 0 698 338.1" style="enable-background:new 0 0 698 338.1;" xml:space="preserve">
<style type="text/css">
	.st0{fill:#E3E0D9;}
	.st1{fill:#8E5F59;}
	.st2{fill:none;stroke:#8E5F59;stroke-width:2;stroke-miterlimit:10;}
</style>
<g>
	<path class="st0" d="M677.5,85.1c0-6.1,0-10.8,0-13.1c-20,0.3-24.4-2.9-42.9-11.9c-18.5-9-24.4-35.4-24.4-35.4H89.1
		C90.2,74.1,20.3,72,20.3,72v13.1c7.2,0,13,5.8,13,13c0,7.2-5.8,13-13,13v10.3c7.2,0,13,5.8,13,13c0,7.2-5.8,13-13,13v10.3
		c7.2,0,13,5.8,13,13s-5.8,13-13,13v10.3c7.2,0,13,5.8,13,13c0,7.2-5.8,13-13,13v10.3c7.2,0,13,5.8,13,13s-5.8,13-13,13v10.6
		c0,0,69.9-2.1,68.7,47.3h521.1c0,0,5.9-26.5,24.4-35.4c18.5-9,22.9-12.2,42.9-11.9c0-2,0-5.8,0-10.6c-7.2,0-13-5.8-13-13
		s5.8-13,13-13c0-3.4,0-6.8,0-10.3c-7.2,0-13-5.8-13-13c0-7.2,5.8-13,13-13c0-3.7,0-7.2,0-10.3c-7.2,0-13-5.8-13-13s5.8-13,13-13
		c0-3,0-6.5,0-10.3c-7.2,0-13-5.8-13-13c0-7.2,5.8-13,13-13c0-3.4,0-6.9,0-10.3c-7.2,0-13-5.8-13-13
		C664.5,90.9,670.3,85.1,677.5,85.1z"/>
	<g>
		<path class="st1" d="M208.8,182.3c-0.2,4.6-0.8,8.6-1.9,11.9l-3.3-1.7c1-2.8,1.5-6.4,1.8-10.9L208.8,182.3z M219.7,187.9l-2.6,2.9
			c-0.8-1.3-1.8-2.6-3-3.8v26.7h-4.2v-41.7h4.2v9.5C216.3,183.6,218.2,185.8,219.7,187.9z M245.7,196.3h-15
			c-1.2,7.1-5.3,13.1-12.5,17.8l-3.1-3.4c6.4-3.8,10.1-8.6,11.1-14.4h-10v-4.2h10.6c0.2-2.2,0.3-5.3,0.3-9.1h-8.7v-4.1h8.7
			c0.1-2.5,0.1-4.7,0.1-6.8h4.2c0,2.5,0,4.8,0,6.8h10.9v13.3h3.3V196.3z M246.1,211.3l-3.4,2.9c-3.3-4.2-7.2-8.2-11.8-11.9l3-2.9
			C238.8,203.1,242.9,207.1,246.1,211.3z M238.1,192.2v-9.1h-6.6c-0.1,4-0.2,7.1-0.3,9.1H238.1z"/>
		<path class="st1" d="M330.2,209.2l-1.2,4.2c-2,0.1-4.3,0.1-6.9,0.1c-3.5,0-7.3-0.1-11.1-0.2s-6.9-0.5-9.1-1.3s-4.2-1.9-6-3.3
			c-1.5,2.2-2.9,4.1-4.4,5.8l-3.4-2.6c4.2-4.3,6.8-8.9,8-13.8h-7.2v-3.9c2.6-2.6,4.8-5.4,6.6-8.2H288v-3.9h12.3v3.9
			c-1.6,2.5-3.6,5.3-6.2,8.2h6.3v4c-0.5,2.4-1.4,4.7-2.6,7.1c3.1,2.8,7.2,4.2,12.2,4.2C316.7,209.5,323.4,209.4,330.2,209.2z
			 M299.4,177.9l-3,3.1c-1.7-2-4.3-4.1-7.6-6.2l2.8-3.1C294.6,173.4,297.1,175.4,299.4,177.9z M330,203.5l-2.2,3.4
			c-3-2.4-6.3-4.7-9.8-6.8v7.7h-4.2v-8.5c-3.2,3.2-6.6,5.9-10.2,8l-2.7-3.4c5-2.6,8.7-5.5,11.2-8.6h-8.3v-12h10v-3.2h-11.6v-3.8
			h11.6v-4.1h4.2v4.1h11.7v3.8h-11.7v3.2h10.1v12h-10.1v0.5C323,198.5,327,201.1,330,203.5z M313.9,191.6v-4.9h-6v4.9H313.9z
			 M324,191.6v-4.9h-6v4.9H324z"/>
		<path class="st1" d="M385.2,202.4h-8.7l2.7,1.7c-1.2,4.1-2.6,7.4-4.2,9.9l-3.5-2.5c1.8-2.9,3.1-5.9,4-9.2h-2.4v-29.2h12V202.4z
			 M381.3,181.8v-4.5h-4.1v4.5H381.3z M381.3,190.1v-4.6h-4.1v4.6H381.3z M381.3,198.5v-4.7h-4.1v4.7H381.3z M387.2,211.2l-3.8,1.6
			c-0.7-2.6-1.8-5.3-3.5-8.1l3.5-1.6C384.8,205.2,386,207.9,387.2,211.2z M413.9,206.4h-3v3.1c0,1.6-0.3,2.7-1,3.5s-2,1.1-4,1.1
			c-0.8,0-1.8-0.1-3-0.2l-1.4-4c0.8,0.1,1.6,0.1,2.6,0.1c1.4,0,2.2-0.1,2.4-0.2s0.3-0.4,0.3-0.8v-2.5h-13.6v7.6H389v-7.6h-2.8V203
			h2.8V192h9v-2.6h-11.7V186h6.3v-2.3h-4v-3.1h4v-2.3h-5.1v-3.3h5.1v-2.7h4.1v2.7h6.9v-2.7h4.1v2.7h5.7v3.3h-5.7v2.3h3.9v3.1h-3.9
			v2.3h6.1v3.4h-11.6v2.6h8.6V203h3V206.4z M398.1,197.6v-2.2h-4.9v2.2H398.1z M398.1,203v-2.2h-4.9v2.2H398.1z M403.7,180.4v-2.2
			h-6.9v2.2H403.7z M403.7,186v-2.3h-6.9v2.3H403.7z M406.8,197.6v-2.2h-4.5v2.2H406.8z M406.8,203v-2.2h-4.5v2.2H406.8z"/>
		<path class="st1" d="M471.6,205c-3.1,3.3-7.5,6.1-13.4,8.7l-2.3-3.4c5.6-2.5,9.7-5,12.2-7.7L471.6,205z M497.8,176.5h-13.3v2.6
			h10.9v10.2h-36.9v-10.2h10.9v-2.6H456v-3.7h41.8V176.5z M497.9,201.6h-18.7v12.5h-4.4v-12.5H456v-3.7h41.9V201.6z M494.7,195.3
			h-35.3v-3.6h35.3V195.3z M469.4,185.8v-3.3h-6.7v3.3H469.4z M480.3,179.1v-2.6h-6.7v2.6H480.3z M480.3,185.8v-3.3h-6.7v3.3H480.3z
			 M498.3,210.7l-2.8,3.2c-4.1-3-8.5-5.8-13.1-8.3l2.8-3C489.7,204.8,494.1,207.5,498.3,210.7z M491.2,185.8v-3.3h-6.7v3.3H491.2z"
			/>
	</g>
	<g>
		<path class="st1" d="M305.4,238.6h-6.2v5.6h5.8v1.6h-5.8v7.1h-1.7V237h8V238.6z"/>
		<path class="st1" d="M307.6,242.3c1.1-0.7,2.4-1.1,3.8-1.1c2.6,0,3.9,1.4,3.9,4.2v7.4h-1.7v-1.8h-0.1c-0.8,1.4-1.9,2.1-3.5,2.1
			c-1.1,0-2-0.3-2.7-0.9c-0.6-0.6-1-1.4-1-2.4c0-2.1,1.2-3.3,3.7-3.7l3.4-0.5c0-2-0.8-3-2.4-3c-1.4,0-2.6,0.5-3.7,1.4V242.3z
			 M310.9,247.5c-1,0.1-1.6,0.4-2,0.7c-0.4,0.3-0.6,0.9-0.6,1.6c0,0.6,0.2,1,0.6,1.4c0.4,0.4,0.9,0.5,1.6,0.5c0.9,0,1.7-0.3,2.3-1
			c0.6-0.7,0.9-1.5,0.9-2.4v-1.1L310.9,247.5z"/>
		<path class="st1" d="M318.1,250.6c1,0.7,2.1,1.1,3.3,1.1c1.6,0,2.4-0.5,2.4-1.6c0-0.5-0.2-0.9-0.5-1.2c-0.4-0.3-1-0.6-2.1-1
			c-1.2-0.5-2-1-2.5-1.5s-0.6-1.1-0.6-1.8c0-1,0.4-1.8,1.2-2.4c0.8-0.6,1.9-0.9,3.1-0.9c1,0,1.8,0.2,2.6,0.5v1.8
			c-0.8-0.5-1.8-0.8-2.9-0.8c-0.7,0-1.2,0.2-1.6,0.5c-0.4,0.3-0.6,0.7-0.6,1.2s0.1,0.9,0.4,1.1c0.3,0.3,0.9,0.6,2,1
			c1.3,0.5,2.2,1,2.6,1.5c0.4,0.5,0.7,1.1,0.7,1.9c0,1-0.4,1.8-1.2,2.4c-0.8,0.6-1.9,0.9-3.2,0.9c-1.2,0-2.2-0.2-3-0.7V250.6z"/>
		<path class="st1" d="M333.6,252.8c-0.4,0.2-1,0.4-1.7,0.4c-1.9,0-2.9-1.1-2.9-3.3V243h-2v-1.5h2v-2.8l1.7-0.6v3.3h2.9v1.5h-2.9
			v6.5c0,0.8,0.1,1.3,0.4,1.7s0.7,0.5,1.3,0.5c0.5,0,0.9-0.1,1.2-0.4V252.8z"/>
		<path class="st1" d="M356,238.6h-4.6v14.3h-1.8v-14.3h-4.6V237H356V238.6z"/>
		<path class="st1" d="M358.1,237.5c0-0.3,0.1-0.6,0.3-0.8c0.2-0.2,0.5-0.3,0.8-0.3c0.3,0,0.6,0.1,0.8,0.3c0.2,0.2,0.3,0.5,0.3,0.8
			c0,0.3-0.1,0.6-0.3,0.8c-0.2,0.2-0.5,0.3-0.8,0.3c-0.3,0-0.6-0.1-0.8-0.3C358.2,238,358.1,237.8,358.1,237.5z M358.3,252.9v-11.3
			h1.7v11.3H358.3z"/>
		<path class="st1" d="M371.4,252.3c-0.9,0.5-1.9,0.8-3.1,0.8c-1.6,0-2.9-0.5-3.9-1.6c-1-1-1.5-2.4-1.5-4.1c0-1.9,0.5-3.4,1.6-4.5
			c1.1-1.1,2.5-1.7,4.3-1.7c1,0,1.8,0.2,2.6,0.6v1.8c-0.8-0.6-1.8-0.9-2.7-0.9c-1.2,0-2.1,0.4-2.9,1.3c-0.8,0.8-1.1,2-1.1,3.3
			c0,1.4,0.4,2.4,1.1,3.2c0.7,0.8,1.7,1.2,2.8,1.2c1,0,1.9-0.3,2.8-1V252.3z"/>
		<path class="st1" d="M383.5,252.9h-2.4l-5.1-5.4h-0.1v5.4h-1.7v-16.8h1.7v10.6h0.1l4.8-5.2h2.3l-5.3,5.5L383.5,252.9z"/>
		<path class="st1" d="M394,247.6h-8c0,1.3,0.4,2.3,1,3s1.6,1,2.7,1c1.3,0,2.5-0.4,3.5-1.3v1.6c-1,0.7-2.3,1.1-3.9,1.1
			c-1.6,0-2.8-0.5-3.7-1.5c-0.9-1-1.4-2.5-1.4-4.4c0-1.7,0.5-3.1,1.5-4.3c1-1.1,2.2-1.7,3.7-1.7c1.5,0,2.6,0.5,3.4,1.4
			s1.2,2.3,1.2,4V247.6z M392.2,246.1c0-1.1-0.3-1.9-0.8-2.5s-1.2-0.9-2.1-0.9c-0.8,0-1.6,0.3-2.2,0.9c-0.6,0.6-1,1.4-1.2,2.5H392.2
			z"/>
		<path class="st1" d="M401.9,252.8c-0.4,0.2-1,0.4-1.7,0.4c-1.9,0-2.9-1.1-2.9-3.3V243h-2v-1.5h2v-2.8l1.7-0.6v3.3h2.9v1.5H399v6.5
			c0,0.8,0.1,1.3,0.4,1.7s0.7,0.5,1.3,0.5c0.5,0,0.9-0.1,1.2-0.4V252.8z"/>
	</g>
	<rect x="130.4" y="160.3" class="st1" width="440.7" height="6"/>
	<rect x="130.4" y="222.3" class="st1" width="440.7" height="6"/>
	<g>
		<path class="st1" d="M320,111.9l-0.5,0.4c-0.2-0.4-0.5-0.7-0.9-1.1c-2.2,0.5-4.8,0.7-7.8,0.9l-0.2-0.5c1.6-1.2,2.7-2.5,3.3-3.7
			l0.6,0.2c-0.6,1.1-1.6,2.2-2.9,3.4c2.4-0.1,4.5-0.3,6.4-0.7c-0.4-0.5-1-1-1.7-1.6l0.5-0.4C318.2,109.7,319.2,110.8,320,111.9z
			 M319,117.3h-0.6v-0.7h-6.2v0.7h-0.6v-4.2h7.4V117.3z M318.4,116v-2.4h-6.2v2.4H318.4z"/>
		<path class="st1" d="M326.2,115.8c-1.9,0.7-3.5,1.2-4.7,1.4l-0.2-0.6c0.9-0.2,1.9-0.5,3-0.8v-4.1h-2.8v-0.6h2.8v-3.3h0.6v7.8
			c0.4-0.1,0.8-0.3,1.3-0.4V115.8z M330.7,114.4c0,0.4,0,0.9-0.1,1.3c-0.1,0.5-0.1,0.7-0.2,0.8s-0.1,0.2-0.2,0.3s-0.2,0.2-0.4,0.2
			s-0.4,0.1-0.9,0.1c-0.8,0-1.4,0-1.5-0.1c-0.2-0.1-0.3-0.2-0.4-0.3s-0.1-0.3-0.1-0.5v-8.3h0.6v3.3h3.1v0.6h-3.1v4.5
			c0,0.1,0,0.2,0.1,0.2s0.5,0.1,1.2,0.1c0.5,0,0.8,0,0.8-0.1s0.2-0.1,0.2-0.2c0.1-0.1,0.1-0.3,0.2-0.7s0.1-0.9,0.1-1.4L330.7,114.4z
			"/>
		<path class="st1" d="M333.4,114.7c-0.2,1-0.4,1.8-0.7,2.5l-0.5-0.2c0.3-0.6,0.5-1.4,0.7-2.3L333.4,114.7z M335.9,113.9l-0.5,0.2
			c0-0.2-0.1-0.4-0.1-0.5c-1.1,0.3-2,0.5-2.9,0.7l-0.2-0.5c0.8-0.7,1.5-1.6,2.1-2.6c-0.6,0.1-1.2,0.2-1.9,0.3l-0.1-0.5
			c0.8-0.9,1.4-2,1.9-3.2l0.5,0.1c-0.4,1-0.9,2-1.6,3c0.4-0.1,1-0.1,1.6-0.2c0.2-0.3,0.5-0.8,0.7-1.2l0.5,0.2
			c-0.9,1.7-1.8,3-2.7,3.9c0.6-0.1,1.3-0.3,1.9-0.5c-0.1-0.2-0.2-0.5-0.3-0.8l0.5-0.2C335.6,112.9,335.8,113.4,335.9,113.9z
			 M334.7,116.9l-0.5,0.1c0-0.7-0.1-1.4-0.2-2.3l0.5-0.1C334.6,115.5,334.7,116.2,334.7,116.9z M336.1,116l-0.5,0.2
			c-0.1-0.5-0.3-1.1-0.5-1.5l0.5-0.2C335.9,114.9,336,115.4,336.1,116z M337.7,113.1l-0.5,0.2c-0.4-0.8-0.9-1.5-1.3-2.1
			c0.5-0.7,0.9-1.4,1.2-2l0.5,0.2c-0.3,0.7-0.7,1.3-1.1,1.8C336.9,111.8,337.3,112.4,337.7,113.1z M341.5,117H336v-0.5h2.5v-2.2
			h-2.2v-0.5h5v0.5H339v2.2h2.5V117z M341.4,108.7H336v-0.5h5.4V108.7z M339.6,113l-0.5,0.3c-0.4-0.7-0.8-1.4-1.3-2
			c0.5-0.7,0.9-1.4,1.1-1.9l0.5,0.2c-0.3,0.6-0.7,1.2-1.1,1.7C338.9,111.9,339.3,112.4,339.6,113z M341.5,113.1l-0.5,0.3
			c-0.4-0.7-0.8-1.4-1.3-2c0.5-0.7,0.9-1.4,1.2-2l0.5,0.2c-0.3,0.7-0.7,1.2-1,1.8C340.9,112,341.2,112.6,341.5,113.1z"/>
		<path class="st1" d="M352.4,114.5h-9.5V114h0.9v-4.9h2.3v-1.3h0.5v1.3h1.8v-1.3h0.5v1.3h2.3v4.9h1.1V114.5z M346.6,115.5
			c-0.9,0.7-2.1,1.3-3.4,1.7l-0.3-0.5c1.3-0.4,2.4-1,3.3-1.6L346.6,115.5z M346.2,111.5v-1.9h-1.8v1.9H346.2z M346.2,114v-2h-1.8v2
			H346.2z M348.4,111.5v-1.9h-1.8v1.9H348.4z M348.4,114v-2h-1.8v2H348.4z M352.2,116.8l-0.4,0.5c-0.9-0.6-2-1.2-3.3-1.7l0.3-0.5
			C350.3,115.7,351.4,116.3,352.2,116.8z M350.8,111.5v-1.9H349v1.9H350.8z M350.8,114v-2H349v2H350.8z"/>
		<path class="st1" d="M362.9,111.7h-0.5v-1.8h-3.8v2.1H358v-2.1h-3.5v1.8h-0.6v-2.3h4.1v-0.8h-3.7v-0.5h8.2v0.5h-4v0.8h4.3V111.7z
			 M363.2,116c0,0.4-0.2,0.8-0.3,0.9c-0.2,0.2-0.5,0.3-0.9,0.3c-0.4,0-0.9,0-1.5,0c-0.5,0-0.9,0-1.4,0c-0.4,0-0.7-0.1-0.9-0.2
			c-0.1-0.1-0.2-0.4-0.2-0.7v-0.8h-3.4v-3.1h7.4v3.1h-3.4v0.8c0,0.1,0,0.2,0.1,0.2s0.3,0.1,0.7,0.1c0.4,0,0.8,0,1.3,0
			c0.8,0,1.3,0,1.5-0.1c0.1,0,0.3-0.1,0.3-0.3c0.1-0.2,0.1-0.4,0.1-0.7L363.2,116z M357.6,111.7c-0.9,0.2-1.7,0.4-2.4,0.4l-0.2-0.5
			c0.8,0,1.6-0.1,2.4-0.3L357.6,111.7z M357.6,110.6l-0.2,0.5c-0.6-0.1-1.4-0.3-2.3-0.3l0.2-0.5
			C356.2,110.3,356.9,110.4,357.6,110.6z M358,113.7v-0.8h-2.9v0.8H358z M358,115v-0.8h-2.9v0.8H358z M361.5,113.7v-0.8h-2.9v0.8
			H361.5z M361.5,115v-0.8h-2.9v0.8H361.5z M361.8,111.7l-0.2,0.5c-0.8-0.2-1.6-0.3-2.5-0.4l0.2-0.4
			C360.3,111.4,361.2,111.5,361.8,111.7z M361.7,110.7c-0.9,0.2-1.7,0.3-2.5,0.3l-0.2-0.4c0.7-0.1,1.6-0.2,2.4-0.3L361.7,110.7z"/>
		<path class="st1" d="M366.4,115.2c-0.4,0.6-0.9,1.1-1.6,1.5l-0.4-0.4c0.5-0.4,1-0.8,1.5-1.4L366.4,115.2z M370.4,112h-5.9v-0.5
			h2.7c-0.1-0.3-0.2-0.5-0.3-0.7h-1.8v-2.7h4.6v2.7h-2.2c0.1,0.2,0.2,0.4,0.3,0.7h2.6V112z M369.7,114.5h-1.9v2
			c0,0.3-0.1,0.5-0.2,0.6c-0.2,0.1-0.4,0.2-0.8,0.2h-0.4l-0.2-0.5c0.4,0,0.6,0,0.8,0s0.3-0.1,0.3-0.3v-1.9h-2v-1.9h4.4V114.5z
			 M369.2,109.2v-0.6h-3.5v0.6H369.2z M369.2,110.3v-0.6h-3.5v0.6H369.2z M369.1,114v-0.8h-3.3v0.8H369.1z M369.8,116.3l-0.5,0.3
			c-0.2-0.5-0.6-1-0.9-1.5l0.5-0.3C369.2,115.3,369.5,115.8,369.8,116.3z M373.9,114.2c-0.9,1.2-2.1,2.3-3.6,3.1l-0.3-0.5
			c1.6-0.9,2.8-1.9,3.5-3L373.9,114.2z M373.7,108.2c-0.8,1-1.8,1.8-3.1,2.4l-0.3-0.5c1.5-0.7,2.5-1.5,3.1-2.3L373.7,108.2z
			 M373.8,111.1c-0.7,0.9-1.8,1.8-3.2,2.5l-0.3-0.5c1.4-0.7,2.5-1.6,3.2-2.5L373.8,111.1z"/>
		<path class="st1" d="M384.3,113.8h-5.7v2.8c0.7-0.1,1.4-0.3,2.1-0.5l0,0.5c-0.9,0.3-1.7,0.5-2.7,0.7l-0.2-0.5
			c0.1-0.1,0.2-0.2,0.2-0.3v-2.6h-1.4c-0.3,1.5-0.6,2.7-1.2,3.5l-0.4-0.4c0.8-1.3,1.2-3,1.2-5.2v-3.6h7.5v2.3h-7v1.1h2v-0.7h0.6v0.7
			h2.3v-0.7h0.6v0.7h1.6v0.5h-1.6v1.2h2.1V113.8z M378.8,113.3v-1.2h-2c0,0.4,0,0.8-0.1,1.2H378.8z M383.1,109.9v-1.2h-6.4v1.2
			H383.1z M381.7,113.3v-1.2h-2.3v1.2H381.7z M384.8,116.8l-0.3,0.5c-1.4-0.4-2.5-0.8-3.1-1.4c-0.6-0.5-1-1.1-1.3-1.6l0.6-0.1
			c0.3,0.5,0.7,1,1.1,1.3c0.5-0.3,1-0.8,1.4-1.3l0.5,0.3c-0.4,0.5-0.9,0.9-1.4,1.3C383,116.2,383.8,116.5,384.8,116.8z"/>
	</g>
	<g>
		<path class="st1" d="M295.1,128.2c0.9-3,1.8-6,2.7-9c2.9-1.1,5.7-2.3,8.5-3.6c-6.2-1.9-12.2-4.1-18.1-6.7c0.9,3.2,1.8,6.3,2.8,9.5
			c-2.7,1.7-5.5,3.3-8.3,4.8C286.7,125,290.9,126.7,295.1,128.2z"/>
		<path class="st1" d="M305.9,117.1c-2.2,0.9-4.4,1.8-6.6,2.7c2.2,0.7,3.3,1.1,5.5,1.7C305.2,119.7,305.5,118.8,305.9,117.1z"/>
		<path class="st1" d="M298.6,120.6c-1.4,4.6-2.7,9.2-4.1,13.7c34.8,11.4,71.6,11.4,106.4,0c-1.4-4.6-2.7-9.2-4.1-13.7
			C364.7,131.2,330.7,131.2,298.6,120.6z M296.3,133.5c0.1-0.5,0.2-0.8,0.4-1.3c2.3,1,4.7,2,7.1,2.9
			C301.3,134.6,298.8,134.1,296.3,133.5z M297.3,130.1c0.1-0.5,0.2-0.8,0.4-1.3c2.3,1,4.6,1.9,7,2.8
			C302.1,131.2,299.7,130.7,297.3,130.1z M298.2,126.7c0.1-0.5,0.2-0.8,0.4-1.3c2.2,1,4.5,1.9,6.8,2.8
			C303,127.8,300.6,127.3,298.2,126.7z M299.2,123.4c0.1-0.5,0.2-0.8,0.4-1.3c2.2,1,4.4,1.9,6.7,2.7
			C303.9,124.4,301.6,123.9,299.2,123.4z M316.8,135.4c0.3,0.4,0.7,0.7,1.4,0.8c0.6,0.1,1.1,0.1,1.6-0.1l-0.2,0.8
			c-0.5,0.1-1.1,0.1-1.8,0c-0.9-0.2-1.5-0.5-1.9-1.1c-0.4-0.6-0.5-1.3-0.3-2.1c0.2-0.8,0.7-1.5,1.4-1.9c0.7-0.4,1.5-0.6,2.4-0.4
			c0.6,0.1,1,0.3,1.4,0.5l-0.2,0.8c-0.4-0.3-0.8-0.5-1.3-0.6c-0.7-0.1-1.2,0-1.7,0.3c-0.5,0.3-0.8,0.8-1,1.4
			C316.5,134.4,316.5,134.9,316.8,135.4z M324,137.9l-3.3-0.5l1.1-5.4l0.9,0.2l-1,4.7l2.4,0.4L324,137.9z M329,138.6l-0.3-1.5
			l-2.4-0.3l-0.8,1.3l-1-0.1l3.2-5.1l1.1,0.1l1.4,5.7L329,138.6z M334.8,134.6c-0.3-0.3-0.8-0.4-1.4-0.5c-0.4,0-0.7,0-0.9,0.1
			c-0.2,0.1-0.4,0.3-0.4,0.5c0,0.2,0,0.4,0.2,0.5s0.5,0.4,1,0.6c0.6,0.3,1,0.6,1.2,0.9c0.2,0.3,0.3,0.6,0.2,0.9
			c-0.1,0.5-0.3,0.9-0.7,1.1c-0.4,0.2-1,0.3-1.7,0.2c-0.3,0-0.5-0.1-0.9-0.2c-0.3-0.1-0.5-0.2-0.7-0.3l0.1-0.9
			c0.4,0.4,1,0.6,1.6,0.7c0.8,0.1,1.3-0.1,1.3-0.6c0-0.1,0-0.3-0.1-0.4c-0.1-0.1-0.2-0.2-0.3-0.3c-0.1-0.1-0.4-0.3-0.8-0.5
			c-0.5-0.3-0.9-0.6-1.1-0.8c-0.2-0.3-0.3-0.6-0.2-0.9c0.1-0.5,0.3-0.8,0.8-1c0.5-0.2,1-0.3,1.7-0.2c0.6,0.1,1.1,0.2,1.4,0.3
			L334.8,134.6z M339.3,135c-0.4-0.3-0.8-0.4-1.4-0.5c-0.4,0-0.7,0-0.9,0.1c-0.2,0.1-0.4,0.3-0.4,0.5c0,0.2,0,0.4,0.2,0.5
			c0.2,0.1,0.5,0.3,1,0.6c0.6,0.3,1,0.6,1.2,0.9c0.2,0.3,0.3,0.6,0.3,0.9c0,0.5-0.3,0.9-0.7,1.1c-0.4,0.2-1,0.3-1.7,0.3
			c-0.3,0-0.6-0.1-0.9-0.2c-0.3-0.1-0.6-0.2-0.7-0.3l0.1-0.9c0.4,0.4,1,0.6,1.6,0.6c0.8,0.1,1.2-0.2,1.3-0.7c0-0.1,0-0.3-0.1-0.4
			c-0.1-0.1-0.2-0.2-0.3-0.3c-0.1-0.1-0.4-0.3-0.9-0.5c-0.5-0.3-0.9-0.5-1.1-0.8c-0.2-0.3-0.3-0.6-0.2-0.9c0-0.5,0.3-0.8,0.7-1.1
			c0.4-0.2,1-0.3,1.6-0.3c0.6,0,1.1,0.1,1.4,0.3L339.3,135z M341.6,134.8L341.6,134.8l-0.3,4.1v0l0,0.7l-1,0l0-0.7l0,0l0.3-4.1v0
			l0-0.7l1,0L341.6,134.8z M347.4,135.3c-0.4-0.2-0.9-0.3-1.4-0.4c-0.7,0-1.2,0.2-1.6,0.6c-0.4,0.4-0.6,0.9-0.7,1.5
			c0,0.6,0.2,1.1,0.5,1.5c0.4,0.4,0.9,0.6,1.5,0.6c0.6,0,1.1-0.1,1.6-0.3l0,0.8c-0.5,0.2-1,0.3-1.7,0.3c-0.9,0-1.6-0.3-2.1-0.8
			c-0.5-0.5-0.8-1.2-0.7-2c0-0.9,0.3-1.6,1-2.1c0.6-0.5,1.4-0.8,2.3-0.8c0.6,0,1.1,0.1,1.5,0.3L347.4,135.3z M358.5,139.4l-0.3-3.5
			c0-0.3,0-0.7,0-1.1l0,0c-0.1,0.3-0.1,0.5-0.1,0.6l-1.6,4.2l-0.6,0l-2.2-3.9c-0.1-0.1-0.1-0.3-0.2-0.6l0,0c0.1,0.3,0.1,0.7,0.1,1.2
			l0.3,3.4l-0.9,0.1l-0.4-5.5l1.3-0.1l1.9,3.5c0.2,0.3,0.3,0.5,0.3,0.7l0,0c0-0.2,0.1-0.4,0.2-0.7l1.4-3.7l1.3-0.1l0.4,5.5
			L358.5,139.4z M365.7,137.9c-0.5,0.6-1.1,0.9-2,1c-0.9,0.1-1.6-0.1-2.2-0.5c-0.6-0.4-1-1.1-1.1-1.9c-0.1-0.9,0-1.6,0.5-2.2
			c0.5-0.6,1.2-0.9,2.1-1.1c0.9-0.1,1.6,0.1,2.2,0.5c0.6,0.5,1,1.1,1.1,1.9C366.3,136.6,366.1,137.3,365.7,137.9z M370.1,138
			l-1.1,0.2l-3.2-5.1l1-0.1l2.3,3.9c0.1,0.1,0.2,0.3,0.2,0.5l0,0c0-0.2,0-0.3,0-0.5l0.8-4.3l1-0.1L370.1,138z M373.1,137.5l-0.1-0.7
			l0,0l-0.8-4v0l-0.1-0.7l0.9-0.2l0.1,0.7l0,0l0.8,4v0l0.1,0.7L373.1,137.5z M375.6,137.1l-1.2-5.4l3.2-0.6l0.2,0.7l-2.3,0.4
			l0.4,1.6l2.1-0.4l0.2,0.7l-2.1,0.4l0.4,1.7l2.4-0.4l0.2,0.7L375.6,137.1z M382.8,135.4c-0.3,0.3-0.8,0.6-1.5,0.7
			c-0.3,0.1-0.5,0.1-0.9,0.1c-0.3,0-0.6,0-0.8-0.1l-0.2-0.9c0.5,0.2,1.1,0.3,1.8,0.2c0.8-0.2,1.1-0.5,1-1c0-0.1-0.1-0.3-0.2-0.4
			c-0.1-0.1-0.3-0.2-0.4-0.2c-0.2-0.1-0.5-0.1-1-0.2c-0.6-0.1-1-0.3-1.3-0.5c-0.3-0.2-0.5-0.5-0.5-0.8c-0.1-0.5,0-0.9,0.3-1.2
			c0.3-0.3,0.8-0.6,1.5-0.7c0.6-0.1,1.1-0.1,1.4-0.1l0.2,0.8c-0.4-0.2-0.9-0.2-1.5-0.1c-0.4,0.1-0.6,0.2-0.8,0.4
			c-0.2,0.2-0.2,0.4-0.2,0.6c0.1,0.2,0.2,0.3,0.4,0.4c0.2,0.1,0.6,0.2,1.1,0.3c0.7,0.1,1.1,0.3,1.4,0.5c0.3,0.2,0.5,0.5,0.6,0.8
			C383.3,134.7,383.2,135.1,382.8,135.4z M395.8,122.1c0.1,0.5,0.2,0.8,0.4,1.3c-2.3,0.5-4.7,1-7.1,1.5
			C391.4,124,393.6,123.1,395.8,122.1z M399.1,133.5c-2.5,0.6-5,1.1-7.5,1.6c2.4-0.9,4.8-1.8,7.1-2.9
			C398.9,132.7,398.9,133,399.1,133.5z M398.1,130.1c-2.4,0.6-4.9,1.1-7.3,1.5c2.3-0.9,4.7-1.8,7-2.8
			C397.9,129.3,398,129.6,398.1,130.1z M390,128.2c2.3-0.9,4.6-1.8,6.8-2.8c0.1,0.5,0.2,0.8,0.4,1.3
			C394.8,127.3,392.4,127.8,390,128.2z"/>
		<path class="st1" d="M328,133.7L328,133.7c-0.1,0.2-0.1,0.3-0.2,0.4l-1.2,2l1.9,0.3l-0.5-2.3C328,134,328,133.9,328,133.7z"/>
		<path class="st1" d="M364.5,134.5c-0.4-0.3-0.9-0.5-1.5-0.4c-0.6,0.1-1,0.3-1.3,0.7c-0.3,0.4-0.4,0.9-0.3,1.6
			c0.1,0.6,0.3,1.1,0.7,1.4c0.4,0.3,0.9,0.5,1.5,0.4c0.6-0.1,1.1-0.3,1.4-0.7c0.3-0.4,0.4-0.9,0.3-1.6
			C365.1,135.3,364.8,134.8,364.5,134.5z"/>
		<path class="st1" d="M400.3,128.2c4.2-1.5,8.4-3.1,12.5-4.9c-2.8-1.5-5.6-3.1-8.3-4.8c1-3.2,1.9-6.3,2.8-9.5
			c-5.9,2.5-11.9,4.8-18.1,6.7c2.8,1.3,5.6,2.5,8.5,3.6C398.5,122.2,399.4,125.2,400.3,128.2z"/>
		<path class="st1" d="M396.1,119.7c-2.2-0.8-4.4-1.7-6.6-2.7c0.5,1.8,0.7,2.6,1.1,4.4C392.8,120.8,393.9,120.5,396.1,119.7z"/>
	</g>
	<path class="st1" d="M337.3,64l-3.6,3.3h-8.2v33.5h-3.7V67.3h-17.6l3.6-3.3H337.3z"/>
	<path class="st1" d="M347.8,87.2c-1.6,3.9-5.2,6.7-9.4,6.7c-5.7,0-10.4-5.1-10.4-11.5S332.7,71,338.4,71c4.4,0,8.1,3,9.6,7.2h2.8
		c-1.6-5.8-6.6-10.1-12.4-10.1c-7.2,0-13,6.4-13,14.3c0,7.9,5.8,14.3,13,14.3c5.6,0,10.4-4,12.2-9.5H347.8z"/>
	<g>
		<path class="st1" d="M352.5,83.6v15.2h-1.1V63.7h14.5v2.2h-13.4v14.2"/>
		<path class="st1" d="M352.5,65.9v32.9h2.6V65.9H352.5z M354.7,98.1h-1.8v-1.8h1.8V98.1z M354.7,93.8h-1.8v-1.8h1.8V93.8z
			 M354.7,89.6h-1.8v-1.8h1.8V89.6z M354.7,85.4h-1.8v-1.8h1.8V85.4z M354.7,81.2h-1.8v-1.8h1.8V81.2z M354.7,76.9h-1.8v-1.8h1.8
			V76.9z M354.7,72.7h-1.8v-1.8h1.8V72.7z M354.7,68.5h-1.8v-1.8h1.8V68.5z"/>
		<rect x="355.1" y="76.9" class="st1" width="9.7" height="2.3"/>
	</g>
	<polyline class="st1" points="368.5,85.2 381.8,85.2 381.8,82.3 368.5,82.3 368.5,70.8 381.8,70.8 381.8,67.6 365.9,67.6 
		365.9,103.7 368.5,103.7 	"/>
	<circle class="st1" cx="338.1" cy="82.4" r="3.6"/>
	<rect x="274.5" y="104.1" class="st1" width="148.7" height="2"/>
	<rect x="274.5" y="119.1" class="st1" width="148.7" height="2"/>
	<polygon class="st1" points="372,73.3 372,81 376.2,81 381.8,73.3 	"/>
	<polygon class="st1" points="313.4,69.4 319.8,78.1 319.8,69.4 	"/>
	<polygon class="st1" points="356.9,91.1 358.7,84.7 356.9,84.7 	"/>
	<path class="st1" d="M359.8,95.1c1.4,0.3,2.8,0.6,4.1,1V85.7L359.8,95.1z"/>
	<path class="st1" d="M369,64.5h4.2l6.2-14.2l-10.1-3.7L365,62.2h1.5C367.8,62.2,368.9,63.2,369,64.5z"/>
	<path class="st1" d="M347.7,64.8c0-1.4,1.1-2.6,2.6-2.6h2.9l1.2-18.1h-10.7l1.6,21.7c0.9,0.5,1.7,1.1,2.5,1.8V64.8z"/>
	<path class="st1" d="M386.9,70.7c0,1.4-1.1,2.6-2.6,2.6h-2.5l-5.6,7.8h8.1c0.4,0,0.7,0.1,1,0.2L401,65l-8.2-6.9l-6,8.3
		c0.1,0.2,0.1,0.5,0.1,0.8V70.7z"/>
	<path class="st1" d="M381.6,105.7c-0.6-0.6-1.2-1.2-1.9-1.8l36.5-18l-5.4-9.3l-35.4,24.2c-1.1-0.7-2.2-1.3-3.4-1.9v1.5
		c2.9,1.5,5.4,3.2,7.6,5.2"/>
	<path class="st1" d="M359.8,95.1l4.1-9.4v-1h-5.2l-1.8,6.4V96c2.4,0.3,4.8,0.8,7,1.4V96C362.6,95.7,361.2,95.4,359.8,95.1z"/>
	<polygon class="st1" points="328.5,46.7 318.4,50.4 323.2,61.1 332.7,61.1 	"/>
	<path class="st1" d="M318,106.1c1.7-1.6,3.7-3,5.8-4.2h-1.4c-1.4,0-2.6-1.1-2.6-2.6v-0.7L287,76.7l-5.4,9.3l37,17.8
		c-0.7,0.6-1.4,1.2-2.1,1.8"/>
	<path class="st1" d="M313.4,69.4h-10.9c-1.1,0-2.1-0.7-2.4-1.7c-0.4-1,0-2.2,0.8-2.9l4-3.1c0.5-0.4,1-0.5,1.6-0.5h0.8l-2.3-3.1
		l-8.2,6.9l22.9,23.5V78.1L313.4,69.4z"/>
	<g>
		<path class="st1" d="M648.8,236.7l-0.7-0.6c1-1,2-2.5,2-4.8c0-2.3-1.3-4.1-3.4-4.1c-2.1,0-3.6,1.8-3.6,6.1h-0.9
			c0-4-1.5-5.6-3.3-5.6c-1.7,0-2.9,1.5-2.9,3.6c0,1.6,0.7,3.1,1.7,4.1l-0.7,0.6c-1-1.1-1.9-2.8-1.9-4.7c0-2.6,1.4-4.7,3.7-4.7
			c2,0,3.2,1.5,3.8,3.5h0.1c0.4-2.1,1.8-4,4-4c2.7,0,4.3,2.3,4.3,5.2C650.9,234,649.8,235.6,648.8,236.7z"/>
		<path class="st1" d="M639.1,214.7c-0.8,0-1.6-0.1-2.3-0.1v0.1c0.7,0.5,1.3,1,2,1.5l6.3,5.2V211h0.9v11.9h-0.7l-10.1-8.4v-0.8h15.4
			v1H639.1z"/>
		<path class="st1" d="M636.2,198.2v9.5h-1v-10.9h0.6c4.9,4.2,8.7,5.4,14.7,5.6v1.2C644.4,203.4,640.7,201.9,636.2,198.2z"/>
		<path class="st1" d="M650,193.1c-5.1-5.7-7.9-8.5-10.6-8.5c-1.9,0-3.4,1.1-3.4,3.8c0,1.6,0.9,3,2,4l-0.7,0.7
			c-1.3-1.3-2.3-2.8-2.3-4.8c0-3,1.7-4.8,4.3-4.8c3.1,0,6,3,10.5,7.9c-0.1-1-0.1-1.9-0.1-2.9v-5.9h1v10.4H650z"/>
		<path class="st1" d="M646.7,179c-2.3,0-3.5-1.8-4.3-3.5h-0.1c-0.7,1.3-1.9,2.4-3.6,2.4c-2.2,0-3.8-1.9-3.8-4.4c0-3,1.7-4.6,4-4.6
			c1.5,0,2.9,1.1,3.9,2.4h0.1c0.9-1.7,1.7-3.1,3.9-3.1c2.2,0,4,1.9,4,5.3C650.9,176.8,649.1,179,646.7,179z M639,169.8
			c-1.7,0-3.1,1.3-3.1,3.6c0,2,1.2,3.4,2.9,3.4c2.2,0,3-2.1,3.8-4.6C641.5,170.6,640.4,169.8,639,169.8z M646.9,169.2
			c-2.6,0-3.2,2.5-4.1,5.5c0.9,1.9,2,3.3,3.9,3.3c1.9,0,3.4-1.7,3.4-4.5C650,170.6,648.6,169.2,646.9,169.2z"/>
		<path class="st1" d="M642.9,164.4c-5.1,0-7.9-1.9-7.9-5.3s2.8-5.3,7.9-5.3c5.1,0,8,1.9,8,5.3S648,164.4,642.9,164.4z M642.9,154.9
			c-4.7,0-7,1.7-7,4.2s2.3,4.2,7,4.2c4.7,0,7.1-1.7,7.1-4.2S647.6,154.9,642.9,154.9z M642.7,160.4c-0.9,0-1.4-0.6-1.4-1.3
			c0-0.7,0.5-1.3,1.4-1.3c0.9,0,1.5,0.6,1.5,1.3C644.1,159.8,643.6,160.4,642.7,160.4z"/>
		<path class="st1" d="M642.9,150c-5.1,0-7.9-1.9-7.9-5.3s2.8-5.3,7.9-5.3c5.1,0,8,1.9,8,5.3S648,150,642.9,150z M642.9,140.5
			c-4.7,0-7,1.7-7,4.2s2.3,4.2,7,4.2c4.7,0,7.1-1.7,7.1-4.2S647.6,140.5,642.9,140.5z M642.7,146c-0.9,0-1.4-0.6-1.4-1.3
			c0-0.7,0.5-1.3,1.4-1.3c0.9,0,1.5,0.6,1.5,1.3C644.1,145.4,643.6,146,642.7,146z"/>
		<path class="st1" d="M649.7,134.9v-4.6H637v3.4h-0.7c-0.2-1.6-0.5-2.8-1-3.7v-0.8h14.4V125h0.9v10H649.7z"/>
		<path class="st1" d="M650,121.1c-5.1-5.7-7.9-8.5-10.6-8.5c-1.9,0-3.4,1.1-3.4,3.8c0,1.6,0.9,3,2,4l-0.7,0.7
			c-1.3-1.3-2.3-2.8-2.3-4.8c0-3,1.7-4.8,4.3-4.8c3.1,0,6,3,10.5,7.9c-0.1-1-0.1-1.9-0.1-2.9v-5.9h1v10.4H650z"/>
	</g>
	<g>
		<path class="st1" d="M55.8,110.3l0.7,0.6c-1,1-2,2.5-2,4.8c0,2.4,1.3,4.1,3.4,4.1c2.1,0,3.6-1.8,3.6-6.1h0.9c0,4,1.5,5.6,3.3,5.6
			c1.7,0,2.9-1.5,2.9-3.6c0-1.6-0.7-3.1-1.7-4.1l0.7-0.6c1,1.1,1.9,2.8,1.9,4.7c0,2.6-1.4,4.7-3.7,4.7c-2,0-3.2-1.5-3.8-3.5H62
			c-0.4,2.1-1.8,4-4,4c-2.7,0-4.3-2.3-4.3-5.2C53.7,113,54.8,111.4,55.8,110.3z"/>
		<path class="st1" d="M65.5,132.3c0.8,0,1.6,0.1,2.3,0.1v-0.1c-0.7-0.5-1.3-1-2-1.5l-6.3-5.2V136h-0.9v-11.9h0.7l10.1,8.4v0.8H53.9
			v-1H65.5z"/>
		<path class="st1" d="M68.3,148.8v-9.5h1v10.9h-0.6c-4.9-4.2-8.7-5.4-14.7-5.6v-1.2C60.2,143.6,63.9,145.1,68.3,148.8z"/>
		<path class="st1" d="M54.6,153.9c5.1,5.7,7.9,8.5,10.6,8.5c1.9,0,3.4-1.1,3.4-3.8c0-1.6-0.9-3-2-4l0.7-0.7
			c1.3,1.3,2.3,2.8,2.3,4.8c0,3-1.7,4.8-4.3,4.8c-3.1,0-6-3-10.5-7.9c0.1,1,0.1,1.9,0.1,2.9v5.9h-1v-10.4H54.6z"/>
		<path class="st1" d="M57.9,168c2.3,0,3.5,1.8,4.3,3.5h0.1c0.7-1.3,1.9-2.4,3.6-2.4c2.2,0,3.8,1.9,3.8,4.4c0,3-1.7,4.6-4,4.6
			c-1.5,0-2.9-1.1-3.9-2.4h-0.1c-0.9,1.7-1.7,3.1-3.9,3.1c-2.2,0-4-1.9-4-5.3C53.7,170.2,55.5,168,57.9,168z M57.7,177.9
			c2.6,0,3.2-2.5,4.1-5.5c-0.9-1.9-2-3.3-3.9-3.3c-1.9,0-3.4,1.7-3.4,4.5C54.5,176.4,55.9,177.9,57.7,177.9z M65.5,177.2
			c1.7,0,3.1-1.3,3.1-3.6c0-2-1.2-3.4-2.9-3.4c-2.2,0-3,2.1-3.8,4.6C63,176.4,64.2,177.2,65.5,177.2z"/>
		<path class="st1" d="M61.7,182.6c5.1,0,7.9,1.9,7.9,5.3c0,3.3-2.8,5.3-7.9,5.3c-5.1,0-8-1.9-8-5.3
			C53.7,184.6,56.6,182.6,61.7,182.6z M61.7,192.1c4.7,0,7-1.7,7-4.2c0-2.5-2.3-4.2-7-4.2c-4.7,0-7.1,1.7-7.1,4.2
			C54.6,190.4,57,192.1,61.7,192.1z M61.9,186.6c0.9,0,1.4,0.6,1.4,1.3c0,0.7-0.5,1.3-1.4,1.3c-0.9,0-1.5-0.6-1.5-1.3
			C60.4,187.2,60.9,186.6,61.9,186.6z"/>
		<path class="st1" d="M61.7,197c5.1,0,7.9,1.9,7.9,5.3c0,3.3-2.8,5.3-7.9,5.3c-5.1,0-8-1.9-8-5.3C53.7,199,56.6,197,61.7,197z
			 M61.7,206.5c4.7,0,7-1.7,7-4.2c0-2.5-2.3-4.2-7-4.2c-4.7,0-7.1,1.7-7.1,4.2C54.6,204.8,57,206.5,61.7,206.5z M61.9,201
			c0.9,0,1.4,0.6,1.4,1.3c0,0.7-0.5,1.3-1.4,1.3c-0.9,0-1.5-0.6-1.5-1.3C60.4,201.6,60.9,201,61.9,201z"/>
		<path class="st1" d="M54.9,212.1v4.6h12.7v-3.5h0.7c0.2,1.6,0.5,2.8,1,3.7v0.8H54.9v4.3h-0.9v-10H54.9z"/>
		<path class="st1" d="M54.6,225.9c5.1,5.7,7.9,8.5,10.6,8.5c1.9,0,3.4-1.1,3.4-3.8c0-1.6-0.9-3-2-4l0.7-0.7
			c1.3,1.3,2.3,2.8,2.3,4.8c0,3-1.7,4.8-4.3,4.8c-3.1,0-6-3-10.5-7.9c0.1,1,0.1,1.9,0.1,2.9v5.9h-1v-10.4H54.6z"/>
	</g>
	<line class="st2" x1="606" y1="56.3" x2="606" y2="282.3"/>
	<line class="st2" x1="92.7" y1="56.3" x2="92.7" y2="282.3"/>
</g>
</svg>
