<?xml version="1.0" encoding="utf-8"?>
<!-- Generator: Adobe Illustrator 22.0.0, SVG Export Plug-In . SVG Version: 6.00 Build 0)  -->
<svg version="1.1" id="圖層_1" xmlns="http://www.w3.org/2000/svg" xmlns:xlink="http://www.w3.org/1999/xlink" x="0px" y="0px"
	 viewBox="0 0 571.4 450.4" style="enable-background:new 0 0 571.4 450.4;" xml:space="preserve">
<style type="text/css">
	.st0{fill:none;}
	.st1{fill:#8E5F59;}
	.st2{fill:#6B3734;}
	.st3{fill:#512A2A;}
</style>
<g>
	<path class="st0" d="M229.8,231C229.8,231,229.8,231,229.8,231l10.5,0c-0.6-1.3-1.4-2.8-2.3-4.5C234.6,228.5,231.9,230,229.8,231z"
		/>
	<path class="st1" d="M229.8,231c2.1-1,4.8-2.5,8.2-4.5c0.9,1.7,1.6,3.2,2.3,4.5h12.5c0-0.1-0.1-0.1-0.1-0.2
		c-0.8-1.8-2.2-4.9-4.2-9.4c4.8-1.9,7.5-3,8.2-3.4c0.4-0.2,0.5-0.5,0.3-0.8c-0.2-0.4-0.6-1-1.1-1.8s-0.9-1.4-1.1-1.9
		c-0.2-0.4-0.5-1.1-0.9-2c-0.4-0.9-0.7-1.5-0.9-2c-0.2-0.3-0.3-0.4-0.3-0.5c-0.1,0-0.3,0.1-0.6,0.2c0,0-1.1,0.6-3.3,1.9
		c-4.1,2.3-7,3.9-8.6,4.6c-5.6,2.6-9.9,4.4-13,5.4c-0.2,0.1-0.3,0.1-0.4,0.1c-0.3,0.1-0.2,0.9,0.3,2.3c0.3,0.9,0.6,1.7,1,2.6
		c0.1,0.3,0.3,1.1,0.6,2.5c0.3,1.2,0.5,2,0.6,2.2c0,0,0,0.1,0.1,0.1L229.8,231C229.8,231,229.8,231,229.8,231z"/>
	<path class="st1" d="M279.6,229.7c-2.1-4.1-3.6-7.3-4.6-9.3c-0.9-1.9-2.1-4.8-3.7-8.7s-2.8-6.8-3.7-8.7c-0.2-0.4-0.5-0.5-1-0.2
		c-0.5,0.3-1.3,0.7-2.4,1.2c-1,0.6-1.8,1-2.4,1.2s-1.4,0.6-2.5,1.1c-1.1,0.5-2,0.8-2.5,1.1c-0.4,0.2-0.5,0.5-0.3,0.9
		c0.9,1.9,2.3,4.7,4.2,8.4c1.9,3.7,3.3,6.5,4.2,8.4c0.6,1.2,1.4,3.2,2.6,5.9h12.9C280,230.6,279.8,230.1,279.6,229.7z"/>
	<path class="st1" d="M307.5,230.1c5.4-2.5,8.8-6.5,10.2-11.9c0.2-0.6,0.2-1.1,0-1.4c-0.1-0.2-1.2-1-3.5-2.3c-2.1-1.3-3.4-2-3.9-2.2
		c-0.3-0.1-0.5-0.1-0.7,0c-0.1,0-0.4,0.6-0.8,1.6c-0.6,1.2-1.2,2.3-1.9,3.2c-1.1,1.3-2.4,2.3-3.9,3.1c-2.6,1.2-5.1,1.2-7.6,0
		c-2.3-1.1-4.1-3.1-5.3-5.8c-1.2-2.7-1.6-5.2-1-7.7c0.6-2.7,2.3-4.6,4.9-5.8c1.5-0.7,3.1-1,4.8-1c1.1,0,2.4,0.3,3.7,0.7
		c1.1,0.3,1.7,0.5,1.8,0.4c0.2-0.1,0.4-0.3,0.4-0.5c0.2-0.4,0.4-2,0.6-4.7c0.2-2.7,0.2-4.3,0.1-4.6c-0.1-0.3-0.5-0.6-1-0.8
		c-4.9-2-10.2-1.6-15.9,1.1c-5.3,2.5-8.7,6.5-10.2,12c-1.5,5.3-1,10.6,1.5,16c2.6,5.5,6.4,9.4,11.5,11.4c0.2,0.1,0.4,0.2,0.7,0.2
		h13.2C306,230.7,306.8,230.4,307.5,230.1z"/>
	<path class="st1" d="M310.9,194c2.1,4,3.6,7.1,4.6,9.1c0.9,1.9,2.2,4.9,3.8,8.8c1.6,3.9,2.9,6.9,3.8,8.8c0.2,0.4,0.6,0.6,1.2,0.5
		c0.8-0.2,2.4-0.9,4.7-1.9c2.4-1.1,4-2,4.9-2.6c0.4-0.3,0.5-0.7,0.3-1.3c-0.6-1.3-1.6-3.3-3-6c-1.4-2.6-2.4-4.6-3-5.9
		c-0.1-0.3,0.6-1.2,2.2-2.8c0.6,0.2,2.8,1.7,6.7,4.5c2.4,1.8,4.8,3.5,7.2,5.3c0.4,0.3,0.7,0.5,0.9,0.5c0.2,0,0.6,0,1.1-0.2
		c1.1-0.3,2.7-1,4.9-2c2.3-1.1,3.6-1.8,4.1-2.2c0.5-0.5,0.6-1.2,0.3-1.9c-0.5-1-3.6-3.4-9.4-7.2s-8.6-5.7-8.6-5.7
		c-0.1-0.2,0.1-0.6,0.5-1.2c2.1-3,2.6-8.4,1.7-16.1c-0.3-2.6-0.6-4.2-0.9-4.8c-0.2-0.4-0.5-0.5-0.9-0.3c-0.5,0.2-1.2,0.6-2.1,1
		s-1.6,0.8-2.1,1.1c-0.5,0.2-1.2,0.5-2.1,0.9c-1,0.4-1.7,0.7-2.1,0.9c-0.6,0.3-0.9,0.7-0.9,1.2c0.3,3.9,0.5,6.9,0.8,8.9
		c0.2,2.7,0,4.6-0.4,5.9c-0.6,1.7-2,3-4.1,4c-0.8,0.4-1.6-0.2-2.3-1.7c-0.6-1.3-1.5-3.3-2.6-6c-1.1-2.7-2-4.7-2.6-6
		c-0.1-0.3-0.4-0.4-0.7-0.3c-0.5,0.3-1.4,0.7-2.5,1.3s-1.9,1-2.5,1.3c-0.5,0.3-1.4,0.6-2.5,1.1c-1.1,0.5-2,0.8-2.5,1.1
		c-0.4,0.2-0.5,0.5-0.3,0.8C307.2,186.9,308.8,189.9,310.9,194z"/>
	<path class="st1" d="M342,168.5c1.5,2.7,2.6,4.8,3.3,6.2c2.8,5.4,4.7,9.1,5.6,11.1c0.9,2,2.2,5,3.9,9.1c1.6,4.1,2.9,7.1,3.9,9.1
		c0.2,0.5,0.7,0.6,1.2,0.4c1.3-0.6,3.4-1.6,6.1-2.8s4.7-2.2,6.1-2.8c6.2-2.9,10-4.6,11.4-5c0.4-0.1,0.7-0.2,0.8-0.3
		c0.4-0.2,0.6-0.5,0.6-0.9c0-0.5-0.3-2-1-4.3c-0.7-2.2-1.2-3.6-1.5-4.4c-0.3-0.6-0.6-0.9-1-0.7c-0.9,0.4-2.3,1.2-4,2.2
		c-1.8,1-3.1,1.8-4.1,2.2c-2.6,1.2-3.9,1.8-3.9,1.8c-2,0.8-3.3,0.9-4,0.4c-0.4-0.3-0.9-1.1-1.5-2.5c-0.5-1-0.7-1.6-0.7-1.7
		c0-0.4,0.3-0.8,1-1.1l2.8-1.3c3.6-1.7,5.9-2.7,7-3.1l2.5-0.9c0.5-0.2,0.7-0.5,0.5-0.9c-0.7-1.4-1.3-2.9-1.8-4.3
		c-1-2.8-1.5-4.3-1.5-4.3c-0.2-0.4-0.5-0.4-0.9-0.3c-0.4,0.2-0.8,0.4-1.4,0.8c-0.7,0.4-1.2,0.7-1.4,0.8c-2.2,1.2-4.4,2.3-6.7,3.4
		c-0.3,0.2-0.8,0.4-1.3,0.6c-0.5,0.3-0.8,0.4-1,0.5c-0.8,0.4-1.5,0.5-2,0.3c-0.5-0.2-1.1-0.9-1.7-2.1c-0.5-1.1-0.8-1.9-0.8-2.1
		c0-0.5,0.5-1,1.4-1.5c3.7-1.8,8.1-3.6,12.9-5.4c0.3-0.1,0.5-0.2,0.6-0.2c0.4-0.2,0.4-0.4,0.3-0.8c-0.2-0.4-0.9-1.6-2-3.6
		c-1.2-2-1.9-3.1-2.2-3.5c-0.5-0.6-1.2-0.7-2.1-0.3c-1.3,0.6-3.2,1.6-5.8,2.8s-4.5,2.2-5.8,2.8c-1.3,0.6-3.3,1.5-5.9,2.7
		c-2.7,1.2-4.6,2.1-5.9,2.7c-0.5,0.2-0.6,0.5-0.4,0.9L342,168.5z"/>
	<path class="st1" d="M373.8,169.5C373.8,169.6,373.8,169.6,373.8,169.5C373.8,169.5,373.8,169.5,373.8,169.5z"/>
	<path class="st1" d="M373.1,158c0.1,0.3,0.3,1.1,0.6,2.5c0.3,1.2,0.5,2,0.6,2.2c0.1,0.2,0.3,0.2,0.5,0.1c2.1-1,4.8-2.5,8.2-4.5
		c2.4,4.7,3.9,7.7,4.6,9.1c1,2.1,2.4,5.3,4.2,9.5c1.8,4.3,3.2,7.4,4.1,9.5c0.2,0.5,0.6,0.6,1.1,0.5c1-0.3,2.6-1,4.9-2
		c2.1-1,3.6-1.8,4.6-2.4c0.4-0.3,0.6-0.4,0.7-0.5c0.1-0.2,0.1-0.4-0.1-0.7c-1-2.1-2.5-5.2-4.7-9.3c-2.1-4.1-3.7-7.2-4.7-9.3
		c-0.8-1.8-2.2-4.9-4.2-9.4c4.8-1.9,7.5-3,8.2-3.4c0.4-0.2,0.5-0.5,0.3-0.8c-0.2-0.4-0.6-1-1.1-1.8c-0.5-0.8-0.9-1.4-1.1-1.9
		c-0.2-0.4-0.5-1.1-0.9-2c-0.4-0.9-0.7-1.5-0.9-2c-0.2-0.3-0.3-0.4-0.3-0.5c-0.1,0-0.3,0.1-0.6,0.2c0,0-1.1,0.6-3.3,1.9
		c-4.1,2.3-7,3.9-8.6,4.6c-5.6,2.6-9.9,4.4-13,5.4c-0.2,0.1-0.3,0.1-0.4,0.1c-0.3,0.1-0.2,0.9,0.3,2.3
		C372.4,156.3,372.7,157.2,373.1,158z"/>
	<polygon class="st1" points="305.3,231 292.1,231 280.3,231 267.4,231 252.8,231 240.3,231 229.8,231 229.3,231 36.7,231 69.7,417 
		498.7,417 532.7,231 	"/>
</g>
<g>
	<path class="st2" d="M427.1,227.5h72.1V212h-44.9c0.1,2,0.4,3.3,0.4,3.3L427.1,227.5z"/>
	<path class="st2" d="M165.3,223.4c0,0,9.9-4,16.3-11.4H70.2v15.5h96.9L165.3,223.4z"/>
</g>
<path class="st3" d="M184.6,191l216.3-95.9c0,0,7.3,9.9,16.6,10.2c9.3,0.3,11.8,0.8,20-2.9c0.4,1,1.3,2.9,2.4,5.5
	c-3,1.3-4.3,4.8-3,7.8c1.3,3,4.8,4.3,7.8,3c0.6,1.4,1.3,2.8,1.9,4.3c-3,1.3-4.3,4.8-3,7.8s4.8,4.3,7.8,3c0.7,1.6,1.3,3,1.9,4.3
	c-3,1.3-4.3,4.8-3,7.8c1.3,3,4.8,4.3,7.8,3c0.6,1.3,1.2,2.7,1.9,4.3c-3,1.3-4.3,4.8-3,7.8c1.3,3,4.8,4.3,7.8,3
	c0.6,1.4,1.3,2.9,1.9,4.3c-3,1.3-4.3,4.8-3,7.8s4.8,4.3,7.8,3c0.9,2,1.6,3.6,2,4.4c-8.3,3.6-9.6,5.7-15.6,12.8
	c-3,3.6-3.9,8.5-4.1,12.4h44.9l34-143.5h-496l33,143.5h114C186.6,203.7,187.8,197.8,184.6,191z"/>
</svg>
